<svg xmlns="http://www.w3.org/2000/svg" xmlns:xlink="http://www.w3.org/1999/xlink" viewBox="0 0 155 60"><defs><linearGradient id="linear-gradient" x1="31.8" y1="43.29" x2="15.02" y2="26.51" gradientTransform="matrix(1, 0, 0, -1, 0, 62)" gradientUnits="userSpaceOnUse"><stop offset="0" stop-color="#00a0ff"/><stop offset="0.01" stop-color="#00a1ff"/><stop offset="0.26" stop-color="#00beff"/><stop offset="0.51" stop-color="#00d2ff"/><stop offset="0.76" stop-color="#00dfff"/><stop offset="1" stop-color="#00e3ff"/></linearGradient><linearGradient id="linear-gradient-2" x1="43.83" y1="32" x2="19.64" y2="32" gradientTransform="matrix(1, 0, 0, -1, 0, 62)" gradientUnits="userSpaceOnUse"><stop offset="0" stop-color="#ffe000"/><stop offset="0.41" stop-color="#ffbd00"/><stop offset="0.78" stop-color="orange"/><stop offset="1" stop-color="#ff9c00"/></linearGradient><linearGradient id="linear-gradient-3" x1="34.83" y1="29.7" x2="12.07" y2="6.95" gradientTransform="matrix(1, 0, 0, -1, 0, 62)" gradientUnits="userSpaceOnUse"><stop offset="0" stop-color="#ff3a44"/><stop offset="1" stop-color="#c31162"/></linearGradient><linearGradient id="linear-gradient-4" x1="17.3" y1="51.82" x2="27.46" y2="41.66" gradientTransform="matrix(1, 0, 0, -1, 0, 62)" gradientUnits="userSpaceOnUse"><stop offset="0" stop-color="#32a071"/><stop offset="0.07" stop-color="#2da771"/><stop offset="0.48" stop-color="#15cf74"/><stop offset="0.8" stop-color="#06e775"/><stop offset="1" stop-color="#00f076"/></linearGradient></defs><title>am_get</title><g id="artwork"><rect width="155" height="60" style="fill:#fff;fill-opacity:0"/><rect x="10" y="10" width="135" height="40" rx="5" ry="5"/><path d="M140,10.8a4.2,4.2,0,0,1,4.2,4.2V45a4.2,4.2,0,0,1-4.2,4.2H15A4.2,4.2,0,0,1,10.8,45V15A4.2,4.2,0,0,1,15,10.8H140m0-.8H15a5,5,0,0,0-5,5V45a5,5,0,0,0,5,5H140a5,5,0,0,0,5-5V15a5,5,0,0,0-5-5Z" style="fill:#a5a5a5"/><path d="M74.72,22.79a3.72,3.72,0,1,0,3.73,3.72A3.66,3.66,0,0,0,74.72,22.79Zm0,6a2.26,2.26,0,1,1,2.1-2.25A2.15,2.15,0,0,1,74.72,28.76Zm-8.14-6a3.72,3.72,0,1,0,3.73,3.72A3.66,3.66,0,0,0,66.58,22.79Zm0,6a2.26,2.26,0,1,1,2.1-2.25A2.15,2.15,0,0,1,66.58,28.76ZM56.9,23.93v1.58h3.77a3.29,3.29,0,0,1-.86,2,3.86,3.86,0,0,1-2.91,1.15,4.2,4.2,0,0,1,0-8.39,4,4,0,0,1,2.84,1.13l1.11-1.11a5.5,5.5,0,0,0-4-1.59,5.77,5.77,0,1,0,0,11.55,5.28,5.28,0,0,0,4-1.62,5.21,5.21,0,0,0,1.37-3.69,5.14,5.14,0,0,0-.08-1Zm39.6,1.23a3.46,3.46,0,0,0-3.18-2.37,3.53,3.53,0,0,0-3.51,3.72,3.64,3.64,0,0,0,3.69,3.72,3.7,3.7,0,0,0,3.1-1.65l-1.27-.84a2.12,2.12,0,0,1-1.83,1,1.89,1.89,0,0,1-1.8-1.13l5-2.06ZM91.43,26.4a2,2,0,0,1,1.94-2.17,1.44,1.44,0,0,1,1.38.79Zm-4,3.61H89V19.07H87.39Zm-2.68-6.38h-.06a2.58,2.58,0,0,0-2-.83,3.72,3.72,0,0,0,0,7.44,2.53,2.53,0,0,0,2-.84h.06v.54c0,1.42-.76,2.18-2,2.18a2.06,2.06,0,0,1-1.87-1.32l-1.42.59a3.54,3.54,0,0,0,3.3,2.2c1.92,0,3.53-1.13,3.53-3.87V23H84.72Zm-1.87,5.14a2.26,2.26,0,0,1,0-4.51,2.1,2.1,0,0,1,2,2.27A2.08,2.08,0,0,1,82.84,28.76Zm21.31-9.69h-3.91V30h1.63V25.86h2.28a3.4,3.4,0,1,0,0-6.79Zm0,5.27h-2.32V20.59h2.32a1.87,1.87,0,1,1,0,3.75Zm10.08-1.57a3.06,3.06,0,0,0-2.91,1.67l1.45.6a1.55,1.55,0,0,1,1.49-.8A1.57,1.57,0,0,1,116,25.65v.11a3.61,3.61,0,0,0-1.7-.42c-1.56,0-3.15.86-3.15,2.46a2.52,2.52,0,0,0,2.71,2.4A2.3,2.3,0,0,0,116,29.14H116V30h1.57V25.79C117.59,23.85,116.15,22.77,114.28,22.77Zm-.2,6c-.53,0-1.28-.27-1.28-.93,0-.84.93-1.17,1.73-1.17A2.91,2.91,0,0,1,116,27,2,2,0,0,1,114.08,28.76ZM123.33,23l-1.87,4.74h-.06L119.46,23h-1.76l2.91,6.62L119,33.31h1.7L125.14,23Zm-14.69,7h1.63V19.07h-1.63Z" style="fill:#fff"/><path d="M20.44,17.54a2,2,0,0,0-.46,1.4V41.06a2,2,0,0,0,.46,1.4l.07.07L32.9,30.15v-.29L20.51,17.47Z" style="fill:url(#linear-gradient)"/><path d="M37,34.28,32.9,30.15v-.29L37,25.72l.09.05L42,28.56c1.4.79,1.4,2.09,0,2.89l-4.89,2.78Z" style="fill:url(#linear-gradient-2)"/><path d="M37.12,34.22,32.9,30,20.44,42.46a1.63,1.63,0,0,0,2.08.06l14.61-8.3" style="fill:url(#linear-gradient-3)"/><path d="M37.12,25.78l-14.61-8.3a1.63,1.63,0,0,0-2.08.06L32.9,30Z" style="fill:url(#linear-gradient-4)"/><path d="M37,34.13,22.51,42.38a1.67,1.67,0,0,1-2,0h0l-.07.07h0l.07.07h0a1.66,1.66,0,0,0,2,0l14.61-8.3Z" style="opacity:0.2;isolation:isolate"/><path d="M20.44,42.32a2,2,0,0,1-.46-1.4v.15a2,2,0,0,0,.46,1.4l.07-.07Z" style="opacity:0.12;isolation:isolate"/><path d="M42,31.3l-5,2.83.09.09L42,31.44a1.75,1.75,0,0,0,1-1.44h0A1.86,1.86,0,0,1,42,31.3Z" style="opacity:0.12;isolation:isolate"/><path d="M22.51,17.62,42,28.7a1.86,1.86,0,0,1,1,1.3h0a1.75,1.75,0,0,0-1-1.44L22.51,17.48c-1.4-.79-2.54-.13-2.54,1.47v.15C20,17.49,21.12,16.83,22.51,17.62Z" style="fill:#fff;opacity:0.25;isolation:isolate"/></g><g id="Layer_3" data-name="Layer 3"><path d="M55.27,43H54.5l-1.32-3.88a1.15,1.15,0,0,0-.63.31,1.89,1.89,0,0,0-.38.72,10,10,0,0,0-.31,1.43h-.73a8.46,8.46,0,0,1,.37-1.66,2.51,2.51,0,0,1,.57-1,1.67,1.67,0,0,1,.91-.43l-.43-1.24h.76Z" style="fill:#fff;stroke:#fff;stroke-miterlimit:10;stroke-width:0.2px"/><path d="M58.2,42.46a3.23,3.23,0,0,1-.81-1.29,4.86,4.86,0,0,1-.3-1.7,2.8,2.8,0,0,1,.44-1.66,1.4,1.4,0,0,1,1.21-.61,1.66,1.66,0,0,1,.73.15,1.1,1.1,0,0,1,.47.43,1.19,1.19,0,0,1,.17.62,1.21,1.21,0,0,1-.58,1.09,3.14,3.14,0,0,1-1.68.37,4.47,4.47,0,0,0,.32,1.34,2.55,2.55,0,0,0,.63.93,1.14,1.14,0,0,0,.76.34.93.93,0,0,0,.77-.34,1.48,1.48,0,0,0,.28-1v-.3h.73v.23a2,2,0,0,1-.45,1.41,1.74,1.74,0,0,1-1.34.48H57.13a1,1,0,0,1-.27.46.58.58,0,0,1-.4.18h-.15l.13-.9-.13-.91h.15a.58.58,0,0,1,.4.18,1,1,0,0,1,.27.46Zm.57-4.72a.79.79,0,0,0-.7.41,2,2,0,0,0-.26,1.09v.05A2.67,2.67,0,0,0,59,39.08a.78.78,0,0,0,.18-1.15A.57.57,0,0,0,58.77,37.74Z" style="fill:#fff;stroke:#fff;stroke-miterlimit:10;stroke-width:0.2px"/><path d="M65.74,43a1,1,0,0,1-.27.46.58.58,0,0,1-.4.18h-.15l.13-.9-.13-.91h.15a.58.58,0,0,1,.4.18,1,1,0,0,1,.27.46h.87v-.23a4.54,4.54,0,0,0-.12-1.09,3.76,3.76,0,0,0-.37-.92q-.27-.48-.38-.72a3.13,3.13,0,0,1-.17-.47,1.81,1.81,0,0,1-.06-.46,1.34,1.34,0,0,1,.38-1,1.38,1.38,0,0,1,1-.37,1.53,1.53,0,0,1,1.08.35,1.29,1.29,0,0,1,.38,1,1.36,1.36,0,0,1-.43,1,1.74,1.74,0,0,1-1.09.47,4.82,4.82,0,0,1,.38,1,4.41,4.41,0,0,1,.11,1V43Zm1.19-5.25a.66.66,0,0,0-.51.21.82.82,0,0,0-.19.57,1.71,1.71,0,0,0,.36,1,1.32,1.32,0,0,0,.79-.32.91.91,0,0,0,.27-.68.84.84,0,0,0-.19-.58A.66.66,0,0,0,66.94,37.75Z" style="fill:#fff;stroke:#fff;stroke-miterlimit:10;stroke-width:0.2px"/><path d="M74.09,40a4.09,4.09,0,0,0-.16-1.34,1.1,1.1,0,0,0-.54-.62,2.51,2.51,0,0,0-1.09-.2,1.1,1.1,0,0,1,.14.57,1.06,1.06,0,0,1-.37.85,1.79,1.79,0,0,1-2,0,1.07,1.07,0,0,1-.37-.85,1,1,0,0,1,.35-.82,1.62,1.62,0,0,1,1-.28h1.13a4.19,4.19,0,0,1,1.61.24,1.5,1.5,0,0,1,.78.77,3.61,3.61,0,0,1,.24,1.47V43h-.73Zm-3-2.23a.68.68,0,0,0-.49.17.62.62,0,0,0-.18.47.73.73,0,0,0,.19.52.69.69,0,0,0,1,0,.73.73,0,0,0,.19-.52.62.62,0,0,0-.18-.47A.68.68,0,0,0,71.06,37.75Z" style="fill:#fff;stroke:#fff;stroke-miterlimit:10;stroke-width:0.2px"/><path d="M79.54,39.1v1.14H81l.16,1.17H81a.58.58,0,0,1-.41-.18,1,1,0,0,1-.27-.46h-.74V43h-.73V39.66a1.43,1.43,0,0,1-1-.38,1.62,1.62,0,0,1-.31-1.09v-.45h-.7a.83.83,0,0,1-.26.41.62.62,0,0,1-.41.15h-.15l.13-.79-.13-.79h.15a.63.63,0,0,1,.4.15.85.85,0,0,1,.27.41H78.9a.8.8,0,0,1,.26-.41.63.63,0,0,1,.41-.16h.15l-.13.79.13.79h-.15a.63.63,0,0,1-.42-.16.78.78,0,0,1-.26-.4H78.2v.43a1.49,1.49,0,0,0,.08.56.53.53,0,0,0,.25.29,1.35,1.35,0,0,0,.57.09Z" style="fill:#fff;stroke:#fff;stroke-miterlimit:10;stroke-width:0.2px"/><path d="M84.67,38.21v1h1.54l.16,1.17h-.15a.59.59,0,0,1-.41-.18,1,1,0,0,1-.27-.46h-.87V43h-.73V39.72h-.88a1,1,0,0,1-.26.45.58.58,0,0,1-.42.19h-.15l.16-1.17h1.55v-.41a1.88,1.88,0,0,1-.79-.19,1,1,0,0,1-.41-.47,2.12,2.12,0,0,1-.14-.83v-.37h.73v.37a1.45,1.45,0,0,0,.08.54.55.55,0,0,0,.24.29,1.32,1.32,0,0,0,.58.09Z" style="fill:#fff;stroke:#fff;stroke-miterlimit:10;stroke-width:0.2px"/></g></svg>