<svg id="artwork" xmlns="http://www.w3.org/2000/svg" xmlns:xlink="http://www.w3.org/1999/xlink" viewBox="0 0 155 60"><defs><linearGradient id="linear-gradient" x1="31.8" y1="183.29" x2="15.02" y2="166.51" gradientTransform="matrix(1, 0, 0, -1, 0, 202)" gradientUnits="userSpaceOnUse"><stop offset="0" stop-color="#00a0ff"/><stop offset="0.01" stop-color="#00a1ff"/><stop offset="0.26" stop-color="#00beff"/><stop offset="0.51" stop-color="#00d2ff"/><stop offset="0.76" stop-color="#00dfff"/><stop offset="1" stop-color="#00e3ff"/></linearGradient><linearGradient id="linear-gradient-2" x1="43.83" y1="172" x2="19.64" y2="172" gradientTransform="matrix(1, 0, 0, -1, 0, 202)" gradientUnits="userSpaceOnUse"><stop offset="0" stop-color="#ffe000"/><stop offset="0.41" stop-color="#ffbd00"/><stop offset="0.78" stop-color="orange"/><stop offset="1" stop-color="#ff9c00"/></linearGradient><linearGradient id="linear-gradient-3" x1="34.83" y1="169.7" x2="12.07" y2="146.95" gradientTransform="matrix(1, 0, 0, -1, 0, 202)" gradientUnits="userSpaceOnUse"><stop offset="0" stop-color="#ff3a44"/><stop offset="1" stop-color="#c31162"/></linearGradient><linearGradient id="linear-gradient-4" x1="17.3" y1="191.82" x2="27.46" y2="181.66" gradientTransform="matrix(1, 0, 0, -1, 0, 202)" gradientUnits="userSpaceOnUse"><stop offset="0" stop-color="#32a071"/><stop offset="0.07" stop-color="#2da771"/><stop offset="0.48" stop-color="#15cf74"/><stop offset="0.8" stop-color="#06e775"/><stop offset="1" stop-color="#00f076"/></linearGradient></defs><title>ar_get</title><rect width="155" height="60" style="fill:#fff;fill-opacity:0"/><rect x="10" y="10" width="135" height="40" rx="5" ry="5"/><path d="M140,10.8a4.2,4.2,0,0,1,4.2,4.2V45a4.2,4.2,0,0,1-4.2,4.2H15A4.2,4.2,0,0,1,10.8,45V15A4.2,4.2,0,0,1,15,10.8H140m0-.8H15a5,5,0,0,0-5,5V45a5,5,0,0,0,5,5H140a5,5,0,0,0,5-5V15a5,5,0,0,0-5-5Z" style="fill:#a6a6a6"/><path d="M78.14,31.75A4.25,4.25,0,1,0,82.41,36,4.19,4.19,0,0,0,78.14,31.75Zm0,6.83A2.58,2.58,0,1,1,80.54,36,2.46,2.46,0,0,1,78.14,38.58Zm-9.31-6.83A4.25,4.25,0,1,0,73.09,36,4.19,4.19,0,0,0,68.82,31.75Zm0,6.83A2.58,2.58,0,1,1,71.22,36,2.46,2.46,0,0,1,68.82,38.58ZM57.74,33.06v1.8h4.32a3.77,3.77,0,0,1-1,2.27,4.42,4.42,0,0,1-3.33,1.32,4.8,4.8,0,0,1,0-9.6A4.6,4.6,0,0,1,61,30.14l1.27-1.27A6.29,6.29,0,0,0,57.74,27a6.61,6.61,0,1,0,0,13.21,6,6,0,0,0,4.61-1.85,6,6,0,0,0,1.56-4.22,5.87,5.87,0,0,0-.1-1.13Zm45.31,1.4a4,4,0,0,0-3.64-2.71,4,4,0,0,0-4,4.25,4.16,4.16,0,0,0,4.22,4.25,4.23,4.23,0,0,0,3.54-1.88l-1.45-1a2.43,2.43,0,0,1-2.09,1.18,2.16,2.16,0,0,1-2.06-1.29l5.69-2.35Zm-5.8,1.42a2.33,2.33,0,0,1,2.22-2.48,1.65,1.65,0,0,1,1.58.9ZM92.63,40H94.5V27.5H92.63Zm-3.06-7.3H89.5a3,3,0,0,0-2.24-1,4.26,4.26,0,0,0,0,8.51,2.9,2.9,0,0,0,2.24-1h.06v.61c0,1.63-.87,2.5-2.27,2.5a2.35,2.35,0,0,1-2.14-1.51l-1.63.68a4.05,4.05,0,0,0,3.77,2.51c2.19,0,4-1.29,4-4.43V32H89.57Zm-2.14,5.88a2.59,2.59,0,0,1,0-5.16A2.4,2.4,0,0,1,89.7,36,2.38,2.38,0,0,1,87.42,38.58ZM111.81,27.5h-4.47V40h1.87V35.26h2.61a3.89,3.89,0,1,0,0-7.76Zm0,6H109.2V29.24h2.65a2.14,2.14,0,1,1,0,4.29Zm11.53-1.8a3.5,3.5,0,0,0-3.33,1.91l1.66.69a1.77,1.77,0,0,1,1.7-.92,1.8,1.8,0,0,1,2,1.61v.13a4.13,4.13,0,0,0-1.95-.48c-1.79,0-3.6,1-3.6,2.81a2.89,2.89,0,0,0,3.1,2.75A2.63,2.63,0,0,0,125.32,39h.06v1h1.8V35.19C127.18,33,125.52,31.73,123.39,31.73Zm-.23,6.85c-.61,0-1.46-.31-1.46-1.06,0-1,1.06-1.33,2-1.33a3.32,3.32,0,0,1,1.7.42A2.26,2.26,0,0,1,123.16,38.58ZM133.74,32l-2.14,5.42h-.06L129.32,32h-2l3.33,7.58-1.9,4.21h1.95L135.82,32Zm-16.81,8h1.87V27.5h-1.87Z" style="fill:#fff"/><path d="M20.44,17.54a2,2,0,0,0-.46,1.4V41.06a2,2,0,0,0,.46,1.4l.07.07L32.9,30.15v-.29L20.51,17.47Z" style="fill:url(#linear-gradient)"/><path d="M37,34.28,32.9,30.15v-.29L37,25.72l.09.05L42,28.56c1.4.79,1.4,2.09,0,2.89l-4.89,2.78Z" style="fill:url(#linear-gradient-2)"/><path d="M37.12,34.22,32.9,30,20.44,42.46a1.63,1.63,0,0,0,2.08.06l14.61-8.3" style="fill:url(#linear-gradient-3)"/><path d="M37.12,25.78l-14.61-8.3a1.63,1.63,0,0,0-2.08.06L32.9,30Z" style="fill:url(#linear-gradient-4)"/><path d="M37,34.13,22.51,42.38a1.67,1.67,0,0,1-2,0h0l-.07.07h0l.07.07h0a1.66,1.66,0,0,0,2,0l14.61-8.3Z" style="opacity:0.2;isolation:isolate"/><path d="M20.44,42.32a2,2,0,0,1-.46-1.4v.15a2,2,0,0,0,.46,1.4l.07-.07Z" style="opacity:0.12;isolation:isolate"/><path d="M42,31.3l-5,2.83.09.09L42,31.44a1.75,1.75,0,0,0,1-1.44h0A1.86,1.86,0,0,1,42,31.3Z" style="opacity:0.12;isolation:isolate"/><path d="M22.51,17.62,42,28.7a1.86,1.86,0,0,1,1,1.3h0a1.75,1.75,0,0,0-1-1.44L22.51,17.48c-1.4-.79-2.54-.13-2.54,1.47v.15C20,17.49,21.12,16.83,22.51,17.62Z" style="fill:#fff;opacity:0.25;isolation:isolate"/><path d="M80.43,24.51A2,2,0,0,1,79,24a2.1,2.1,0,0,1-.53-1.53,4.18,4.18,0,0,1,0-.6c0-.19.09-.46.17-.82l.4.1a3.3,3.3,0,0,0-.12.78,1.81,1.81,0,0,0,.4,1.25,1.43,1.43,0,0,0,1.12.45,3.67,3.67,0,0,0,1.63-.4,2.2,2.2,0,0,0,1.08-1,6.73,6.73,0,0,1-.72-2.1.88.88,0,0,1,.16-.52,1.8,1.8,0,0,1,.56-.47q0,.39.25,1.42v0a1.77,1.77,0,0,0,.8.18.08.08,0,0,1,.09.09v.66a.08.08,0,0,1-.09.09,1.59,1.59,0,0,1-.67-.13l0,.32a2.23,2.23,0,0,1-.43,1.29,3.23,3.23,0,0,1-1.18,1A3.28,3.28,0,0,1,80.43,24.51Zm.88-6a5.59,5.59,0,0,1-.71.81,6.81,6.81,0,0,1-.79-.71q.56-.56.77-.81A9,9,0,0,0,81.3,18.5Z" style="fill:#fff;stroke:#fff;stroke-miterlimit:10;stroke-width:0.2px"/><path d="M84.28,21.63a.08.08,0,0,1-.09-.09v-.66a.08.08,0,0,1,.09-.09,1.2,1.2,0,0,0,.71-.2,1.63,1.63,0,0,0,.5-.62l.22-.44a4.13,4.13,0,0,1,.83-1.27,1.29,1.29,0,0,1,.89-.37.87.87,0,0,1,.64.39,3,3,0,0,1,.52,1,3.93,3.93,0,0,1,.2,1.19,1.49,1.49,0,0,1-.12.61,1.48,1.48,0,0,1-.43.53,5.91,5.91,0,0,1-1.41-.18A4.71,4.71,0,0,1,85.57,21a1.46,1.46,0,0,1-1.29.66Zm3.7-.84a4,4,0,0,0-.26-1.31q-.24-.62-.47-.62a.69.69,0,0,0-.39.12,1.5,1.5,0,0,0-.37.38,7.67,7.67,0,0,0-.49.87A5.28,5.28,0,0,0,88,20.79Z" style="fill:#fff;stroke:#fff;stroke-miterlimit:10;stroke-width:0.2px"/><path d="M94.78,21.2a7.47,7.47,0,0,1-.83-.1,3.4,3.4,0,0,1-.47-.15,3.8,3.8,0,0,1-.5-.24,1.76,1.76,0,0,1-.39-.28.38.38,0,0,1-.13-.25,1.57,1.57,0,0,1,.15-.5,4.81,4.81,0,0,1,.24-.52,2.44,2.44,0,0,1,.73-.71,5.7,5.7,0,0,1,1.19-.65l0-.3a4.27,4.27,0,0,1,.8-.57l.1,3.57a2.23,2.23,0,0,0,1.14.29.08.08,0,0,1,.09.09v.66a.08.08,0,0,1-.09.09,2.06,2.06,0,0,1-1.08-.25,1,1,0,0,1-.48-.71l0-.23ZM93,19.67a2.28,2.28,0,0,0,1,.5,5.71,5.71,0,0,0,1.19.13l-.28-1.77v0A4,4,0,0,0,93,19.67Z" style="fill:#fff;stroke:#fff;stroke-miterlimit:10;stroke-width:0.2px"/><path d="M99.77,19.12a.45.45,0,0,1,.27.09q-.2.48-.35.8a3,3,0,0,1-.18.36,2.68,2.68,0,0,0,.69.33,2.51,2.51,0,0,0,.7.09.08.08,0,0,1,.09.09v.66a.08.08,0,0,1-.09.09A2.54,2.54,0,0,1,99.16,21l-.18.24a1.94,1.94,0,0,1-.8.26,6.71,6.71,0,0,1-1.35.14.08.08,0,0,1-.09-.09v-.66a.08.08,0,0,1,.09-.09A9.55,9.55,0,0,0,98,20.73a1.54,1.54,0,0,0,.67-.2,2.93,2.93,0,0,0,.58-.88l.19-.35A.35.35,0,0,1,99.77,19.12Zm-1,3.89a4.3,4.3,0,0,1-.65.75,5.86,5.86,0,0,1-.73-.67q.29-.27.71-.74Zm1.66-.16a4.29,4.29,0,0,1-.66.75,5.42,5.42,0,0,1-.73-.67q.25-.23.71-.74Z" style="fill:#fff;stroke:#fff;stroke-miterlimit:10;stroke-width:0.2px"/><path d="M101.07,21.63a.08.08,0,0,1-.09-.09v-.66a.08.08,0,0,1,.09-.09,2.7,2.7,0,0,0,1.2-.28q-.15-1.16-.35-4.18l-.11-1.47a4.43,4.43,0,0,1,.74-.61q.07,1.51.11,4.74l0,1.51a2.23,2.23,0,0,0,1.14.29c.06,0,.1,0,.1.09v.66c0,.06,0,.09-.1.09a1.88,1.88,0,0,1-1.26-.39,3.11,3.11,0,0,1-.72.31A3.25,3.25,0,0,1,101.07,21.63Z" style="fill:#fff;stroke:#fff;stroke-miterlimit:10;stroke-width:0.2px"/><path d="M103.9,21.63a.08.08,0,0,1-.09-.09v-.66a.08.08,0,0,1,.09-.09q.71,0,1.37,0a1.6,1.6,0,0,1-.46-.47,1.15,1.15,0,0,1-.2-.64,2.22,2.22,0,0,1,.25-1,2.39,2.39,0,0,1,.66-.83,1.35,1.35,0,0,1,.84-.32,1.51,1.51,0,0,1,.73.19,4.81,4.81,0,0,1,.81.59l-.19.35a5,5,0,0,0-.63-.21,2.06,2.06,0,0,0-.44,0,2.94,2.94,0,0,0-1.41.4,1.64,1.64,0,0,0,.89,1.49,2.4,2.4,0,0,0,1,.27,7.69,7.69,0,0,0,.8-.21q.38-.12,1.07-.39a.51.51,0,0,1,.15.39v.11a.55.55,0,0,1-.46.47q-1.31.33-2,.45t-1.38.19Q104.65,21.63,103.9,21.63Z" style="fill:#fff;stroke:#fff;stroke-miterlimit:10;stroke-width:0.2px"/><path d="M117.34,22.22l-.28-1.78q-.47-2.79-.61-3.89a13.82,13.82,0,0,1-.15-1.45.86.86,0,0,1,.17-.57,1,1,0,0,1,.55-.28l0,.13.36,1.18-.26.23,0,.17.36,3.26q.1.71.15,1.37v0a1.69,1.69,0,0,0,.81.19.08.08,0,0,1,.09.09v.66a.08.08,0,0,1-.09.09,1.66,1.66,0,0,1-.75-.18v.36a2.26,2.26,0,0,1-.42,1.3,3.17,3.17,0,0,1-1.17,1,3.25,3.25,0,0,1-1.53.39,2,2,0,0,1-1.47-.54,2.09,2.09,0,0,1-.53-1.53,4.16,4.16,0,0,1,0-.6c0-.19.08-.46.17-.82l.4.1a3.35,3.35,0,0,0-.12.78,1.81,1.81,0,0,0,.4,1.25,1.43,1.43,0,0,0,1.12.45,3.53,3.53,0,0,0,1.09-.18,3.44,3.44,0,0,0,1-.5A1.87,1.87,0,0,0,117.34,22.22Z" style="fill:#fff;stroke:#fff;stroke-miterlimit:10;stroke-width:0.2px"/><path d="M127.19,21.63a2.44,2.44,0,0,1-.93-.19,2.17,2.17,0,0,1-.76-.49,4,4,0,0,1-1.2.5,5.62,5.62,0,0,1-1.41.18,8.11,8.11,0,0,1-1.63-.17,4.78,4.78,0,0,1-1.33-.45l-.19.21a1.56,1.56,0,0,1-1.2.4.08.08,0,0,1-.09-.09v-.66a.08.08,0,0,1,.09-.09,1.48,1.48,0,0,0,.78-.18,1.93,1.93,0,0,0,.59-.7l.17-.31a.38.38,0,0,1,.35-.19.35.35,0,0,1,.26.1q-.23.56-.33.76a4,4,0,0,0,.55.21q2.1-2.79,3.59-2.79a1.68,1.68,0,0,1,.77.25,3.16,3.16,0,0,1,.82.65,1.12,1.12,0,0,1,.36.7,1.83,1.83,0,0,1-.42,1.19,2.23,2.23,0,0,0,1.17.3c.06,0,.1,0,.1.09v.66C127.28,21.6,127.25,21.63,127.19,21.63ZM123,20.79a5.53,5.53,0,0,0,2.94-.94,2.73,2.73,0,0,0-.8-.9,1.61,1.61,0,0,0-.92-.33,2.28,2.28,0,0,0-1.24.51,8.81,8.81,0,0,0-1.56,1.5A8.66,8.66,0,0,0,123,20.79Z" style="fill:#fff;stroke:#fff;stroke-miterlimit:10;stroke-width:0.2px"/><path d="M127.24,21.63a.08.08,0,0,1-.09-.09v-.66a.08.08,0,0,1,.09-.09,9.15,9.15,0,0,0,2.54-.28l.61-.21A6.28,6.28,0,0,1,131.5,20a4.82,4.82,0,0,1-.85-.55,4.49,4.49,0,0,0-.72-.49,1.26,1.26,0,0,0-.57-.14,1.71,1.71,0,0,0-.95.27l-.26.16a.58.58,0,0,1-.16-.43.77.77,0,0,1,.37-.67,1.66,1.66,0,0,1,1-.25A1.81,1.81,0,0,1,130,18a4.33,4.33,0,0,1,.83.49,8,8,0,0,0,1,.64,3.28,3.28,0,0,0,.82.3,6,6,0,0,0,1.2.09l-.42.81-.62-.06h-.26a2.33,2.33,0,0,0-.73.11,8.34,8.34,0,0,0-1.08.49,6.09,6.09,0,0,1-1.49.57A10.5,10.5,0,0,1,127.24,21.63Z" style="fill:#fff;stroke:#fff;stroke-miterlimit:10;stroke-width:0.2px"/><path d="M135.25,18v.69q0,1.06-.08,2.88l-.5.09q-.07-3.86-.3-6.4v-.14a.83.83,0,0,1,.17-.56.93.93,0,0,1,.55-.28l0,.13.36,1.18-.3.25v.05Q135.25,17,135.25,18Z" style="fill:#fff;stroke:#fff;stroke-miterlimit:10;stroke-width:0.2px"/></svg>