<svg xmlns="http://www.w3.org/2000/svg" xmlns:xlink="http://www.w3.org/1999/xlink" viewBox="0 0 155 60"><defs><linearGradient id="linear-gradient" x1="31.8" y1="43.29" x2="15.02" y2="26.51" gradientTransform="matrix(1, 0, 0, -1, 0, 62)" gradientUnits="userSpaceOnUse"><stop offset="0" stop-color="#00a0ff"/><stop offset="0.01" stop-color="#00a1ff"/><stop offset="0.26" stop-color="#00beff"/><stop offset="0.51" stop-color="#00d2ff"/><stop offset="0.76" stop-color="#00dfff"/><stop offset="1" stop-color="#00e3ff"/></linearGradient><linearGradient id="linear-gradient-2" x1="43.83" y1="32" x2="19.64" y2="32" gradientTransform="matrix(1, 0, 0, -1, 0, 62)" gradientUnits="userSpaceOnUse"><stop offset="0" stop-color="#ffe000"/><stop offset="0.41" stop-color="#ffbd00"/><stop offset="0.78" stop-color="orange"/><stop offset="1" stop-color="#ff9c00"/></linearGradient><linearGradient id="linear-gradient-3" x1="34.83" y1="29.7" x2="12.07" y2="6.95" gradientTransform="matrix(1, 0, 0, -1, 0, 62)" gradientUnits="userSpaceOnUse"><stop offset="0" stop-color="#ff3a44"/><stop offset="1" stop-color="#c31162"/></linearGradient><linearGradient id="linear-gradient-4" x1="17.3" y1="51.82" x2="27.46" y2="41.66" gradientTransform="matrix(1, 0, 0, -1, 0, 62)" gradientUnits="userSpaceOnUse"><stop offset="0" stop-color="#32a071"/><stop offset="0.07" stop-color="#2da771"/><stop offset="0.48" stop-color="#15cf74"/><stop offset="0.8" stop-color="#06e775"/><stop offset="1" stop-color="#00f076"/></linearGradient></defs><title>az_get</title><g id="artwork"><rect width="155" height="60" style="fill:#fff;fill-opacity:0"/><rect x="10" y="10" width="135" height="40" rx="5" ry="5"/><path d="M140,10.8a4.2,4.2,0,0,1,4.2,4.2V45a4.2,4.2,0,0,1-4.2,4.2H15A4.2,4.2,0,0,1,10.8,45V15A4.2,4.2,0,0,1,15,10.8H140m0-.8H15a5,5,0,0,0-5,5V45a5,5,0,0,0,5,5H140a5,5,0,0,0,5-5V15a5,5,0,0,0-5-5Z" style="fill:#a6a6a6"/><path d="M74.72,22.79a3.72,3.72,0,1,0,3.73,3.72A3.66,3.66,0,0,0,74.72,22.79Zm0,6a2.26,2.26,0,1,1,2.1-2.25A2.15,2.15,0,0,1,74.72,28.76Zm-8.14-6a3.72,3.72,0,1,0,3.73,3.72A3.66,3.66,0,0,0,66.58,22.79Zm0,6a2.26,2.26,0,1,1,2.1-2.25A2.15,2.15,0,0,1,66.58,28.76ZM56.9,23.93v1.58h3.77a3.29,3.29,0,0,1-.86,2,3.86,3.86,0,0,1-2.91,1.15,4.2,4.2,0,0,1,0-8.39,4,4,0,0,1,2.84,1.13l1.11-1.11a5.5,5.5,0,0,0-4-1.59,5.77,5.77,0,1,0,0,11.55,5.28,5.28,0,0,0,4-1.62,5.21,5.21,0,0,0,1.37-3.69,5.14,5.14,0,0,0-.08-1Zm39.6,1.23a3.46,3.46,0,0,0-3.18-2.37,3.53,3.53,0,0,0-3.51,3.72,3.64,3.64,0,0,0,3.69,3.72,3.7,3.7,0,0,0,3.1-1.65l-1.27-.84a2.12,2.12,0,0,1-1.83,1,1.89,1.89,0,0,1-1.8-1.13l5-2.06ZM91.43,26.4a2,2,0,0,1,1.94-2.17,1.44,1.44,0,0,1,1.38.79Zm-4,3.61H89V19.07H87.39Zm-2.68-6.38h-.06a2.58,2.58,0,0,0-2-.83,3.72,3.72,0,0,0,0,7.44,2.53,2.53,0,0,0,2-.84h.06v.54c0,1.42-.76,2.18-2,2.18a2.06,2.06,0,0,1-1.87-1.32l-1.42.59a3.54,3.54,0,0,0,3.3,2.2c1.92,0,3.53-1.13,3.53-3.87V23H84.72Zm-1.87,5.14a2.26,2.26,0,0,1,0-4.51,2.1,2.1,0,0,1,2,2.27A2.08,2.08,0,0,1,82.84,28.76Zm21.31-9.69h-3.91V30h1.63V25.86h2.28a3.4,3.4,0,1,0,0-6.79Zm0,5.27h-2.32V20.59h2.32a1.87,1.87,0,1,1,0,3.75Zm10.08-1.57a3.06,3.06,0,0,0-2.91,1.67l1.45.6a1.55,1.55,0,0,1,1.49-.8A1.57,1.57,0,0,1,116,25.65v.11a3.61,3.61,0,0,0-1.7-.42c-1.56,0-3.15.86-3.15,2.46a2.52,2.52,0,0,0,2.71,2.4A2.3,2.3,0,0,0,116,29.14H116V30h1.57V25.79C117.59,23.85,116.15,22.77,114.28,22.77Zm-.2,6c-.53,0-1.28-.27-1.28-.93,0-.84.93-1.17,1.73-1.17A2.91,2.91,0,0,1,116,27,2,2,0,0,1,114.08,28.76ZM123.33,23l-1.87,4.74h-.06L119.46,23h-1.76l2.91,6.62L119,33.31h1.7L125.14,23Zm-14.69,7h1.63V19.07h-1.63Z" style="fill:#fff"/><path d="M20.44,17.54a2,2,0,0,0-.46,1.4V41.06a2,2,0,0,0,.46,1.4l.07.07L32.9,30.15v-.29L20.51,17.47Z" style="fill:url(#linear-gradient)"/><path d="M37,34.28,32.9,30.15v-.29L37,25.72l.09.05L42,28.56c1.4.79,1.4,2.09,0,2.89l-4.89,2.78Z" style="fill:url(#linear-gradient-2)"/><path d="M37.12,34.22,32.9,30,20.44,42.46a1.63,1.63,0,0,0,2.08.06l14.61-8.3" style="fill:url(#linear-gradient-3)"/><path d="M37.12,25.78l-14.61-8.3a1.63,1.63,0,0,0-2.08.06L32.9,30Z" style="fill:url(#linear-gradient-4)"/><path d="M37,34.13,22.51,42.38a1.67,1.67,0,0,1-2,0h0l-.07.07h0l.07.07h0a1.66,1.66,0,0,0,2,0l14.61-8.3Z" style="opacity:0.2;isolation:isolate"/><path d="M20.44,42.32a2,2,0,0,1-.46-1.4v.15a2,2,0,0,0,.46,1.4l.07-.07Z" style="opacity:0.12;isolation:isolate"/><path d="M42,31.3l-5,2.83.09.09L42,31.44a1.75,1.75,0,0,0,1-1.44h0A1.86,1.86,0,0,1,42,31.3Z" style="opacity:0.12;isolation:isolate"/><path d="M22.51,17.62,42,28.7a1.86,1.86,0,0,1,1,1.3h0a1.75,1.75,0,0,0-1-1.44L22.51,17.48c-1.4-.79-2.54-.13-2.54,1.47v.15C20,17.49,21.12,16.83,22.51,17.62Z" style="fill:#fff;opacity:0.25;isolation:isolate"/></g><g id="Layer_3" data-name="Layer 3"><path d="M52,37l-.17,2.16H51.4L51.23,37Z" style="fill:#fff;stroke:#fff;stroke-miterlimit:10;stroke-width:0.2px"/><path d="M58.34,40a3,3,0,0,1-.81,2.27,3.2,3.2,0,0,1-2.32.78H53.55V37h1.84a3,3,0,0,1,2.17.77A2.91,2.91,0,0,1,58.34,40Zm-.79,0A2.41,2.41,0,0,0,57,38.25a2.25,2.25,0,0,0-1.7-.59h-1v4.69h.81A2.12,2.12,0,0,0,57.55,40Z" style="fill:#fff;stroke:#fff;stroke-miterlimit:10;stroke-width:0.2px"/><path d="M61.81,37.59a5.84,5.84,0,0,0-1.91.34v-.69a5.37,5.37,0,0,1,1-.25,6.36,6.36,0,0,1,1-.07,2.74,2.74,0,0,1,2.12.82A3.22,3.22,0,0,1,64.69,40,3.31,3.31,0,0,1,64,42.27a2.49,2.49,0,0,1-2,.82,2.25,2.25,0,0,1-1.86-.77,3.6,3.6,0,0,1-.62-2.3v-.29H63.9a2.43,2.43,0,0,0-.6-1.6A2,2,0,0,0,61.81,37.59ZM62,42.42a1.74,1.74,0,0,0,1.34-.53,2.36,2.36,0,0,0,.56-1.5H60.32a2.39,2.39,0,0,0,.41,1.54A1.55,1.55,0,0,0,62,42.42Z" style="fill:#fff;stroke:#fff;stroke-miterlimit:10;stroke-width:0.2px"/><path d="M70.51,37.59a5.83,5.83,0,0,0-1.91.34v-.69a5.37,5.37,0,0,1,1-.25,6.36,6.36,0,0,1,1-.07,2.74,2.74,0,0,1,2.12.82A3.22,3.22,0,0,1,73.4,40a3.31,3.31,0,0,1-.71,2.25,2.49,2.49,0,0,1-2,.82,2.25,2.25,0,0,1-1.86-.77,3.6,3.6,0,0,1-.62-2.3v-.29H72.6a2.43,2.43,0,0,0-.6-1.6A2,2,0,0,0,70.51,37.59Zm.19,4.84A1.74,1.74,0,0,0,72,41.89a2.36,2.36,0,0,0,.56-1.5H69a2.39,2.39,0,0,0,.41,1.54A1.55,1.55,0,0,0,70.7,42.42Z" style="fill:#fff;stroke:#fff;stroke-miterlimit:10;stroke-width:0.2px"/><path d="M74.9,43V37h.75v5.31h2.61V43Z" style="fill:#fff;stroke:#fff;stroke-miterlimit:10;stroke-width:0.2px"/><path d="M84.25,40a3,3,0,0,1-.81,2.27,3.2,3.2,0,0,1-2.32.78H79.46V37H81.3a3,3,0,0,1,2.17.77A2.91,2.91,0,0,1,84.25,40Zm-.79,0a2.41,2.41,0,0,0-.56-1.73,2.25,2.25,0,0,0-1.7-.59h-1v4.69H81A2.12,2.12,0,0,0,83.45,40Z" style="fill:#fff;stroke:#fff;stroke-miterlimit:10;stroke-width:0.2px"/><path d="M87.71,37.59a5.84,5.84,0,0,0-1.91.34v-.69a5.38,5.38,0,0,1,1-.25,6.36,6.36,0,0,1,1-.07,2.74,2.74,0,0,1,2.12.82A3.22,3.22,0,0,1,90.6,40a3.31,3.31,0,0,1-.71,2.25,2.49,2.49,0,0,1-2,.82A2.25,2.25,0,0,1,86,42.31a3.6,3.6,0,0,1-.62-2.3v-.29H89.8a2.43,2.43,0,0,0-.6-1.6A2,2,0,0,0,87.71,37.59Zm.19,4.84a1.74,1.74,0,0,0,1.34-.53,2.36,2.36,0,0,0,.56-1.5H86.22a2.39,2.39,0,0,0,.41,1.54A1.55,1.55,0,0,0,87.9,42.42Z" style="fill:#fff;stroke:#fff;stroke-miterlimit:10;stroke-width:0.2px"/><path d="M97.79,43H94.45V37h3.34v.66H95.2v1.87h2.44v.65H95.2v2.14h2.59Z" style="fill:#fff;stroke:#fff;stroke-miterlimit:10;stroke-width:0.2px"/><path d="M104.06,40a3,3,0,0,1-.81,2.27,3.2,3.2,0,0,1-2.32.78H99.27V37h1.84a3,3,0,0,1,2.17.77A2.91,2.91,0,0,1,104.06,40Zm-.79,0a2.41,2.41,0,0,0-.56-1.73,2.25,2.25,0,0,0-1.7-.59h-1v4.69h.81A2.12,2.12,0,0,0,103.27,40Z" style="fill:#fff;stroke:#fff;stroke-miterlimit:10;stroke-width:0.2px"/><path d="M107.24,43h-2.16v-.43l.7-.16V37.62l-.7-.17V37h2.16v.43l-.7.17v4.79l.7.16Z" style="fill:#fff;stroke:#fff;stroke-miterlimit:10;stroke-width:0.2px"/><path d="M113.31,43h-.88l-3.2-5h0l0,.33q0,.74,0,1.29V43h-.7V37h.87l.18.29,2,3,1,1.62h0q0-.1,0-.7c0-.4,0-.69,0-.87V37h.7Z" style="fill:#fff;stroke:#fff;stroke-miterlimit:10;stroke-width:0.2px"/></g></svg>