<svg id="artwork" xmlns="http://www.w3.org/2000/svg" xmlns:xlink="http://www.w3.org/1999/xlink" viewBox="0 0 155 60"><defs><linearGradient id="linear-gradient" x1="39.19" y1="7.22" x2="-5.07" y2="51.48" gradientUnits="userSpaceOnUse"><stop offset="0" stop-color="#00a0ff"/><stop offset="0.01" stop-color="#00a1ff"/><stop offset="0.26" stop-color="#00beff"/><stop offset="0.51" stop-color="#00d2ff"/><stop offset="0.76" stop-color="#00dfff"/><stop offset="1" stop-color="#00e3ff"/></linearGradient><linearGradient id="linear-gradient-2" x1="66.56" y1="37" x2="2.75" y2="37" gradientUnits="userSpaceOnUse"><stop offset="0" stop-color="#ffea00"/><stop offset="1" stop-color="#ff9c00"/></linearGradient><linearGradient id="linear-gradient-3" x1="47.17" y1="43.05" x2="-12.85" y2="103.07" gradientUnits="userSpaceOnUse"><stop offset="0" stop-color="#ff3a44"/><stop offset="1" stop-color="#c31162"/></linearGradient><linearGradient id="linear-gradient-4" x1="0.94" y1="-15.28" x2="27.75" y2="11.52" gradientUnits="userSpaceOnUse"><stop offset="0" stop-color="#32a071"/><stop offset="0.07" stop-color="#2da771"/><stop offset="0.48" stop-color="#15cf74"/><stop offset="0.8" stop-color="#06e775"/><stop offset="1" stop-color="#00f076"/></linearGradient><symbol id="_Get_It_On_prism" data-name="&quot;Get It On&quot; prism" viewBox="0 0 74 74"><rect width="74" height="74" style="fill:#fff;opacity:0"/><path d="M9.22,4.13A5.28,5.28,0,0,0,8,7.84V66.16a5.28,5.28,0,0,0,1.22,3.71l.19.19L42.09,37.39v-.77L9.42,3.94Z" style="fill:url(#linear-gradient)"/><path d="M53,48.28,42.09,37.39v-.77L53,25.72l.25.14,12.9,7.33c3.69,2.09,3.69,5.52,0,7.62l-12.9,7.33Z" style="fill:url(#linear-gradient-2)"/><path d="M53.23,48.14,42.09,37,9.22,69.87c1.22,1.29,3.22,1.44,5.48.16L53.23,48.14" style="fill:url(#linear-gradient-3)"/><path d="M53.23,25.86,14.7,4c-2.26-1.28-4.27-1.12-5.48.16L42.09,37Z" style="fill:url(#linear-gradient-4)"/><path d="M53,47.89,14.7,69.65c-2.14,1.22-4.06,1.14-5.28,0h0l-.2.2h0l.19.19h0c1.23,1.11,3.14,1.19,5.28,0L53.23,48.14Z" style="opacity:0.1"/><path d="M9.22,69.48A5.28,5.28,0,0,1,8,65.78v.39a5.28,5.28,0,0,0,1.22,3.71l.2-.2Z" style="opacity:0.07"/><path d="M66.13,40.42,53,47.89l.25.24,12.9-7.33c1.84-1,2.76-2.43,2.76-3.81h0A4.91,4.91,0,0,1,66.13,40.42Z" style="opacity:0.07"/><path d="M14.7,4.36,66.13,33.58A4.91,4.91,0,0,1,68.9,37h0c0-1.38-.92-2.76-2.76-3.81L14.7,4C11,1.88,8,3.62,8,7.84v.39C8,4,11,2.26,14.7,4.36Z" style="fill:#fff;opacity:0.25"/></symbol></defs><title>be_get</title><rect width="155" height="60" style="fill:#fff;fill-opacity:0"/><rect x="10" y="10" width="135" height="40" rx="5" ry="5"/><path d="M140,10.8a4.2,4.2,0,0,1,4.2,4.2V45a4.2,4.2,0,0,1-4.2,4.2H15A4.2,4.2,0,0,1,10.8,45V15A4.2,4.2,0,0,1,15,10.8H140m0-.8H15a5,5,0,0,0-5,5V45a5,5,0,0,0,5,5H140a5,5,0,0,0,5-5V15a5,5,0,0,0-5-5Z" transform="translate(0)" style="fill:#a6a6a6"/><use width="74" height="74" transform="translate(16.97 16) scale(0.38)" xlink:href="#_Get_It_On_prism"/><path d="M51.68,23V17.35h.8l1.81,2.86a16,16,0,0,1,1,1.83h0c-.07-.75-.08-1.44-.08-2.32V17.35h.69V23h-.74l-1.79-2.87a18,18,0,0,1-1.06-1.88h0c0,.71.06,1.39.06,2.33V23Z" transform="translate(0)" style="fill:#fff;stroke:#fff;stroke-miterlimit:10;stroke-width:0.20000000298023224px"/><path d="M58.27,21.22,57.69,23h-.75l1.92-5.65h.88L61.66,23h-.78l-.6-1.78Zm1.85-.57L59.57,19c-.13-.37-.21-.7-.29-1h0c-.08.33-.18.68-.28,1l-.55,1.63Z" transform="translate(0)" style="fill:#fff;stroke:#fff;stroke-miterlimit:10;stroke-width:0.20000000298023224px"/><path d="M62.66,17.43A7.08,7.08,0,0,1,64,17.31a2.33,2.33,0,0,1,1.55.41,1.18,1.18,0,0,1,.47,1,1.34,1.34,0,0,1-1,1.24v0a1.46,1.46,0,0,1,1.17,1.42,1.52,1.52,0,0,1-.48,1.13,2.83,2.83,0,0,1-2,.53A8.58,8.58,0,0,1,62.66,23Zm.73,2.31H64c.77,0,1.22-.4,1.22-.95s-.5-.92-1.24-.92a3.1,3.1,0,0,0-.65.05Zm0,2.71a3.94,3.94,0,0,0,.61,0c.75,0,1.45-.28,1.45-1.1s-.66-1.09-1.46-1.09h-.6Z" transform="translate(0)" style="fill:#fff;stroke:#fff;stroke-miterlimit:10;stroke-width:0.20000000298023224px"/><path d="M68.28,21.22,67.69,23h-.75l1.92-5.65h.88L71.66,23h-.78l-.6-1.78Zm1.85-.57L69.58,19c-.13-.37-.21-.7-.29-1h0c-.08.33-.18.68-.28,1l-.55,1.63Z" transform="translate(0)" style="fill:#fff;stroke:#fff;stroke-miterlimit:10;stroke-width:0.20000000298023224px"/><path d="M73.46,23l-1.84-5.65h.79l.88,2.78c.24.76.45,1.45.6,2.11h0c.16-.65.39-1.37.65-2.1l1-2.79h.78l-2,5.65Z" transform="translate(0)" style="fill:#fff;stroke:#fff;stroke-miterlimit:10;stroke-width:0.20000000298023224px"/><path d="M77.79,17.35V23h-.73V17.35Z" transform="translate(0)" style="fill:#fff;stroke:#fff;stroke-miterlimit:10;stroke-width:0.20000000298023224px"/><path d="M80.3,18H78.59v-.62h4.18V18H81v5H80.3Z" transform="translate(0)" style="fill:#fff;stroke:#fff;stroke-miterlimit:10;stroke-width:0.20000000298023224px"/><path d="M86.49,20.35h-2.2v2h2.45V23H83.56V17.35h3V18H84.29v1.78h2.2Z" transform="translate(0)" style="fill:#fff;stroke:#fff;stroke-miterlimit:10;stroke-width:0.20000000298023224px"/><path d="M89.8,23V17.35h.8l1.81,2.86a16,16,0,0,1,1,1.83h0c-.07-.75-.08-1.44-.08-2.32V17.35H94V23H93.3l-1.79-2.87a18,18,0,0,1-1.06-1.88h0c0,.71.06,1.39.06,2.33V23Z" transform="translate(0)" style="fill:#fff;stroke:#fff;stroke-miterlimit:10;stroke-width:0.20000000298023224px"/><path d="M96.39,21.22,95.81,23h-.75L97,17.35h.88L99.78,23H99l-.6-1.78Zm1.85-.57L97.69,19c-.13-.37-.21-.7-.29-1h0c-.08.33-.18.68-.28,1l-.55,1.63Z" transform="translate(0)" style="fill:#fff;stroke:#fff;stroke-miterlimit:10;stroke-width:0.20000000298023224px"/><path d="M103.45,17.35V20.7c0,1.26.56,1.8,1.32,1.8s1.37-.55,1.37-1.8V17.35h.74v3.29c0,1.73-.91,2.45-2.14,2.45s-2-.66-2-2.41V17.35Z" transform="translate(0)" style="fill:#fff;stroke:#fff;stroke-miterlimit:10;stroke-width:0.20000000298023224px"/><path d="M108.21,22.11a2.59,2.59,0,0,0,1.31.37c.75,0,1.18-.39,1.18-1s-.3-.83-1.06-1.12c-.92-.33-1.49-.8-1.49-1.6A1.63,1.63,0,0,1,110,17.26a2.57,2.57,0,0,1,1.25.28l-.2.59a2.25,2.25,0,0,0-1.07-.27c-.77,0-1.06.46-1.06.85s.34.79,1.12,1.09c1,.37,1.44.83,1.44,1.66s-.64,1.63-2,1.63a2.92,2.92,0,0,1-1.44-.36Z" transform="translate(0)" style="fill:#fff;stroke:#fff;stroke-miterlimit:10;stroke-width:0.20000000298023224px"/><path d="M112.61,17.35h.73v5h2.41V23h-3.14Z" transform="translate(0)" style="fill:#fff;stroke:#fff;stroke-miterlimit:10;stroke-width:0.20000000298023224px"/><path d="M117.16,17.35V20.7c0,1.26.56,1.8,1.32,1.8s1.37-.55,1.37-1.8V17.35h.74v3.29c0,1.73-.91,2.45-2.14,2.45s-2-.66-2-2.41V17.35Z" transform="translate(0)" style="fill:#fff;stroke:#fff;stroke-miterlimit:10;stroke-width:0.20000000298023224px"/><path d="M121.63,22.57,124.77,18v0H121.9v-.61h3.81v.44l-3.12,4.57v0h3.16V23h-4.12Z" transform="translate(0)" style="fill:#fff;stroke:#fff;stroke-miterlimit:10;stroke-width:0.20000000298023224px"/><path d="M127.55,17.35V23h-.73V17.35Z" transform="translate(0)" style="fill:#fff;stroke:#fff;stroke-miterlimit:10;stroke-width:0.20000000298023224px"/><path d="M78.14,31.75A4.25,4.25,0,1,0,82.41,36,4.19,4.19,0,0,0,78.14,31.75Zm0,6.83A2.58,2.58,0,1,1,80.54,36,2.46,2.46,0,0,1,78.14,38.58Zm-9.31-6.83A4.25,4.25,0,1,0,73.09,36,4.19,4.19,0,0,0,68.82,31.75Zm0,6.83A2.58,2.58,0,1,1,71.22,36,2.46,2.46,0,0,1,68.82,38.58ZM57.74,33.06v1.8h4.32a3.77,3.77,0,0,1-1,2.27,4.42,4.42,0,0,1-3.33,1.32,4.8,4.8,0,0,1,0-9.6A4.6,4.6,0,0,1,61,30.14l1.27-1.27A6.29,6.29,0,0,0,57.74,27a6.61,6.61,0,1,0,0,13.21,6,6,0,0,0,4.61-1.85,6,6,0,0,0,1.56-4.22,5.88,5.88,0,0,0-.1-1.13Zm45.31,1.4a4,4,0,0,0-3.64-2.71,4,4,0,0,0-4,4.25,4.16,4.16,0,0,0,4.22,4.25,4.23,4.23,0,0,0,3.54-1.88l-1.45-1a2.43,2.43,0,0,1-2.09,1.18,2.16,2.16,0,0,1-2.06-1.29l5.69-2.35Zm-5.8,1.42a2.33,2.33,0,0,1,2.22-2.48,1.65,1.65,0,0,1,1.58.9ZM92.63,40H94.5V27.5H92.63Zm-3.06-7.3H89.5a3,3,0,0,0-2.24-1,4.26,4.26,0,0,0,0,8.51,2.9,2.9,0,0,0,2.24-1h.06v.61c0,1.63-.87,2.5-2.27,2.5a2.35,2.35,0,0,1-2.14-1.51l-1.63.68a4.05,4.05,0,0,0,3.77,2.51c2.19,0,4-1.29,4-4.43V32H89.57Zm-2.14,5.88a2.59,2.59,0,0,1,0-5.16A2.4,2.4,0,0,1,89.7,36,2.38,2.38,0,0,1,87.42,38.58ZM111.81,27.5h-4.47V40h1.87V35.26h2.61a3.89,3.89,0,1,0,0-7.77Zm0,6H109.2V29.24h2.65a2.14,2.14,0,1,1,0,4.29Zm11.53-1.8a3.5,3.5,0,0,0-3.33,1.91l1.66.69a1.77,1.77,0,0,1,1.7-.92,1.8,1.8,0,0,1,2,1.61v.13a4.13,4.13,0,0,0-1.95-.48c-1.79,0-3.6,1-3.6,2.81a2.89,2.89,0,0,0,3.1,2.75A2.63,2.63,0,0,0,125.32,39h.06v1h1.8V35.19C127.18,33,125.52,31.73,123.39,31.73Zm-.23,6.85c-.61,0-1.46-.31-1.46-1.06,0-1,1.06-1.33,2-1.33a3.32,3.32,0,0,1,1.7.42A2.26,2.26,0,0,1,123.16,38.58ZM133.74,32l-2.14,5.42h-.06L129.32,32h-2l3.33,7.58-1.9,4.21h1.95L135.82,32Zm-16.81,8h1.87V27.5h-1.87Z" transform="translate(0)" style="fill:#fff"/></svg>