<svg id="artwork" xmlns="http://www.w3.org/2000/svg" xmlns:xlink="http://www.w3.org/1999/xlink" viewBox="0 0 155 60"><defs><linearGradient id="linear-gradient" x1="31.8" y1="-96.71" x2="15.02" y2="-113.49" gradientTransform="matrix(1, 0, 0, -1, 0, -78)" gradientUnits="userSpaceOnUse"><stop offset="0" stop-color="#00a0ff"/><stop offset="0.01" stop-color="#00a1ff"/><stop offset="0.26" stop-color="#00beff"/><stop offset="0.51" stop-color="#00d2ff"/><stop offset="0.76" stop-color="#00dfff"/><stop offset="1" stop-color="#00e3ff"/></linearGradient><linearGradient id="linear-gradient-2" x1="43.83" y1="-108" x2="19.64" y2="-108" gradientTransform="matrix(1, 0, 0, -1, 0, -78)" gradientUnits="userSpaceOnUse"><stop offset="0" stop-color="#ffe000"/><stop offset="0.41" stop-color="#ffbd00"/><stop offset="0.78" stop-color="orange"/><stop offset="1" stop-color="#ff9c00"/></linearGradient><linearGradient id="linear-gradient-3" x1="34.83" y1="-110.3" x2="12.07" y2="-133.05" gradientTransform="matrix(1, 0, 0, -1, 0, -78)" gradientUnits="userSpaceOnUse"><stop offset="0" stop-color="#ff3a44"/><stop offset="1" stop-color="#c31162"/></linearGradient><linearGradient id="linear-gradient-4" x1="17.3" y1="-88.18" x2="27.46" y2="-98.34" gradientTransform="matrix(1, 0, 0, -1, 0, -78)" gradientUnits="userSpaceOnUse"><stop offset="0" stop-color="#32a071"/><stop offset="0.07" stop-color="#2da771"/><stop offset="0.48" stop-color="#15cf74"/><stop offset="0.8" stop-color="#06e775"/><stop offset="1" stop-color="#00f076"/></linearGradient></defs><title>google-play-badge-eu</title><rect width="155" height="60" style="fill:#fff;fill-opacity:0"/><rect x="10" y="10" width="135" height="40" rx="5" ry="5"/><path d="M140,10.8a4.2,4.2,0,0,1,4.2,4.2V45a4.2,4.2,0,0,1-4.2,4.2H15A4.2,4.2,0,0,1,10.8,45V15A4.2,4.2,0,0,1,15,10.8H140m0-.8H15a5,5,0,0,0-5,5V45a5,5,0,0,0,5,5H140a5,5,0,0,0,5-5V15a5,5,0,0,0-5-5Z" style="fill:#a6a6a6"/><path d="M74.72,26.79a3.72,3.72,0,1,0,3.73,3.72A3.66,3.66,0,0,0,74.72,26.79Zm0,6a2.26,2.26,0,1,1,2.1-2.25A2.15,2.15,0,0,1,74.72,32.76Zm-8.14-6a3.72,3.72,0,1,0,3.73,3.72A3.66,3.66,0,0,0,66.58,26.79Zm0,6a2.26,2.26,0,1,1,2.1-2.25A2.15,2.15,0,0,1,66.58,32.76ZM56.9,27.93v1.58h3.77a3.29,3.29,0,0,1-.86,2,3.86,3.86,0,0,1-2.91,1.15,4.2,4.2,0,0,1,0-8.39,4,4,0,0,1,2.84,1.13l1.11-1.11a5.5,5.5,0,0,0-4-1.59,5.77,5.77,0,1,0,0,11.55,5.28,5.28,0,0,0,4-1.62,5.21,5.21,0,0,0,1.37-3.69,5.14,5.14,0,0,0-.08-1Zm39.6,1.23a3.46,3.46,0,0,0-3.18-2.37,3.53,3.53,0,0,0-3.51,3.72,3.64,3.64,0,0,0,3.69,3.72,3.7,3.7,0,0,0,3.1-1.65l-1.27-.84a2.12,2.12,0,0,1-1.83,1,1.89,1.89,0,0,1-1.8-1.13l5-2.06ZM91.43,30.4a2,2,0,0,1,1.94-2.17,1.44,1.44,0,0,1,1.38.79Zm-4,3.61H89V23.07H87.39Zm-2.68-6.38h-.06a2.58,2.58,0,0,0-2-.83,3.72,3.72,0,0,0,0,7.44,2.53,2.53,0,0,0,2-.84h.06v.54c0,1.42-.76,2.18-2,2.18a2.06,2.06,0,0,1-1.87-1.32l-1.42.59a3.54,3.54,0,0,0,3.3,2.2c1.92,0,3.53-1.13,3.53-3.87V27H84.72Zm-1.87,5.14a2.26,2.26,0,0,1,0-4.51,2.1,2.1,0,0,1,2,2.27A2.08,2.08,0,0,1,82.84,32.76Zm21.31-9.69h-3.91V34h1.63V29.86h2.28a3.4,3.4,0,1,0,0-6.79Zm0,5.27h-2.32V24.59h2.32a1.87,1.87,0,1,1,0,3.75Zm10.08-1.57a3.06,3.06,0,0,0-2.91,1.67l1.45.6a1.55,1.55,0,0,1,1.49-.8A1.57,1.57,0,0,1,116,29.65v.11a3.61,3.61,0,0,0-1.7-.42c-1.56,0-3.15.86-3.15,2.46a2.52,2.52,0,0,0,2.71,2.4A2.3,2.3,0,0,0,116,33.14H116V34h1.57V29.79C117.59,27.85,116.15,26.77,114.28,26.77Zm-.2,6c-.53,0-1.28-.27-1.28-.93,0-.84.93-1.17,1.73-1.17A2.9,2.9,0,0,1,116,31,2,2,0,0,1,114.08,32.76ZM123.33,27l-1.87,4.74h-.06L119.46,27h-1.76l2.91,6.62L119,37.31h1.7L125.14,27Zm-14.69,7h1.63V23.07h-1.63Z" style="fill:#fff"/><path d="M20.44,17.54a2,2,0,0,0-.46,1.4V41.06a2,2,0,0,0,.46,1.4l.07.07L32.9,30.15v-.29L20.51,17.47Z" style="fill:url(#linear-gradient)"/><path d="M37,34.28,32.9,30.15v-.29L37,25.72l.09.05L42,28.56c1.4.79,1.4,2.09,0,2.89l-4.89,2.78Z" style="fill:url(#linear-gradient-2)"/><path d="M37.12,34.22,32.9,30,20.44,42.46a1.63,1.63,0,0,0,2.08.06l14.61-8.3" style="fill:url(#linear-gradient-3)"/><path d="M37.12,25.78l-14.61-8.3a1.63,1.63,0,0,0-2.08.06L32.9,30Z" style="fill:url(#linear-gradient-4)"/><path d="M37,34.13,22.51,42.38a1.67,1.67,0,0,1-2,0h0l-.07.07h0l.07.07h0a1.66,1.66,0,0,0,2,0l14.61-8.3Z" style="opacity:0.2;isolation:isolate"/><path d="M20.44,42.32a2,2,0,0,1-.46-1.4v.15a2,2,0,0,0,.46,1.4l.07-.07Z" style="opacity:0.12;isolation:isolate"/><path d="M42,31.3l-5,2.83.09.09L42,31.44a1.75,1.75,0,0,0,1-1.44h0A1.86,1.86,0,0,1,42,31.3Z" style="opacity:0.12;isolation:isolate"/><path d="M22.51,17.62,42,28.7a1.86,1.86,0,0,1,1,1.3h0a1.75,1.75,0,0,0-1-1.44L22.51,17.48c-1.4-.79-2.54-.13-2.54,1.47v.15C20,17.49,21.12,16.83,22.51,17.62Z" style="fill:#fff;opacity:0.25;isolation:isolate"/><path d="M51.09,45V40h1.53a2.49,2.49,0,0,1,1.84.7,2.7,2.7,0,0,1,0,3.61,2.48,2.48,0,0,1-1.84.69Zm.64-.61h.89a1.89,1.89,0,1,0,0-3.77h-.89Z" style="fill:#fff;stroke:#fff;stroke-miterlimit:10;stroke-width:0.2px"/><path d="M59.17,40.62H56.9V42.2H59v.6H56.9v1.58h2.28V45H56.26V40h2.92Z" style="fill:#fff;stroke:#fff;stroke-miterlimit:10;stroke-width:0.2px"/><path d="M60.39,45V40h.78l2.43,3.89h0l0-1V40h.64v5h-.67L61,40.92h0l0,1V45Z" style="fill:#fff;stroke:#fff;stroke-miterlimit:10;stroke-width:0.2px"/><path d="M65.6,45V40h1.53a2.49,2.49,0,0,1,1.84.7,2.7,2.7,0,0,1,0,3.61,2.48,2.48,0,0,1-1.84.69Zm.64-.61h.89a1.89,1.89,0,1,0,0-3.77h-.89Z" style="fill:#fff;stroke:#fff;stroke-miterlimit:10;stroke-width:0.2px"/><path d="M70.14,45,72,40h.73l1.88,5h-.71l-.48-1.35h-2.1L70.85,45Zm1.42-2h1.66l-.82-2.25h0Z" style="fill:#fff;stroke:#fff;stroke-miterlimit:10;stroke-width:0.2px"/><path d="M75.57,45V40h.78l2.43,3.89h0l0-1V40h.64v5h-.67l-2.54-4.08h0l0,1V45Z" style="fill:#fff;stroke:#fff;stroke-miterlimit:10;stroke-width:0.2px"/><path d="M51.09,20V15h.64v4.38h2.16V20Z" style="fill:#fff;stroke:#fff;stroke-miterlimit:10;stroke-width:0.2px"/><path d="M59,19.35a2.6,2.6,0,0,1-3.66,0,2.7,2.7,0,0,1,0-3.71,2.59,2.59,0,0,1,3.66,0,2.69,2.69,0,0,1,0,3.7Zm-3.19-.42a1.92,1.92,0,0,0,2.71,0,2.13,2.13,0,0,0,0-2.87,1.92,1.92,0,0,0-2.71,0,2.13,2.13,0,0,0,0,2.87Z" style="fill:#fff;stroke:#fff;stroke-miterlimit:10;stroke-width:0.2px"/><path d="M60.81,20V15h1.7a1.58,1.58,0,0,1,1.1.42,1.44,1.44,0,0,1,.12,2,1.48,1.48,0,0,1-.85.51v0l1.4,2v0h-.76l-1.35-2h-.71v2Zm.64-2.62h1a.94.94,0,0,0,.66-.25.82.82,0,0,0,.28-.63.88.88,0,0,0-.24-.6.83.83,0,0,0-.65-.27H61.45Z" style="fill:#fff;stroke:#fff;stroke-miterlimit:10;stroke-width:0.2px"/><path d="M66.89,20h-.64V15.62h-1.4V15h3.43v.61h-1.4Z" style="fill:#fff;stroke:#fff;stroke-miterlimit:10;stroke-width:0.2px"/><path d="M71,20.11a1.75,1.75,0,0,1-1.34-.54,2,2,0,0,1-.51-1.42V15h.64v3.17a1.43,1.43,0,0,0,.31,1,1.28,1.28,0,0,0,1.79,0,1.43,1.43,0,0,0,.31-1V15h.64v3.14a2,2,0,0,1-.5,1.43A1.74,1.74,0,0,1,71,20.11Z" style="fill:#fff;stroke:#fff;stroke-miterlimit:10;stroke-width:0.2px"/></svg>