<svg id="artwork" xmlns="http://www.w3.org/2000/svg" xmlns:xlink="http://www.w3.org/1999/xlink" viewBox="0 0 155 60"><defs><linearGradient id="linear-gradient" x1="31.8" y1="-96.71" x2="15.02" y2="-113.49" gradientTransform="matrix(1, 0, 0, -1, 0, -78)" gradientUnits="userSpaceOnUse"><stop offset="0" stop-color="#00a0ff"/><stop offset="0.01" stop-color="#00a1ff"/><stop offset="0.26" stop-color="#00beff"/><stop offset="0.51" stop-color="#00d2ff"/><stop offset="0.76" stop-color="#00dfff"/><stop offset="1" stop-color="#00e3ff"/></linearGradient><linearGradient id="linear-gradient-2" x1="43.83" y1="-108" x2="19.64" y2="-108" gradientTransform="matrix(1, 0, 0, -1, 0, -78)" gradientUnits="userSpaceOnUse"><stop offset="0" stop-color="#ffe000"/><stop offset="0.41" stop-color="#ffbd00"/><stop offset="0.78" stop-color="orange"/><stop offset="1" stop-color="#ff9c00"/></linearGradient><linearGradient id="linear-gradient-3" x1="34.83" y1="-110.3" x2="12.07" y2="-133.05" gradientTransform="matrix(1, 0, 0, -1, 0, -78)" gradientUnits="userSpaceOnUse"><stop offset="0" stop-color="#ff3a44"/><stop offset="1" stop-color="#c31162"/></linearGradient><linearGradient id="linear-gradient-4" x1="17.3" y1="-88.18" x2="27.46" y2="-98.34" gradientTransform="matrix(1, 0, 0, -1, 0, -78)" gradientUnits="userSpaceOnUse"><stop offset="0" stop-color="#32a071"/><stop offset="0.07" stop-color="#2da771"/><stop offset="0.48" stop-color="#15cf74"/><stop offset="0.8" stop-color="#06e775"/><stop offset="1" stop-color="#00f076"/></linearGradient></defs><title>et_get</title><rect width="155" height="60" style="fill:#fff;fill-opacity:0"/><rect x="10" y="10" width="135" height="40" rx="5" ry="5"/><path d="M140,10.8a4.2,4.2,0,0,1,4.2,4.2V45a4.2,4.2,0,0,1-4.2,4.2H15A4.2,4.2,0,0,1,10.8,45V15A4.2,4.2,0,0,1,15,10.8H140m0-.8H15a5,5,0,0,0-5,5V45a5,5,0,0,0,5,5H140a5,5,0,0,0,5-5V15a5,5,0,0,0-5-5Z" style="fill:#a6a6a6"/><path d="M74.72,26.79a3.72,3.72,0,1,0,3.73,3.72A3.66,3.66,0,0,0,74.72,26.79Zm0,6a2.26,2.26,0,1,1,2.1-2.25A2.15,2.15,0,0,1,74.72,32.76Zm-8.14-6a3.72,3.72,0,1,0,3.73,3.72A3.66,3.66,0,0,0,66.58,26.79Zm0,6a2.26,2.26,0,1,1,2.1-2.25A2.15,2.15,0,0,1,66.58,32.76ZM56.9,27.93v1.58h3.77a3.29,3.29,0,0,1-.86,2,3.86,3.86,0,0,1-2.91,1.15,4.2,4.2,0,0,1,0-8.39,4,4,0,0,1,2.84,1.13l1.11-1.11a5.5,5.5,0,0,0-4-1.59,5.77,5.77,0,1,0,0,11.55,5.28,5.28,0,0,0,4-1.62,5.21,5.21,0,0,0,1.37-3.69,5.14,5.14,0,0,0-.08-1Zm39.6,1.23a3.46,3.46,0,0,0-3.18-2.37,3.53,3.53,0,0,0-3.51,3.72,3.64,3.64,0,0,0,3.69,3.72,3.7,3.7,0,0,0,3.1-1.65l-1.27-.84a2.12,2.12,0,0,1-1.83,1,1.89,1.89,0,0,1-1.8-1.13l5-2.06ZM91.43,30.4a2,2,0,0,1,1.94-2.17,1.44,1.44,0,0,1,1.38.79Zm-4,3.61H89V23.07H87.39Zm-2.68-6.38h-.06a2.58,2.58,0,0,0-2-.83,3.72,3.72,0,0,0,0,7.44,2.53,2.53,0,0,0,2-.84h.06v.54c0,1.42-.76,2.18-2,2.18a2.06,2.06,0,0,1-1.87-1.32l-1.42.59a3.54,3.54,0,0,0,3.3,2.2c1.92,0,3.53-1.13,3.53-3.87V27H84.72Zm-1.87,5.14a2.26,2.26,0,0,1,0-4.51,2.1,2.1,0,0,1,2,2.27A2.08,2.08,0,0,1,82.84,32.76Zm21.31-9.69h-3.91V34h1.63V29.86h2.28a3.4,3.4,0,1,0,0-6.79Zm0,5.27h-2.32V24.59h2.32a1.87,1.87,0,1,1,0,3.75Zm10.08-1.57a3.06,3.06,0,0,0-2.91,1.67l1.45.6a1.55,1.55,0,0,1,1.49-.8A1.57,1.57,0,0,1,116,29.65v.11a3.61,3.61,0,0,0-1.7-.42c-1.56,0-3.15.86-3.15,2.46a2.52,2.52,0,0,0,2.71,2.4A2.3,2.3,0,0,0,116,33.14H116V34h1.57V29.79C117.59,27.85,116.15,26.77,114.28,26.77Zm-.2,6c-.53,0-1.28-.27-1.28-.93,0-.84.93-1.17,1.73-1.17A2.9,2.9,0,0,1,116,31,2,2,0,0,1,114.08,32.76ZM123.33,27l-1.87,4.74h-.06L119.46,27h-1.76l2.91,6.62L119,37.31h1.7L125.14,27Zm-14.69,7h1.63V23.07h-1.63Z" style="fill:#fff"/><path d="M20.44,17.54a2,2,0,0,0-.46,1.4V41.06a2,2,0,0,0,.46,1.4l.07.07L32.9,30.15v-.29L20.51,17.47Z" style="fill:url(#linear-gradient)"/><path d="M37,34.28,32.9,30.15v-.29L37,25.72l.09.05L42,28.56c1.4.79,1.4,2.09,0,2.89l-4.89,2.78Z" style="fill:url(#linear-gradient-2)"/><path d="M37.12,34.22,32.9,30,20.44,42.46a1.63,1.63,0,0,0,2.08.06l14.61-8.3" style="fill:url(#linear-gradient-3)"/><path d="M37.12,25.78l-14.61-8.3a1.63,1.63,0,0,0-2.08.06L32.9,30Z" style="fill:url(#linear-gradient-4)"/><path d="M37,34.13,22.51,42.38a1.67,1.67,0,0,1-2,0h0l-.07.07h0l.07.07h0a1.66,1.66,0,0,0,2,0l14.61-8.3Z" style="opacity:0.2;isolation:isolate"/><path d="M20.44,42.32a2,2,0,0,1-.46-1.4v.15a2,2,0,0,0,.46,1.4l.07-.07Z" style="opacity:0.12;isolation:isolate"/><path d="M42,31.3l-5,2.83.09.09L42,31.44a1.75,1.75,0,0,0,1-1.44h0A1.86,1.86,0,0,1,42,31.3Z" style="opacity:0.12;isolation:isolate"/><path d="M22.51,17.62,42,28.7a1.86,1.86,0,0,1,1,1.3h0a1.75,1.75,0,0,0-1-1.44L22.51,17.48c-1.4-.79-2.54-.13-2.54,1.47v.15C20,17.49,21.12,16.83,22.51,17.62Z" style="fill:#fff;opacity:0.25;isolation:isolate"/><path d="M89.24,45.09a1.56,1.56,0,0,1-.65-.13,1.53,1.53,0,0,1-.49-.35,3.76,3.76,0,0,1-1.87.48,1.82,1.82,0,0,1-.85-.15.47.47,0,0,1-.28-.43.72.72,0,0,1,.16-.49,1.54,1.54,0,0,0,.53.28,2.57,2.57,0,0,0,.73.09,4.81,4.81,0,0,0,1.28-.19,8.41,8.41,0,0,1-.59-1.26A3.16,3.16,0,0,1,87,42a.61.61,0,0,1,.49-.61q.19.69.34,1.17a7.79,7.79,0,0,0,.29.77,3.35,3.35,0,0,0,.32.56,1.19,1.19,0,0,0,.38.37,1,1,0,0,0,.45.1c.05,0,.08,0,.08.08V45C89.32,45.07,89.29,45.09,89.24,45.09Z" style="fill:#fff;stroke:#fff;stroke-miterlimit:10;stroke-width:0.2px"/><path d="M91.75,43a.38.38,0,0,1,.23.07c-.11.27-.21.49-.29.67a2.38,2.38,0,0,1-.15.3,2.26,2.26,0,0,0,.58.28,2.13,2.13,0,0,0,.58.08.07.07,0,0,1,.08.08V45a.07.07,0,0,1-.08.08,2.14,2.14,0,0,1-1.46-.54l-.15.2a1.61,1.61,0,0,1-.67.22,5.61,5.61,0,0,1-1.13.12.07.07,0,0,1-.08-.08v-.55a.07.07,0,0,1,.08-.08,8.05,8.05,0,0,0,1,0,1.3,1.3,0,0,0,.56-.17,2.49,2.49,0,0,0,.49-.74l.16-.3A.3.3,0,0,1,91.75,43Zm-.83,3.28a3.69,3.69,0,0,1-.55.63,4.87,4.87,0,0,1-.61-.56c.16-.15.36-.36.6-.62Zm1.4-.13a3.59,3.59,0,0,1-.56.63,4.53,4.53,0,0,1-.61-.56q.21-.19.6-.62Z" style="fill:#fff;stroke:#fff;stroke-miterlimit:10;stroke-width:0.2px"/><path d="M92.81,45.09a.07.07,0,0,1-.08-.08v-.55a.07.07,0,0,1,.08-.08,2.26,2.26,0,0,0,.58-.07.9.9,0,0,0,.38-.19,3.11,3.11,0,0,0,.43-.7l.16-.3a.29.29,0,0,1,.28-.15.38.38,0,0,1,.23.07q-.2.49-.45,1a2.59,2.59,0,0,0,.58.27,2.06,2.06,0,0,0,.58.08.07.07,0,0,1,.08.08V45a.07.07,0,0,1-.08.08,2.1,2.1,0,0,1-1.46-.54l-.15.2a1,1,0,0,1-.44.23A2.38,2.38,0,0,1,92.81,45.09Zm2-3.32a4.7,4.7,0,0,1-.6.68,5.73,5.73,0,0,1-.66-.6q.47-.47.65-.68A7.77,7.77,0,0,0,94.77,41.77Z" style="fill:#fff;stroke:#fff;stroke-miterlimit:10;stroke-width:0.2px"/><path d="M95.64,45.09a.07.07,0,0,1-.08-.08v-.55a.07.07,0,0,1,.08-.08,8.38,8.38,0,0,0,1.12-.07,6.31,6.31,0,0,0,.85-.17,4.18,4.18,0,0,0,.76-.31,2.35,2.35,0,0,0-.64-1,5.07,5.07,0,0,0-1.3-.85.84.84,0,0,1-.23,0,.54.54,0,0,1-.4-.17.61.61,0,0,1-.16-.43,2,2,0,0,1,.1-.53.91.91,0,0,1,.15-.36q1.23-.64,1.89-.94t1.4-.6a.44.44,0,0,1,.14.35v.08a.57.57,0,0,1-.39.46Q97,40.73,96,41.21a4.71,4.71,0,0,1,1.35.56,3.8,3.8,0,0,1,1,.88,1.53,1.53,0,0,1,.38.92A1.22,1.22,0,0,1,98,44.71,5.38,5.38,0,0,1,95.64,45.09Z" style="fill:#fff;stroke:#fff;stroke-miterlimit:10;stroke-width:0.2px"/><path d="M109.16,45.09a2.14,2.14,0,0,1-1.58-.66,5.26,5.26,0,0,1-1.38.48,8.42,8.42,0,0,1-1.78.18,3,3,0,0,1-1.67-.39,1.33,1.33,0,0,1-.58-1.18,3.72,3.72,0,0,1,.13-1h.33a1.54,1.54,0,0,0,0,.19q0,.15,0,.27a1.46,1.46,0,0,0,.2.83,1.26,1.26,0,0,0,.65.45,3.69,3.69,0,0,0,1.18.15,8.49,8.49,0,0,0,1.65-.17,3.45,3.45,0,0,0,1.11-.34.87.87,0,0,0,.18-.17,2,2,0,0,0,.15-.24l.13-.24a.31.31,0,0,1,.29-.14.35.35,0,0,1,.22.07A7.72,7.72,0,0,1,108,44a2.47,2.47,0,0,0,.58.29,2,2,0,0,0,.63.09.07.07,0,0,1,.08.08V45A.07.07,0,0,1,109.16,45.09Zm-4.06-3.45a3.61,3.61,0,0,1-.55.63,5.1,5.1,0,0,1-.61-.56c.16-.15.36-.36.6-.62Zm1.4-.13a3.32,3.32,0,0,1-.56.63,4.35,4.35,0,0,1-.61-.57l.6-.62Z" style="fill:#fff;stroke:#fff;stroke-miterlimit:10;stroke-width:0.2px"/><path d="M112.17,43.89a6.82,6.82,0,0,0-.13-.73,2.16,2.16,0,0,1-.63.38,1.87,1.87,0,0,1-.69.14.82.82,0,0,1-.66-.31,1.17,1.17,0,0,1-.25-.77,2.3,2.3,0,0,1,.34-1.25,1,1,0,0,1,.81-.54,1.21,1.21,0,0,1,.85.34,2.33,2.33,0,0,1,.59,1,4.18,4.18,0,0,1,.22,1.36,2.31,2.31,0,0,1-.32.94,4.11,4.11,0,0,1-1.26.51,8.37,8.37,0,0,1-1.83.16.08.08,0,0,1-.09-.09v-.53a.08.08,0,0,1,.09-.09,10.18,10.18,0,0,0,1.69-.12A5.41,5.41,0,0,0,112.17,43.89Zm-1.35-2.3a.56.56,0,0,0-.47.26.94.94,0,0,0-.19.57.49.49,0,0,0,.19.42,1,1,0,0,0,.6.13,2.4,2.4,0,0,0,1-.23,2.21,2.21,0,0,0-.46-.86A.87.87,0,0,0,110.82,41.59Zm.79-2a4.71,4.71,0,0,1-.6.68,5.85,5.85,0,0,1-.66-.6q.47-.47.65-.68A7.55,7.55,0,0,0,111.61,39.58Z" style="fill:#fff;stroke:#fff;stroke-miterlimit:10;stroke-width:0.2px"/><path d="M115.1,44.46V45a.07.07,0,0,1-.08.08,1.74,1.74,0,0,1-.91-.21.77.77,0,0,1-.4-.59q-.15-1.18-.32-3.65l-.09-1.23a4.25,4.25,0,0,1,.62-.51q.06,1.41.1,4l0,1.27a2,2,0,0,0,1,.24A.07.07,0,0,1,115.1,44.46Z" style="fill:#fff;stroke:#fff;stroke-miterlimit:10;stroke-width:0.2px"/><path d="M115.06,45.09A.07.07,0,0,1,115,45v-.55a.07.07,0,0,1,.08-.08,9,9,0,0,0,1.31-.09,3.53,3.53,0,0,0,1-.25c-.06-.25-.17-.59-.33-1a2.5,2.5,0,0,1-.18-.62A.68.68,0,0,1,117,42a1.42,1.42,0,0,1,.44-.37q0,.27.1.54l.12.52c0,.17.07.34.09.5a2.89,2.89,0,0,1,0,.45,2.32,2.32,0,0,1-.32.94,3.4,3.4,0,0,1-1,.37A6.49,6.49,0,0,1,115.06,45.09Zm1.53,1.17a3.63,3.63,0,0,1-.55.63,4.81,4.81,0,0,1-.61-.56c.16-.15.36-.36.6-.62Zm1.4-.13a3.57,3.57,0,0,1-.55.63,4.54,4.54,0,0,1-.61-.56c.14-.13.34-.33.6-.62Z" style="fill:#fff;stroke:#fff;stroke-miterlimit:10;stroke-width:0.2px"/><path d="M119.14,47a1.61,1.61,0,0,1-.61-.17,3.08,3.08,0,0,1-.61-.35l.13-.31a4.43,4.43,0,0,0,.87.1,1.79,1.79,0,0,0,1.19-.41,2.59,2.59,0,0,0,.75-1.2,5.39,5.39,0,0,0-.28-.58,9,9,0,0,1-.47-.9,1.51,1.51,0,0,1-.15-.57.51.51,0,0,1,.14-.38,1.55,1.55,0,0,1,.4-.27,5.85,5.85,0,0,0,.19.56l.23.63c.08.22.15.43.2.64a2.18,2.18,0,0,1,.09.58,3.25,3.25,0,0,1-.27,1.33,2.28,2.28,0,0,1-.75,1A1.78,1.78,0,0,1,119.14,47Z" style="fill:#fff;stroke:#fff;stroke-miterlimit:10;stroke-width:0.2px"/><path d="M122.76,45.09a1.82,1.82,0,0,1-.85-.15.47.47,0,0,1-.28-.43.72.72,0,0,1,.16-.49,1.54,1.54,0,0,0,.53.28,2.57,2.57,0,0,0,.73.09,4.42,4.42,0,0,0,1.25-.19,5.62,5.62,0,0,0-.38-.85l-.32-.58a2.43,2.43,0,0,1-.2-.41,1.07,1.07,0,0,1-.06-.34.62.62,0,0,1,.49-.61c.09.25.19.49.3.72l.29.64c.09.2.16.38.23.55a1.43,1.43,0,0,1,.09.47,1.37,1.37,0,0,1-.09.39,4,4,0,0,1-.24.55A3.5,3.5,0,0,1,122.76,45.09Z" style="fill:#fff;stroke:#fff;stroke-miterlimit:10;stroke-width:0.2px"/><path d="M120.75,22.55a1.73,1.73,0,0,1-.65-.19,3.33,3.33,0,0,1-.65-.37l.14-.33a4.83,4.83,0,0,0,.94.11,1.93,1.93,0,0,0,1.28-.45,2.8,2.8,0,0,0,.82-1.3,5.81,5.81,0,0,0-.3-.63,9.94,9.94,0,0,1-.51-1,1.63,1.63,0,0,1-.16-.62.55.55,0,0,1,.15-.41,1.63,1.63,0,0,1,.43-.29,6.29,6.29,0,0,0,.2.61l.25.68q.13.35.22.69a2.39,2.39,0,0,1,.09.62,3.53,3.53,0,0,1-.29,1.44,2.47,2.47,0,0,1-.81,1A1.91,1.91,0,0,1,120.75,22.55Zm1.49-6.77a5.09,5.09,0,0,1-.64.73,6.31,6.31,0,0,1-.72-.65q.51-.51.7-.73A8.29,8.29,0,0,0,122.24,15.79Z" style="fill:#fff;stroke:#fff;stroke-miterlimit:10;stroke-width:0.2px"/><path d="M124.8,17.18v.63q0,1-.07,2.62l-.46.08q-.06-3.51-.27-5.82v-.13a.75.75,0,0,1,.16-.5.85.85,0,0,1,.5-.26l0,.12L125,15l-.27.23v0Q124.8,16.34,124.8,17.18Z" style="fill:#fff;stroke:#fff;stroke-miterlimit:10;stroke-width:0.2px"/></svg>