<svg id="artwork" xmlns="http://www.w3.org/2000/svg" xmlns:xlink="http://www.w3.org/1999/xlink" viewBox="0 0 155 60"><defs><linearGradient id="linear-gradient" x1="31.8" y1="183.29" x2="15.02" y2="166.51" gradientTransform="matrix(1, 0, 0, -1, 0, 202)" gradientUnits="userSpaceOnUse"><stop offset="0" stop-color="#00a0ff"/><stop offset="0.01" stop-color="#00a1ff"/><stop offset="0.26" stop-color="#00beff"/><stop offset="0.51" stop-color="#00d2ff"/><stop offset="0.76" stop-color="#00dfff"/><stop offset="1" stop-color="#00e3ff"/></linearGradient><linearGradient id="linear-gradient-2" x1="43.83" y1="172" x2="19.64" y2="172" gradientTransform="matrix(1, 0, 0, -1, 0, 202)" gradientUnits="userSpaceOnUse"><stop offset="0" stop-color="#ffe000"/><stop offset="0.41" stop-color="#ffbd00"/><stop offset="0.78" stop-color="orange"/><stop offset="1" stop-color="#ff9c00"/></linearGradient><linearGradient id="linear-gradient-3" x1="34.83" y1="169.7" x2="12.07" y2="146.95" gradientTransform="matrix(1, 0, 0, -1, 0, 202)" gradientUnits="userSpaceOnUse"><stop offset="0" stop-color="#ff3a44"/><stop offset="1" stop-color="#c31162"/></linearGradient><linearGradient id="linear-gradient-4" x1="17.3" y1="191.82" x2="27.46" y2="181.66" gradientTransform="matrix(1, 0, 0, -1, 0, 202)" gradientUnits="userSpaceOnUse"><stop offset="0" stop-color="#32a071"/><stop offset="0.07" stop-color="#2da771"/><stop offset="0.48" stop-color="#15cf74"/><stop offset="0.8" stop-color="#06e775"/><stop offset="1" stop-color="#00f076"/></linearGradient></defs><title>hy_get</title><rect width="155" height="60" style="fill:#fff;fill-opacity:0"/><rect x="10" y="10" width="135" height="40" rx="5" ry="5"/><path d="M140,10.8a4.2,4.2,0,0,1,4.2,4.2V45a4.2,4.2,0,0,1-4.2,4.2H15A4.2,4.2,0,0,1,10.8,45V15A4.2,4.2,0,0,1,15,10.8H140m0-.8H15a5,5,0,0,0-5,5V45a5,5,0,0,0,5,5H140a5,5,0,0,0,5-5V15a5,5,0,0,0-5-5Z" style="fill:#a6a6a6"/><path d="M55.15,20.79H53.84a2.54,2.54,0,0,1-1.66-.49,1.69,1.69,0,0,1-.59-1.38,1.82,1.82,0,0,1,.64-1.42,2.21,2.21,0,0,1,1.52-.57,2.11,2.11,0,0,1,1.58.59,2.23,2.23,0,0,1,.57,1.63v1h1.42v.65H55.89V23h-.74Zm0-.65v-1A1.64,1.64,0,0,0,54.79,18a1.33,1.33,0,0,0-1-.4,1.37,1.37,0,0,0-1,.37,1.28,1.28,0,0,0-.38,1,1.1,1.1,0,0,0,.38.9,1.71,1.71,0,0,0,1.1.31Z" style="fill:#fff;stroke:#fff;stroke-miterlimit:10;stroke-width:0.2px"/><path d="M59.1,23a3.81,3.81,0,0,1-.82-.27V22a4.22,4.22,0,0,0,.91.34,3.82,3.82,0,0,0,.86.09,1.63,1.63,0,0,0,1-.27.83.83,0,0,0,.37-.69.88.88,0,0,0-.35-.73,5.29,5.29,0,0,0-1.2-.62,3.54,3.54,0,0,1-1.22-.73,1.37,1.37,0,0,1,.21-2.05,2.25,2.25,0,0,1,1.37-.43,4.62,4.62,0,0,1,.9.08,3.73,3.73,0,0,1,.8.25l-.23.62a4.18,4.18,0,0,0-.73-.23,3.58,3.58,0,0,0-.75-.07,1.31,1.31,0,0,0-.83.25.76.76,0,0,0-.33.63.71.71,0,0,0,.27.56,3.66,3.66,0,0,0,1,.51,7.33,7.33,0,0,1,1.09.52,1.82,1.82,0,0,1,.6.57,1.43,1.43,0,0,1,.21.78,1.47,1.47,0,0,1-.6,1.22,2.39,2.39,0,0,1-1.51.47A4.92,4.92,0,0,1,59.1,23Z" style="fill:#fff;stroke:#fff;stroke-miterlimit:10;stroke-width:0.2px"/><path d="M63.66,17h.75v1.2h3.76v.65H64.41v1.79A2.1,2.1,0,0,0,64.76,22a1.31,1.31,0,0,0,1.07.44,1.46,1.46,0,0,0,1.06-.36,1.37,1.37,0,0,0,.37-1v-.25H68V21a2.07,2.07,0,0,1-.57,1.55,2.2,2.2,0,0,1-1.6.55,2.1,2.1,0,0,1-1.61-.61,2.45,2.45,0,0,1-.57-1.74Z" style="fill:#fff;stroke:#fff;stroke-miterlimit:10;stroke-width:0.2px"/><path d="M70,21.54h-.81v-.65H70V19.17a2.38,2.38,0,0,1,.53-1.65A1.88,1.88,0,0,1,72,16.93a2,2,0,0,1,1.34.44,1.51,1.51,0,0,1,.5,1.19,1.45,1.45,0,0,1-.59,1.24,2.92,2.92,0,0,1-1.74.43h-.77v.65h3.09v.65H70.79V23H70Zm1.51-1.94a2.25,2.25,0,0,0,1.2-.24.89.89,0,0,0,.36-.8.94.94,0,0,0-.28-.72,1.1,1.1,0,0,0-.78-.27,1.15,1.15,0,0,0-.93.39,1.75,1.75,0,0,0-.33,1.15v.49Z" style="fill:#fff;stroke:#fff;stroke-miterlimit:10;stroke-width:0.2px"/><path d="M82.11,21.65a1.89,1.89,0,0,1-.73,1.07,2.27,2.27,0,0,1-1.32.36,2.1,2.1,0,0,1-1.61-.61,2.45,2.45,0,0,1-.57-1.74V17h.74v3.64A2.1,2.1,0,0,0,79,22a1.53,1.53,0,0,0,2.14,0,2.09,2.09,0,0,0,.36-1.35V17h.74v3.72q0,.15,0,.3h.25a1.25,1.25,0,0,1,.94.32,1.32,1.32,0,0,1,.3.95V23H83v-.53q0-.83-.71-.83h-.18Z" style="fill:#fff;stroke:#fff;stroke-miterlimit:10;stroke-width:0.2px"/><path d="M87.71,19.86v0a1.71,1.71,0,0,1,1,.48,1.33,1.33,0,0,1,.37,1,1.48,1.48,0,0,1-.68,1.29,2.9,2.9,0,0,1-1.69.47,5.86,5.86,0,0,1-1-.08,2.74,2.74,0,0,1-.79-.24V22a3.78,3.78,0,0,0,.84.29,4.16,4.16,0,0,0,.93.11,2,2,0,0,0,1.18-.3,1,1,0,0,0,.41-.81.87.87,0,0,0-.44-.8,2.53,2.53,0,0,0-1.28-.26h-2V19.6h1.93a2,2,0,0,0,1.16-.3,1,1,0,0,0,.42-.83.79.79,0,0,0-.32-.64,1.28,1.28,0,0,0-.82-.26,2.2,2.2,0,0,0-.76.13,4.33,4.33,0,0,0-.75.37l-.38-.54a3.16,3.16,0,0,1,.91-.45,3.23,3.23,0,0,1,1-.16,2.16,2.16,0,0,1,1.37.43,1.35,1.35,0,0,1,.55,1.12,1.28,1.28,0,0,1-.33.88A1.66,1.66,0,0,1,87.71,19.86Z" style="fill:#fff;stroke:#fff;stroke-miterlimit:10;stroke-width:0.2px"/><path d="M90.65,17h.75v3.64A2.1,2.1,0,0,0,91.75,22a1.53,1.53,0,0,0,2.14,0,2.09,2.09,0,0,0,.36-1.35V17H95v3.72a2.45,2.45,0,0,1-.57,1.74,2.43,2.43,0,0,1-3.22,0,2.45,2.45,0,0,1-.57-1.74Z" style="fill:#fff;stroke:#fff;stroke-miterlimit:10;stroke-width:0.2px"/><path d="M97.39,23a3.81,3.81,0,0,1-.82-.27V22a4.22,4.22,0,0,0,.91.34,3.83,3.83,0,0,0,.86.09,1.63,1.63,0,0,0,1-.27.83.83,0,0,0,.37-.69.88.88,0,0,0-.35-.73,5.29,5.29,0,0,0-1.2-.62,3.53,3.53,0,0,1-1.22-.73,1.37,1.37,0,0,1,.21-2.05,2.25,2.25,0,0,1,1.37-.43,4.62,4.62,0,0,1,.9.08,3.73,3.73,0,0,1,.8.25l-.23.62a4.18,4.18,0,0,0-.73-.23,3.58,3.58,0,0,0-.75-.07,1.31,1.31,0,0,0-.83.25.76.76,0,0,0-.33.63.71.71,0,0,0,.27.56,3.66,3.66,0,0,0,1,.51,7.32,7.32,0,0,1,1.09.52,1.82,1.82,0,0,1,.6.57,1.43,1.43,0,0,1,.21.78,1.47,1.47,0,0,1-.6,1.22,2.39,2.39,0,0,1-1.51.47A4.92,4.92,0,0,1,97.39,23Z" style="fill:#fff;stroke:#fff;stroke-miterlimit:10;stroke-width:0.2px"/><path d="M101.94,17h.75v1.2h3.76v.65h-3.76v1.79A2.1,2.1,0,0,0,103,22a1.31,1.31,0,0,0,1.07.44,1.46,1.46,0,0,0,1.06-.36,1.37,1.37,0,0,0,.37-1v-.25h.75V21a2.07,2.07,0,0,1-.57,1.55,2.2,2.2,0,0,1-1.6.55,2.1,2.1,0,0,1-1.61-.61,2.45,2.45,0,0,1-.57-1.74Z" style="fill:#fff;stroke:#fff;stroke-miterlimit:10;stroke-width:0.2px"/><path d="M113.23,22.35V23h-2.17V19.06A1.54,1.54,0,0,0,110.7,18a1.43,1.43,0,0,0-1.94,0,1.38,1.38,0,0,0-.36,1v.27h-.74V19a2.08,2.08,0,0,1,.55-1.53,2,2,0,0,1,1.51-.56,2.09,2.09,0,0,1,1.52.54,2,2,0,0,1,.56,1.5v3.36Z" style="fill:#fff;stroke:#fff;stroke-miterlimit:10;stroke-width:0.2px"/><path d="M114.72,17.95c-.13-.32-.24-.61-.33-.87s-.18-.52-.25-.78l.07-.12H115c0,.11,0,.25.07.41s.06.33.1.51l.18.85Z" style="fill:#fff;stroke:#fff;stroke-miterlimit:10;stroke-width:0.2px"/><path d="M78.14,31.75A4.25,4.25,0,1,0,82.41,36,4.19,4.19,0,0,0,78.14,31.75Zm0,6.83A2.58,2.58,0,1,1,80.54,36,2.46,2.46,0,0,1,78.14,38.58Zm-9.31-6.83A4.25,4.25,0,1,0,73.09,36,4.19,4.19,0,0,0,68.82,31.75Zm0,6.83A2.58,2.58,0,1,1,71.22,36,2.46,2.46,0,0,1,68.82,38.58ZM57.74,33.06v1.8h4.32a3.77,3.77,0,0,1-1,2.27,4.42,4.42,0,0,1-3.33,1.32,4.8,4.8,0,0,1,0-9.6A4.6,4.6,0,0,1,61,30.14l1.27-1.27A6.29,6.29,0,0,0,57.74,27a6.61,6.61,0,1,0,0,13.21,6,6,0,0,0,4.61-1.85,6,6,0,0,0,1.56-4.22,5.87,5.87,0,0,0-.1-1.13Zm45.31,1.4a4,4,0,0,0-3.64-2.71,4,4,0,0,0-4,4.25,4.16,4.16,0,0,0,4.22,4.25,4.23,4.23,0,0,0,3.54-1.88l-1.45-1a2.43,2.43,0,0,1-2.09,1.18,2.16,2.16,0,0,1-2.06-1.29l5.69-2.35Zm-5.8,1.42a2.33,2.33,0,0,1,2.22-2.48,1.65,1.65,0,0,1,1.58.9ZM92.63,40H94.5V27.5H92.63Zm-3.06-7.3H89.5a3,3,0,0,0-2.24-1,4.26,4.26,0,0,0,0,8.51,2.9,2.9,0,0,0,2.24-1h.06v.61c0,1.63-.87,2.5-2.27,2.5a2.35,2.35,0,0,1-2.14-1.51l-1.63.68a4.05,4.05,0,0,0,3.77,2.51c2.19,0,4-1.29,4-4.43V32H89.57Zm-2.14,5.88a2.59,2.59,0,0,1,0-5.16A2.4,2.4,0,0,1,89.7,36,2.38,2.38,0,0,1,87.42,38.58ZM111.81,27.5h-4.47V40h1.87V35.26h2.61a3.89,3.89,0,1,0,0-7.76Zm0,6H109.2V29.24h2.65a2.14,2.14,0,1,1,0,4.29Zm11.53-1.8a3.5,3.5,0,0,0-3.33,1.91l1.66.69a1.77,1.77,0,0,1,1.7-.92,1.8,1.8,0,0,1,2,1.61v.13a4.13,4.13,0,0,0-1.95-.48c-1.79,0-3.6,1-3.6,2.81a2.89,2.89,0,0,0,3.1,2.75A2.63,2.63,0,0,0,125.32,39h.06v1h1.8V35.19C127.18,33,125.52,31.73,123.39,31.73Zm-.23,6.85c-.61,0-1.46-.31-1.46-1.06,0-1,1.06-1.33,2-1.33a3.32,3.32,0,0,1,1.7.42A2.26,2.26,0,0,1,123.16,38.58ZM133.74,32l-2.14,5.42h-.06L129.32,32h-2l3.33,7.58-1.9,4.21h1.95L135.82,32Zm-16.81,8h1.87V27.5h-1.87Z" style="fill:#fff"/><path d="M20.44,17.54a2,2,0,0,0-.46,1.4V41.06a2,2,0,0,0,.46,1.4l.07.07L32.9,30.15v-.29L20.51,17.47Z" style="fill:url(#linear-gradient)"/><path d="M37,34.28,32.9,30.15v-.29L37,25.72l.09.05L42,28.56c1.4.79,1.4,2.09,0,2.89l-4.89,2.78Z" style="fill:url(#linear-gradient-2)"/><path d="M37.12,34.22,32.9,30,20.44,42.46a1.63,1.63,0,0,0,2.08.06l14.61-8.3" style="fill:url(#linear-gradient-3)"/><path d="M37.12,25.78l-14.61-8.3a1.63,1.63,0,0,0-2.08.06L32.9,30Z" style="fill:url(#linear-gradient-4)"/><path d="M37,34.13,22.51,42.38a1.67,1.67,0,0,1-2,0h0l-.07.07h0l.07.07h0a1.66,1.66,0,0,0,2,0l14.61-8.3Z" style="opacity:0.2;isolation:isolate"/><path d="M20.44,42.32a2,2,0,0,1-.46-1.4v.15a2,2,0,0,0,.46,1.4l.07-.07Z" style="opacity:0.12;isolation:isolate"/><path d="M42,31.3l-5,2.83.09.09L42,31.44a1.75,1.75,0,0,0,1-1.44h0A1.86,1.86,0,0,1,42,31.3Z" style="opacity:0.12;isolation:isolate"/><path d="M22.51,17.62,42,28.7a1.86,1.86,0,0,1,1,1.3h0a1.75,1.75,0,0,0-1-1.44L22.51,17.48c-1.4-.79-2.54-.13-2.54,1.47v.15C20,17.49,21.12,16.83,22.51,17.62Z" style="fill:#fff;opacity:0.25;isolation:isolate"/></svg>