<svg xmlns="http://www.w3.org/2000/svg" xmlns:xlink="http://www.w3.org/1999/xlink" viewBox="0 0 155 60"><defs><linearGradient id="linear-gradient" x1="31.8" y1="43.29" x2="15.02" y2="26.51" gradientTransform="matrix(1, 0, 0, -1, 0, 62)" gradientUnits="userSpaceOnUse"><stop offset="0" stop-color="#00a0ff"/><stop offset="0.01" stop-color="#00a1ff"/><stop offset="0.26" stop-color="#00beff"/><stop offset="0.51" stop-color="#00d2ff"/><stop offset="0.76" stop-color="#00dfff"/><stop offset="1" stop-color="#00e3ff"/></linearGradient><linearGradient id="linear-gradient-2" x1="43.83" y1="32" x2="19.64" y2="32" gradientTransform="matrix(1, 0, 0, -1, 0, 62)" gradientUnits="userSpaceOnUse"><stop offset="0" stop-color="#ffe000"/><stop offset="0.41" stop-color="#ffbd00"/><stop offset="0.78" stop-color="orange"/><stop offset="1" stop-color="#ff9c00"/></linearGradient><linearGradient id="linear-gradient-3" x1="34.83" y1="29.7" x2="12.07" y2="6.95" gradientTransform="matrix(1, 0, 0, -1, 0, 62)" gradientUnits="userSpaceOnUse"><stop offset="0" stop-color="#ff3a44"/><stop offset="1" stop-color="#c31162"/></linearGradient><linearGradient id="linear-gradient-4" x1="17.3" y1="51.82" x2="27.46" y2="41.66" gradientTransform="matrix(1, 0, 0, -1, 0, 62)" gradientUnits="userSpaceOnUse"><stop offset="0" stop-color="#32a071"/><stop offset="0.07" stop-color="#2da771"/><stop offset="0.48" stop-color="#15cf74"/><stop offset="0.8" stop-color="#06e775"/><stop offset="1" stop-color="#00f076"/></linearGradient></defs><title>ja_get</title><g id="artwork"><rect width="155" height="60" style="fill:#fff;fill-opacity:0"/><rect x="10" y="10" width="135" height="40" rx="5" ry="5"/><path d="M140,10.8a4.2,4.2,0,0,1,4.2,4.2V45a4.2,4.2,0,0,1-4.2,4.2H15A4.2,4.2,0,0,1,10.8,45V15A4.2,4.2,0,0,1,15,10.8H140m0-.8H15a5,5,0,0,0-5,5V45a5,5,0,0,0,5,5H140a5,5,0,0,0,5-5V15a5,5,0,0,0-5-5Z" style="fill:#a6a6a6"/><path d="M74.72,22.79a3.72,3.72,0,1,0,3.73,3.72A3.66,3.66,0,0,0,74.72,22.79Zm0,6a2.26,2.26,0,1,1,2.1-2.25A2.15,2.15,0,0,1,74.72,28.76Zm-8.14-6a3.72,3.72,0,1,0,3.73,3.72A3.66,3.66,0,0,0,66.58,22.79Zm0,6a2.26,2.26,0,1,1,2.1-2.25A2.15,2.15,0,0,1,66.58,28.76ZM56.9,23.93v1.58h3.77a3.29,3.29,0,0,1-.86,2,3.86,3.86,0,0,1-2.91,1.15,4.2,4.2,0,0,1,0-8.39,4,4,0,0,1,2.84,1.13l1.11-1.11a5.5,5.5,0,0,0-4-1.59,5.77,5.77,0,1,0,0,11.55,5.28,5.28,0,0,0,4-1.62,5.21,5.21,0,0,0,1.37-3.69,5.14,5.14,0,0,0-.08-1Zm39.6,1.23a3.46,3.46,0,0,0-3.18-2.37,3.53,3.53,0,0,0-3.51,3.72,3.64,3.64,0,0,0,3.69,3.72,3.7,3.7,0,0,0,3.1-1.65l-1.27-.84a2.12,2.12,0,0,1-1.83,1,1.89,1.89,0,0,1-1.8-1.13l5-2.06ZM91.43,26.4a2,2,0,0,1,1.94-2.17,1.44,1.44,0,0,1,1.38.79Zm-4,3.61H89V19.07H87.39Zm-2.68-6.38h-.06a2.58,2.58,0,0,0-2-.83,3.72,3.72,0,0,0,0,7.44,2.53,2.53,0,0,0,2-.84h.06v.54c0,1.42-.76,2.18-2,2.18a2.06,2.06,0,0,1-1.87-1.32l-1.42.59a3.54,3.54,0,0,0,3.3,2.2c1.92,0,3.53-1.13,3.53-3.87V23H84.72Zm-1.87,5.14a2.26,2.26,0,0,1,0-4.51,2.1,2.1,0,0,1,2,2.27A2.08,2.08,0,0,1,82.84,28.76Zm21.31-9.69h-3.91V30h1.63V25.86h2.28a3.4,3.4,0,1,0,0-6.79Zm0,5.27h-2.32V20.59h2.32a1.87,1.87,0,1,1,0,3.75Zm10.08-1.57a3.06,3.06,0,0,0-2.91,1.67l1.45.6a1.55,1.55,0,0,1,1.49-.8A1.57,1.57,0,0,1,116,25.65v.11a3.61,3.61,0,0,0-1.7-.42c-1.56,0-3.15.86-3.15,2.46a2.52,2.52,0,0,0,2.71,2.4A2.3,2.3,0,0,0,116,29.14H116V30h1.57V25.79C117.59,23.85,116.15,22.77,114.28,22.77Zm-.2,6c-.53,0-1.28-.27-1.28-.93,0-.84.93-1.17,1.73-1.17A2.91,2.91,0,0,1,116,27,2,2,0,0,1,114.08,28.76ZM123.33,23l-1.87,4.74h-.06L119.46,23h-1.76l2.91,6.62L119,33.31h1.7L125.14,23Zm-14.69,7h1.63V19.07h-1.63Z" style="fill:#fff"/><path d="M20.44,17.54a2,2,0,0,0-.46,1.4V41.06a2,2,0,0,0,.46,1.4l.07.07L32.9,30.15v-.29L20.51,17.47Z" style="fill:url(#linear-gradient)"/><path d="M37,34.28,32.9,30.15v-.29L37,25.72l.09.05L42,28.56c1.4.79,1.4,2.09,0,2.89l-4.89,2.78Z" style="fill:url(#linear-gradient-2)"/><path d="M37.12,34.22,32.9,30,20.44,42.46a1.63,1.63,0,0,0,2.08.06l14.61-8.3" style="fill:url(#linear-gradient-3)"/><path d="M37.12,25.78l-14.61-8.3a1.63,1.63,0,0,0-2.08.06L32.9,30Z" style="fill:url(#linear-gradient-4)"/><path d="M37,34.13,22.51,42.38a1.67,1.67,0,0,1-2,0h0l-.07.07h0l.07.07h0a1.66,1.66,0,0,0,2,0l14.61-8.3Z" style="opacity:0.2;isolation:isolate"/><path d="M20.44,42.32a2,2,0,0,1-.46-1.4v.15a2,2,0,0,0,.46,1.4l.07-.07Z" style="opacity:0.12;isolation:isolate"/><path d="M42,31.3l-5,2.83.09.09L42,31.44a1.75,1.75,0,0,0,1-1.44h0A1.86,1.86,0,0,1,42,31.3Z" style="opacity:0.12;isolation:isolate"/><path d="M22.51,17.62,42,28.7a1.86,1.86,0,0,1,1,1.3h0a1.75,1.75,0,0,0-1-1.44L22.51,17.48c-1.4-.79-2.54-.13-2.54,1.47v.15C20,17.49,21.12,16.83,22.51,17.62Z" style="fill:#fff;opacity:0.25;isolation:isolate"/></g><g id="Layer_3" data-name="Layer 3"><path d="M51.8,37l3.91-.36c1-.08,1.81-.13,2.4-.15v.72a7.35,7.35,0,0,0-1.75.14,3.12,3.12,0,0,0-2,2.82c0,1.74,1.62,2.29,3.07,2.34l-.26.76c-1.65-.07-3.53-1-3.53-2.94a3.6,3.6,0,0,1,1.66-3c-.78.09-3.21.32-4.18.52L51,37.07C51.35,37.06,51.63,37,51.8,37Zm5.79,2.55-.46.22a8.39,8.39,0,0,0-.74-1.27l.46-.2A10.72,10.72,0,0,1,57.59,39.58Zm1-.39-.47.22a8,8,0,0,0-.77-1.25l.45-.21A13.5,13.5,0,0,1,58.62,39.19Z" style="fill:#fff;stroke:#fff;stroke-miterlimit:10;stroke-width:0.2px"/><path d="M67.56,40.76H63.86v2c0,.48-.14.68-.48.78a7,7,0,0,1-1.85.12,3.33,3.33,0,0,0-.29-.67c.76,0,1.46,0,1.67,0s.28-.06.28-.25v-2h-3.7V40.1h3.7V38.64h-3.1V38h3.1V36.61c-1,.11-2,.17-2.94.22a3,3,0,0,0-.17-.59,29.9,29.9,0,0,0,6.09-.76l.5.53a16.9,16.9,0,0,1-2.81.53V38h3.19v.64H63.86V40.1h3.69Z" style="fill:#fff;stroke:#fff;stroke-miterlimit:10;stroke-width:0.2px"/><path d="M70.3,36.25c-.05.15-.14.44-.17.6a20.52,20.52,0,0,0-.43,3.41,9.29,9.29,0,0,0,.07,1.22c.15-.41.35-.93.5-1.28l.39.29a19.43,19.43,0,0,0-.63,2,2.23,2.23,0,0,0,0,.4l0,.31-.65,0A11.15,11.15,0,0,1,69,40.39a24.79,24.79,0,0,1,.4-3.57,5.26,5.26,0,0,0,.06-.63Zm2,4.32a3.31,3.31,0,0,0-.12.82c0,.41.27.8,1.49.8A9.69,9.69,0,0,0,75.92,42v.76a11.81,11.81,0,0,1-2.22.18c-1.49,0-2.16-.5-2.16-1.33a5.16,5.16,0,0,1,.14-1.05ZM72,36.93a15.59,15.59,0,0,0,3.66,0v.74a22.62,22.62,0,0,1-3.66,0Z" style="fill:#fff;stroke:#fff;stroke-miterlimit:10;stroke-width:0.2px"/><path d="M81.67,36A7.71,7.71,0,0,0,85.4,43.1a3.19,3.19,0,0,0-.54.56,7.77,7.77,0,0,1-3.57-5,8,8,0,0,1-3.59,5,4.36,4.36,0,0,0-.6-.53c2-1,3.1-2.85,3.65-5.37l.4.06c-.06-.41-.1-.81-.12-1.15H78.8V36Z" style="fill:#fff;stroke:#fff;stroke-miterlimit:10;stroke-width:0.2px"/><path d="M94.17,42.28a2.28,2.28,0,0,1-1.64.75c-.59,0-1-.4-1-1.13,0-1,.33-2.46.33-3.32a.64.64,0,0,0-.71-.73,4.83,4.83,0,0,0-2.62,1.72c0,.38,0,.73,0,1,0,.81,0,1.35,0,2.15,0,.15,0,.38,0,.54h-.78c0-.13,0-.39,0-.53,0-.86,0-1.3,0-2.29,0-.09,0-.21,0-.34-.43.66-1,1.51-1.45,2.11L86,41.62c.5-.62,1.52-2,2-2.71l.05-.86-1.74.23-.07-.75a4.06,4.06,0,0,0,.58,0c.29,0,.81-.07,1.27-.14,0-.42,0-.74,0-.84a3.31,3.31,0,0,0,0-.67l.86,0c0,.22-.12.72-.18,1.34l0,0,.26.32-.4.62c0,.16,0,.33,0,.5a5,5,0,0,1,2.73-1.49,1.12,1.12,0,0,1,1.26,1.2c0,.89-.33,2.43-.33,3.33,0,.31.14.54.46.54a2,2,0,0,0,1.34-.74Z" style="fill:#fff;stroke:#fff;stroke-miterlimit:10;stroke-width:0.2px"/><path d="M99.19,38.47c0,.58,0,1.45.09,2.22a7.07,7.07,0,0,1,2.77,1.52l-.43.67a6.23,6.23,0,0,0-2.31-1.47c0,.23,0,.43,0,.59,0,.73-.45,1.36-1.64,1.36S95.55,43,95.55,42c0-.8.7-1.47,2.24-1.47a5.32,5.32,0,0,1,.76.05c0-.72-.07-1.54-.07-2.07s0-1.25,0-1.63A6.68,6.68,0,0,0,98.4,36h.86a7.71,7.71,0,0,0-.07.88c0,.24,0,.56,0,.91.71,0,1.84-.06,2.64-.17l0,.68c-.79.07-1.94.13-2.66.14Zm-.61,2.75a4,4,0,0,0-.87-.09c-.92,0-1.44.31-1.44.8s.5.77,1.35.77c.66,0,1-.31,1-.92C98.59,41.63,98.58,41.44,98.58,41.21Z" style="fill:#fff;stroke:#fff;stroke-miterlimit:10;stroke-width:0.2px"/><path d="M107.41,38.7a8.3,8.3,0,0,0-2.43.46c-.27.07-.53.18-.75.26l-.23-.83c.24,0,.55-.08.81-.13a11.84,11.84,0,0,1,2.66-.43,2,2,0,0,1,2.21,2c0,1.94-1.72,3-4,3.38l-.42-.68c2.16-.27,3.69-1.12,3.69-2.72A1.34,1.34,0,0,0,107.41,38.7ZM109,36.38l-.11.69c-1-.06-2.79-.24-3.8-.42l.12-.68A23.8,23.8,0,0,0,109,36.38Z" style="fill:#fff;stroke:#fff;stroke-miterlimit:10;stroke-width:0.2px"/></g></svg>