<svg id="artwork" xmlns="http://www.w3.org/2000/svg" xmlns:xlink="http://www.w3.org/1999/xlink" viewBox="0 0 155 60"><defs><linearGradient id="linear-gradient" x1="31.8" y1="-96.71" x2="15.02" y2="-113.49" gradientTransform="matrix(1, 0, 0, -1, 0, -78)" gradientUnits="userSpaceOnUse"><stop offset="0" stop-color="#00a0ff"/><stop offset="0.01" stop-color="#00a1ff"/><stop offset="0.26" stop-color="#00beff"/><stop offset="0.51" stop-color="#00d2ff"/><stop offset="0.76" stop-color="#00dfff"/><stop offset="1" stop-color="#00e3ff"/></linearGradient><linearGradient id="linear-gradient-2" x1="43.83" y1="-108" x2="19.64" y2="-108" gradientTransform="matrix(1, 0, 0, -1, 0, -78)" gradientUnits="userSpaceOnUse"><stop offset="0" stop-color="#ffe000"/><stop offset="0.41" stop-color="#ffbd00"/><stop offset="0.78" stop-color="orange"/><stop offset="1" stop-color="#ff9c00"/></linearGradient><linearGradient id="linear-gradient-3" x1="34.83" y1="-110.3" x2="12.07" y2="-133.05" gradientTransform="matrix(1, 0, 0, -1, 0, -78)" gradientUnits="userSpaceOnUse"><stop offset="0" stop-color="#ff3a44"/><stop offset="1" stop-color="#c31162"/></linearGradient><linearGradient id="linear-gradient-4" x1="17.3" y1="-88.18" x2="27.46" y2="-98.34" gradientTransform="matrix(1, 0, 0, -1, 0, -78)" gradientUnits="userSpaceOnUse"><stop offset="0" stop-color="#32a071"/><stop offset="0.07" stop-color="#2da771"/><stop offset="0.48" stop-color="#15cf74"/><stop offset="0.8" stop-color="#06e775"/><stop offset="1" stop-color="#00f076"/></linearGradient></defs><title>gl_get</title><rect width="155" height="60" style="fill:#fff;fill-opacity:0"/><rect x="10" y="10" width="135" height="40" rx="5" ry="5"/><path d="M140,10.8a4.2,4.2,0,0,1,4.2,4.2V45a4.2,4.2,0,0,1-4.2,4.2H15A4.2,4.2,0,0,1,10.8,45V15A4.2,4.2,0,0,1,15,10.8H140m0-.8H15a5,5,0,0,0-5,5V45a5,5,0,0,0,5,5H140a5,5,0,0,0,5-5V15a5,5,0,0,0-5-5Z" style="fill:#a6a6a6"/><path d="M74.72,26.79a3.72,3.72,0,1,0,3.73,3.72A3.66,3.66,0,0,0,74.72,26.79Zm0,6a2.26,2.26,0,1,1,2.1-2.25A2.15,2.15,0,0,1,74.72,32.76Zm-8.14-6a3.72,3.72,0,1,0,3.73,3.72A3.66,3.66,0,0,0,66.58,26.79Zm0,6a2.26,2.26,0,1,1,2.1-2.25A2.15,2.15,0,0,1,66.58,32.76ZM56.9,27.93v1.58h3.77a3.29,3.29,0,0,1-.86,2,3.86,3.86,0,0,1-2.91,1.15,4.2,4.2,0,0,1,0-8.39,4,4,0,0,1,2.84,1.13l1.11-1.11a5.5,5.5,0,0,0-4-1.59,5.77,5.77,0,1,0,0,11.55,5.28,5.28,0,0,0,4-1.62,5.21,5.21,0,0,0,1.37-3.69,5.14,5.14,0,0,0-.08-1Zm39.6,1.23a3.46,3.46,0,0,0-3.18-2.37,3.53,3.53,0,0,0-3.51,3.72,3.64,3.64,0,0,0,3.69,3.72,3.7,3.7,0,0,0,3.1-1.65l-1.27-.84a2.12,2.12,0,0,1-1.83,1,1.89,1.89,0,0,1-1.8-1.13l5-2.06ZM91.43,30.4a2,2,0,0,1,1.94-2.17,1.44,1.44,0,0,1,1.38.79Zm-4,3.61H89V23.07H87.39Zm-2.68-6.38h-.06a2.58,2.58,0,0,0-2-.83,3.72,3.72,0,0,0,0,7.44,2.53,2.53,0,0,0,2-.84h.06v.54c0,1.42-.76,2.18-2,2.18a2.06,2.06,0,0,1-1.87-1.32l-1.42.59a3.54,3.54,0,0,0,3.3,2.2c1.92,0,3.53-1.13,3.53-3.87V27H84.72Zm-1.87,5.14a2.26,2.26,0,0,1,0-4.51,2.1,2.1,0,0,1,2,2.27A2.08,2.08,0,0,1,82.84,32.76Zm21.31-9.69h-3.91V34h1.63V29.86h2.28a3.4,3.4,0,1,0,0-6.79Zm0,5.27h-2.32V24.59h2.32a1.87,1.87,0,1,1,0,3.75Zm10.08-1.57a3.06,3.06,0,0,0-2.91,1.67l1.45.6a1.55,1.55,0,0,1,1.49-.8A1.57,1.57,0,0,1,116,29.65v.11a3.61,3.61,0,0,0-1.7-.42c-1.56,0-3.15.86-3.15,2.46a2.52,2.52,0,0,0,2.71,2.4A2.3,2.3,0,0,0,116,33.14H116V34h1.57V29.79C117.59,27.85,116.15,26.77,114.28,26.77Zm-.2,6c-.53,0-1.28-.27-1.28-.93,0-.84.93-1.17,1.73-1.17A2.9,2.9,0,0,1,116,31,2,2,0,0,1,114.08,32.76ZM123.33,27l-1.87,4.74h-.06L119.46,27h-1.76l2.91,6.62L119,37.31h1.7L125.14,27Zm-14.69,7h1.63V23.07h-1.63Z" style="fill:#fff"/><path d="M20.44,17.54a2,2,0,0,0-.46,1.4V41.06a2,2,0,0,0,.46,1.4l.07.07L32.9,30.15v-.29L20.51,17.47Z" style="fill:url(#linear-gradient)"/><path d="M37,34.28,32.9,30.15v-.29L37,25.72l.09.05L42,28.56c1.4.79,1.4,2.09,0,2.89l-4.89,2.78Z" style="fill:url(#linear-gradient-2)"/><path d="M37.12,34.22,32.9,30,20.44,42.46a1.63,1.63,0,0,0,2.08.06l14.61-8.3" style="fill:url(#linear-gradient-3)"/><path d="M37.12,25.78l-14.61-8.3a1.63,1.63,0,0,0-2.08.06L32.9,30Z" style="fill:url(#linear-gradient-4)"/><path d="M37,34.13,22.51,42.38a1.67,1.67,0,0,1-2,0h0l-.07.07h0l.07.07h0a1.66,1.66,0,0,0,2,0l14.61-8.3Z" style="opacity:0.2;isolation:isolate"/><path d="M20.44,42.32a2,2,0,0,1-.46-1.4v.15a2,2,0,0,0,.46,1.4l.07-.07Z" style="opacity:0.12;isolation:isolate"/><path d="M42,31.3l-5,2.83.09.09L42,31.44a1.75,1.75,0,0,0,1-1.44h0A1.86,1.86,0,0,1,42,31.3Z" style="opacity:0.12;isolation:isolate"/><path d="M22.51,17.62,42,28.7a1.86,1.86,0,0,1,1,1.3h0a1.75,1.75,0,0,0-1-1.44L22.51,17.48c-1.4-.79-2.54-.13-2.54,1.47v.15C20,17.49,21.12,16.83,22.51,17.62Z" style="fill:#fff;opacity:0.25;isolation:isolate"/><path d="M51.08,15a2.28,2.28,0,0,1,.32-1.32,1.15,1.15,0,0,1,1-.45,1.24,1.24,0,0,1,.86.29,1,1,0,0,1,.32.76,1,1,0,0,1-.43.91,2.35,2.35,0,0,1-1.34.3v.4a4.26,4.26,0,0,1,0,.64h0a1.39,1.39,0,0,1,.58-.52,1.86,1.86,0,0,1,.84-.19,1.81,1.81,0,0,1,1.4.51,2.09,2.09,0,0,1,.47,1.46,3.36,3.36,0,0,1-.18,1.08,2.59,2.59,0,0,1-.45.85h-.8a2.84,2.84,0,0,0,.66-1.87q0-1.42-1.19-1.42a1.29,1.29,0,0,0-1,.36,1.77,1.77,0,0,0-.32,1.18v1.75h-.75Zm1.34-1.16A.47.47,0,0,0,52,14a1.9,1.9,0,0,0-.14.83,1.69,1.69,0,0,0,.81-.15.51.51,0,0,0,.26-.48.42.42,0,0,0-.13-.32A.49.49,0,0,0,52.41,13.8Z" style="fill:#fff"/><path d="M58.1,15.13v.21a.75.75,0,0,0,.16.47,2.72,2.72,0,0,0,.56.49,3.43,3.43,0,0,1,.61.51,1.62,1.62,0,0,1,.29.48,1.64,1.64,0,0,1,.1.59,1.76,1.76,0,0,1-.57,1.37,2.19,2.19,0,0,1-1.52.51,2.23,2.23,0,0,1-1.51-.47A1.65,1.65,0,0,1,55.67,18a3.16,3.16,0,0,1,.07-.67h.79a2.26,2.26,0,0,0-.1.68,1.11,1.11,0,0,0,.32.86,1.4,1.4,0,0,0,1,.3,1.36,1.36,0,0,0,1-.32,1.15,1.15,0,0,0,.35-.9,1,1,0,0,0-.18-.57,2.55,2.55,0,0,0-.61-.6,2.74,2.74,0,0,1-.71-.69,1.43,1.43,0,0,1-.19-.76v-.18Z" style="fill:#fff"/><path d="M62.42,13.81a1.05,1.05,0,0,0-.68.2.66.66,0,0,0-.25.55l0,.15h-.74a1.47,1.47,0,0,1,0-.21,1.14,1.14,0,0,1,.22-.67,1.44,1.44,0,0,1,.6-.48,2.12,2.12,0,0,1,.88-.17,1.75,1.75,0,0,1,1.55.87,4.64,4.64,0,0,1,.56,2.49A4.4,4.4,0,0,1,64,19a1.84,1.84,0,0,1-1.65.8,1.81,1.81,0,0,1-1.46-.62,2.61,2.61,0,0,1-.53-1.74,2.67,2.67,0,0,1,.51-1.73,1.72,1.72,0,0,1,1.4-.62,1.56,1.56,0,0,1,1.4.64h0Q63.49,13.81,62.42,13.81Zm0,5.34a1.12,1.12,0,0,0,.95-.47,2.15,2.15,0,0,0,.35-1.3q0-1.71-1.31-1.71a1.1,1.1,0,0,0-.94.44,2.14,2.14,0,0,0-.33,1.29,2.23,2.23,0,0,0,.32,1.3A1.1,1.1,0,0,0,62.44,19.15Z" style="fill:#fff"/><path d="M69.87,15a1.51,1.51,0,0,1,1.28.61,2.75,2.75,0,0,1,.46,1.68,5.14,5.14,0,0,1-.13,1.19,6.22,6.22,0,0,1-.41,1.15h-.76a6.14,6.14,0,0,0,.42-1.16,5,5,0,0,0,.14-1.2,2.27,2.27,0,0,0-.28-1.25.88.88,0,0,0-.77-.42.89.89,0,0,0-.73.31,1.35,1.35,0,0,0-.26.89v.56h-.71v-.56a1.37,1.37,0,0,0-.25-.89.91.91,0,0,0-.75-.31.85.85,0,0,0-.76.42,2.34,2.34,0,0,0-.27,1.25,5,5,0,0,0,.14,1.23,5.81,5.81,0,0,0,.42,1.13h-.76a5.54,5.54,0,0,1-.42-1.15,5.33,5.33,0,0,1-.13-1.2,2.71,2.71,0,0,1,.47-1.69,1.53,1.53,0,0,1,1.28-.6,1.56,1.56,0,0,1,.86.22,1.33,1.33,0,0,1,.51.66h0a1.37,1.37,0,0,1,.52-.67A1.57,1.57,0,0,1,69.87,15Z" style="fill:#fff"/><path d="M77.92,18.38a4.36,4.36,0,0,1-.34,1.79,2.55,2.55,0,0,1-1,1.16,2.72,2.72,0,0,1-1.49.4A2.53,2.53,0,0,1,73,20.85a3.8,3.8,0,0,1-.72-2.48,4.41,4.41,0,0,1,.28-1.64,2.69,2.69,0,0,1,.83-1.15,2.5,2.5,0,0,1,1.3-.51V13.23h.75v1.83a2.42,2.42,0,0,1,1.78,1A3.83,3.83,0,0,1,77.92,18.38Zm-3.17-.72V15.71a1.69,1.69,0,0,0-1.23.82,3.54,3.54,0,0,0-.42,1.85,3.33,3.33,0,0,0,.52,2,2,2,0,0,0,3,0,3.33,3.33,0,0,0,.52-2,3.56,3.56,0,0,0-.42-1.86,1.68,1.68,0,0,0-1.23-.82v2Z" style="fill:#fff"/><path d="M80.25,21.1a1.26,1.26,0,0,0,1-.37,1.46,1.46,0,0,0,.34-1q0-1.33-1.61-1.33h-.58v-.63h.58a1.7,1.7,0,0,0,1-.27.91.91,0,0,0,.36-.78,1,1,0,0,0-.27-.76,1.1,1.1,0,0,0-.8-.27q-1,0-1,.89l0,.19h-.73a2,2,0,0,1,0-.24A1.32,1.32,0,0,1,79,15.44a2.37,2.37,0,0,1,2.65,0,1.4,1.4,0,0,1,.48,1.12,1.47,1.47,0,0,1-.27.91A1.59,1.59,0,0,1,81,18a1.79,1.79,0,0,1,1,.6,1.63,1.63,0,0,1,.36,1.06,2,2,0,0,1-.58,1.5,2.14,2.14,0,0,1-1.55.55,2.1,2.1,0,0,1-1.46-.45,1.68,1.68,0,0,1-.5-1.31,1.52,1.52,0,0,1,.08-.52h.76a1.07,1.07,0,0,0-.07.24,1.38,1.38,0,0,0,0,.27,1.1,1.1,0,0,0,.32.86A1.34,1.34,0,0,0,80.25,21.1Z" style="fill:#fff"/><path d="M82.91,17.41a2.51,2.51,0,0,1,.56-1.74A2,2,0,0,1,85,15a2,2,0,0,1,1.53.63,2.49,2.49,0,0,1,.57,1.72A4.76,4.76,0,0,1,87,18.67a3.23,3.23,0,0,1-.46,1h-.8a4,4,0,0,0,.66-2.28,2.07,2.07,0,0,0-.34-1.3,1.2,1.2,0,0,0-1-.44,1.17,1.17,0,0,0-1,.44,2.11,2.11,0,0,0-.34,1.3,4,4,0,0,0,.66,2.28h-.8a3.3,3.3,0,0,1-.45-1A4.59,4.59,0,0,1,82.91,17.41Z" style="fill:#fff"/><path d="M89.22,15.1a1.44,1.44,0,0,1,.44-.06,1.32,1.32,0,0,1,1.37.88h0a1.35,1.35,0,0,1,.52-.67,1.58,1.58,0,0,1,.84-.21,1.52,1.52,0,0,1,1.28.61,2.73,2.73,0,0,1,.46,1.68A5.14,5.14,0,0,1,94,18.53a6.22,6.22,0,0,1-.41,1.15h-.76a6.14,6.14,0,0,0,.42-1.16,5,5,0,0,0,.14-1.2,2.33,2.33,0,0,0-.27-1.23.86.86,0,0,0-.77-.44.89.89,0,0,0-.73.31,1.35,1.35,0,0,0-.26.89v.56h-.71v-.56a1.37,1.37,0,0,0-.25-.89.91.91,0,0,0-.75-.31.86.86,0,0,0-.75.41,2.29,2.29,0,0,0-.28,1.25,5,5,0,0,0,.14,1.23,5.81,5.81,0,0,0,.42,1.13h-.76A5.7,5.7,0,0,1,88,18.54a5,5,0,0,1-.12-1.13,5.07,5.07,0,0,1,.28-1.81A3.1,3.1,0,0,1,89,14.37a4.22,4.22,0,0,1,1.43-.8,9.18,9.18,0,0,1,2.09-.43l.08.65a7.16,7.16,0,0,0-2,.41,3.66,3.66,0,0,0-1.39.87Z" style="fill:#fff"/><path d="M98.45,17.35A3.07,3.07,0,0,1,98,19.16a1.53,1.53,0,0,1-1.32.61,1.5,1.5,0,0,1-1.3-.61,3,3,0,0,1-.44-1.79,2.84,2.84,0,0,1,.45-1.71,1.51,1.51,0,0,1,1.3-.62,1.6,1.6,0,0,1,.84.2,1.34,1.34,0,0,1,.52.67h0a1.37,1.37,0,0,1,.52-.67,1.57,1.57,0,0,1,.84-.21,1.51,1.51,0,0,1,1.28.61,2.75,2.75,0,0,1,.46,1.68,5.14,5.14,0,0,1-.13,1.19,6.22,6.22,0,0,1-.41,1.15H99.9a6.14,6.14,0,0,0,.42-1.16,5,5,0,0,0,.14-1.2,2.33,2.33,0,0,0-.27-1.22.86.86,0,0,0-.77-.44.83.83,0,0,0-.73.34,1.79,1.79,0,0,0-.23,1Zm-.75,0a2.84,2.84,0,0,0-.22-1.3.8.8,0,0,0-.77-.39.84.84,0,0,0-.76.44,2.45,2.45,0,0,0-.27,1.26,2.76,2.76,0,0,0,.25,1.32.82.82,0,0,0,.76.45.8.8,0,0,0,.76-.45A2.88,2.88,0,0,0,97.7,17.36Z" style="fill:#fff"/><path d="M103.79,21.73a2.14,2.14,0,0,1-1.55-.5,1.94,1.94,0,0,1-.52-1.46,2.1,2.1,0,0,1,.1-.71h.76a1.19,1.19,0,0,0-.09.32,2.47,2.47,0,0,0,0,.38,1.4,1.4,0,0,0,.33,1,1.35,1.35,0,0,0,1,.33,1.16,1.16,0,0,0,1-.47,2.74,2.74,0,0,0,.32-1.49V17.62a2.7,2.7,0,0,0-.32-1.49,1.18,1.18,0,0,0-1-.46A1,1,0,0,0,103,16a1.27,1.27,0,0,0-.29.89,2,2,0,0,0,0,.32H102a2.4,2.4,0,0,1,0-.34,1.91,1.91,0,0,1,.23-.95,1.59,1.59,0,0,1,.66-.65,2,2,0,0,1,1-.23q2.08,0,2.08,2.57v1.5a3.08,3.08,0,0,1-.53,2A1.91,1.91,0,0,1,103.79,21.73Z" style="fill:#fff"/><path d="M110.3,17.35a3.07,3.07,0,0,1-.44,1.81,1.53,1.53,0,0,1-1.32.61,1.5,1.5,0,0,1-1.3-.61,3,3,0,0,1-.44-1.79,2.84,2.84,0,0,1,.45-1.71,1.51,1.51,0,0,1,1.3-.62,1.6,1.6,0,0,1,.84.2,1.34,1.34,0,0,1,.52.67h0a1.37,1.37,0,0,1,.52-.67,1.57,1.57,0,0,1,.84-.21,1.51,1.51,0,0,1,1.28.61,2.75,2.75,0,0,1,.46,1.68,5.14,5.14,0,0,1-.13,1.19,6.22,6.22,0,0,1-.41,1.15h-.76a6.14,6.14,0,0,0,.42-1.16,5,5,0,0,0,.14-1.2,2.33,2.33,0,0,0-.27-1.22.86.86,0,0,0-.77-.44.83.83,0,0,0-.73.34,1.79,1.79,0,0,0-.23,1Zm-.75,0a2.84,2.84,0,0,0-.22-1.3.8.8,0,0,0-.77-.39.84.84,0,0,0-.76.44,2.45,2.45,0,0,0-.27,1.26,2.76,2.76,0,0,0,.25,1.32.82.82,0,0,0,.76.45.8.8,0,0,0,.76-.45A2.88,2.88,0,0,0,109.55,17.36Z" style="fill:#fff"/><path d="M51.15,42.87v-.7h2.18v.7Z" style="fill:#fff"/><path d="M54.71,42.48a3,3,0,0,1,.48-1.81A1.6,1.6,0,0,1,56.55,40a1.39,1.39,0,0,1,1.45.93h0a1.56,1.56,0,0,1,.56-.71,1.62,1.62,0,0,1,.89-.22,1.6,1.6,0,0,1,1.36.66,3,3,0,0,1,.49,1.81,3.21,3.21,0,0,1-.47,1.88A1.59,1.59,0,0,1,59.5,45a1.62,1.62,0,0,1-1.4-.65,3.24,3.24,0,0,1-.47-1.91V42.1A2,2,0,0,0,57.39,41a.86.86,0,0,0-.78-.37.91.91,0,0,0-.82.47,2.57,2.57,0,0,0-.29,1.34,3.77,3.77,0,0,0,.2,1.33,2.22,2.22,0,0,0,.61.88,3,3,0,0,0,1.09.58,6.62,6.62,0,0,1,1,.39,2.35,2.35,0,0,1,1.11,1.08l-.63.35a1.91,1.91,0,0,0-.79-.81,2.3,2.3,0,0,0-1.17-.3,2.92,2.92,0,0,0-.75.09,3.91,3.91,0,0,0-.78.33l-.28-.64a4.4,4.4,0,0,1,.5-.21,5.53,5.53,0,0,1,.64-.16,2.86,2.86,0,0,1-1.13-1.15A3.72,3.72,0,0,1,54.71,42.48Zm3.72,0a3,3,0,0,0,.26,1.42.85.85,0,0,0,.8.47.87.87,0,0,0,.8-.48,2.91,2.91,0,0,0,.27-1.4,2.65,2.65,0,0,0-.28-1.34.85.85,0,0,0-.76-.46.91.91,0,0,0-.84.41A2.79,2.79,0,0,0,58.42,42.46Z" style="fill:#fff"/><path d="M64.51,40.1v.22a.79.79,0,0,0,.17.5,2.86,2.86,0,0,0,.59.52,3.65,3.65,0,0,1,.64.54,1.72,1.72,0,0,1,.3.51,1.74,1.74,0,0,1,.11.62,1.86,1.86,0,0,1-.6,1.45,2.31,2.31,0,0,1-1.61.54,2.36,2.36,0,0,1-1.6-.5,1.75,1.75,0,0,1-.58-1.4,3.33,3.33,0,0,1,.08-.71h.84a2.34,2.34,0,0,0-.1.72,1.18,1.18,0,0,0,.34.91,1.48,1.48,0,0,0,1,.32,1.44,1.44,0,0,0,1-.34,1.22,1.22,0,0,0,.37-1,1.1,1.1,0,0,0-.19-.6,2.69,2.69,0,0,0-.64-.63,2.87,2.87,0,0,1-.75-.74,1.51,1.51,0,0,1-.2-.8V40.1Z" style="fill:#fff"/><path d="M69.47,38.75a1.39,1.39,0,0,0-1.12.46,3,3,0,0,0-.54,1.53h0a1.64,1.64,0,0,1,.62-.55,2,2,0,0,1,.86-.17,1.93,1.93,0,0,1,1.55.65,2.77,2.77,0,0,1,.55,1.84,2.67,2.67,0,0,1-.59,1.86A2.14,2.14,0,0,1,69.2,45a2.18,2.18,0,0,1-1.29-.34,2,2,0,0,1-.7-1.06A6.08,6.08,0,0,1,67,41.83a5.26,5.26,0,0,1,.6-2.79,2,2,0,0,1,1.78-.95h1.56v.66Zm-.24,1.92a1.29,1.29,0,0,0-1.06.45,2,2,0,0,0-.37,1.3,2.41,2.41,0,0,0,.36,1.44,1.21,1.21,0,0,0,1,.49,1.25,1.25,0,0,0,1.06-.47,2.25,2.25,0,0,0,.36-1.39,2.23,2.23,0,0,0-.35-1.36A1.24,1.24,0,0,0,69.22,40.68Z" style="fill:#fff"/></svg>