<svg xmlns="http://www.w3.org/2000/svg" xmlns:xlink="http://www.w3.org/1999/xlink" viewBox="0 0 155 60"><defs><linearGradient id="linear-gradient" x1="31.8" y1="43.29" x2="15.02" y2="26.51" gradientTransform="matrix(1, 0, 0, -1, 0, 62)" gradientUnits="userSpaceOnUse"><stop offset="0" stop-color="#00a0ff"/><stop offset="0.01" stop-color="#00a1ff"/><stop offset="0.26" stop-color="#00beff"/><stop offset="0.51" stop-color="#00d2ff"/><stop offset="0.76" stop-color="#00dfff"/><stop offset="1" stop-color="#00e3ff"/></linearGradient><linearGradient id="linear-gradient-2" x1="43.83" y1="32" x2="19.64" y2="32" gradientTransform="matrix(1, 0, 0, -1, 0, 62)" gradientUnits="userSpaceOnUse"><stop offset="0" stop-color="#ffe000"/><stop offset="0.41" stop-color="#ffbd00"/><stop offset="0.78" stop-color="orange"/><stop offset="1" stop-color="#ff9c00"/></linearGradient><linearGradient id="linear-gradient-3" x1="34.83" y1="29.7" x2="12.07" y2="6.95" gradientTransform="matrix(1, 0, 0, -1, 0, 62)" gradientUnits="userSpaceOnUse"><stop offset="0" stop-color="#ff3a44"/><stop offset="1" stop-color="#c31162"/></linearGradient><linearGradient id="linear-gradient-4" x1="17.3" y1="51.82" x2="27.46" y2="41.66" gradientTransform="matrix(1, 0, 0, -1, 0, 62)" gradientUnits="userSpaceOnUse"><stop offset="0" stop-color="#32a071"/><stop offset="0.07" stop-color="#2da771"/><stop offset="0.48" stop-color="#15cf74"/><stop offset="0.8" stop-color="#06e775"/><stop offset="1" stop-color="#00f076"/></linearGradient></defs><title>kk_get</title><g id="artwork"><rect width="155" height="60" style="fill:#fff;fill-opacity:0"/><rect x="10" y="10" width="135" height="40" rx="5" ry="5"/><path d="M140,10.8a4.2,4.2,0,0,1,4.2,4.2V45a4.2,4.2,0,0,1-4.2,4.2H15A4.2,4.2,0,0,1,10.8,45V15A4.2,4.2,0,0,1,15,10.8H140m0-.8H15a5,5,0,0,0-5,5V45a5,5,0,0,0,5,5H140a5,5,0,0,0,5-5V15a5,5,0,0,0-5-5Z" style="fill:#a6a6a6"/><path d="M74.72,22.79a3.72,3.72,0,1,0,3.73,3.72A3.66,3.66,0,0,0,74.72,22.79Zm0,6a2.26,2.26,0,1,1,2.1-2.25A2.15,2.15,0,0,1,74.72,28.76Zm-8.14-6a3.72,3.72,0,1,0,3.73,3.72A3.66,3.66,0,0,0,66.58,22.79Zm0,6a2.26,2.26,0,1,1,2.1-2.25A2.15,2.15,0,0,1,66.58,28.76ZM56.9,23.93v1.58h3.77a3.29,3.29,0,0,1-.86,2,3.86,3.86,0,0,1-2.91,1.15,4.2,4.2,0,0,1,0-8.39,4,4,0,0,1,2.84,1.13l1.11-1.11a5.5,5.5,0,0,0-4-1.59,5.77,5.77,0,1,0,0,11.55,5.28,5.28,0,0,0,4-1.62,5.21,5.21,0,0,0,1.37-3.69,5.14,5.14,0,0,0-.08-1Zm39.6,1.23a3.46,3.46,0,0,0-3.18-2.37,3.53,3.53,0,0,0-3.51,3.72,3.64,3.64,0,0,0,3.69,3.72,3.7,3.7,0,0,0,3.1-1.65l-1.27-.84a2.12,2.12,0,0,1-1.83,1,1.89,1.89,0,0,1-1.8-1.13l5-2.06ZM91.43,26.4a2,2,0,0,1,1.94-2.17,1.44,1.44,0,0,1,1.38.79Zm-4,3.61H89V19.07H87.39Zm-2.68-6.38h-.06a2.58,2.58,0,0,0-2-.83,3.72,3.72,0,0,0,0,7.44,2.53,2.53,0,0,0,2-.84h.06v.54c0,1.42-.76,2.18-2,2.18a2.06,2.06,0,0,1-1.87-1.32l-1.42.59a3.54,3.54,0,0,0,3.3,2.2c1.92,0,3.53-1.13,3.53-3.87V23H84.72Zm-1.87,5.14a2.26,2.26,0,0,1,0-4.51,2.1,2.1,0,0,1,2,2.27A2.08,2.08,0,0,1,82.84,28.76Zm21.31-9.69h-3.91V30h1.63V25.86h2.28a3.4,3.4,0,1,0,0-6.79Zm0,5.27h-2.32V20.59h2.32a1.87,1.87,0,1,1,0,3.75Zm10.08-1.57a3.06,3.06,0,0,0-2.91,1.67l1.45.6a1.55,1.55,0,0,1,1.49-.8A1.57,1.57,0,0,1,116,25.65v.11a3.61,3.61,0,0,0-1.7-.42c-1.56,0-3.15.86-3.15,2.46a2.52,2.52,0,0,0,2.71,2.4A2.3,2.3,0,0,0,116,29.14H116V30h1.57V25.79C117.59,23.85,116.15,22.77,114.28,22.77Zm-.2,6c-.53,0-1.28-.27-1.28-.93,0-.84.93-1.17,1.73-1.17A2.91,2.91,0,0,1,116,27,2,2,0,0,1,114.08,28.76ZM123.33,23l-1.87,4.74h-.06L119.46,23h-1.76l2.91,6.62L119,33.31h1.7L125.14,23Zm-14.69,7h1.63V19.07h-1.63Z" style="fill:#fff"/><path d="M20.44,17.54a2,2,0,0,0-.46,1.4V41.06a2,2,0,0,0,.46,1.4l.07.07L32.9,30.15v-.29L20.51,17.47Z" style="fill:url(#linear-gradient)"/><path d="M37,34.28,32.9,30.15v-.29L37,25.72l.09.05L42,28.56c1.4.79,1.4,2.09,0,2.89l-4.89,2.78Z" style="fill:url(#linear-gradient-2)"/><path d="M37.12,34.22,32.9,30,20.44,42.46a1.63,1.63,0,0,0,2.08.06l14.61-8.3" style="fill:url(#linear-gradient-3)"/><path d="M37.12,25.78l-14.61-8.3a1.63,1.63,0,0,0-2.08.06L32.9,30Z" style="fill:url(#linear-gradient-4)"/><path d="M37,34.13,22.51,42.38a1.67,1.67,0,0,1-2,0h0l-.07.07h0l.07.07h0a1.66,1.66,0,0,0,2,0l14.61-8.3Z" style="opacity:0.2;isolation:isolate"/><path d="M20.44,42.32a2,2,0,0,1-.46-1.4v.15a2,2,0,0,0,.46,1.4l.07-.07Z" style="opacity:0.12;isolation:isolate"/><path d="M42,31.3l-5,2.83.09.09L42,31.44a1.75,1.75,0,0,0,1-1.44h0A1.86,1.86,0,0,1,42,31.3Z" style="opacity:0.12;isolation:isolate"/><path d="M22.51,17.62,42,28.7a1.86,1.86,0,0,1,1,1.3h0a1.75,1.75,0,0,0-1-1.44L22.51,17.48c-1.4-.79-2.54-.13-2.54,1.47v.15C20,17.49,21.12,16.83,22.51,17.62Z" style="fill:#fff;opacity:0.25;isolation:isolate"/></g><g id="Layer_3" data-name="Layer 3"><path d="M55.73,43,55,41.18H52.68L52,43h-.75l2.3-5.91h.67L56.5,43Zm-.93-2.48-.66-1.78-.28-.88c-.08.32-.16.62-.25.88l-.67,1.78Z" style="fill:#fff;stroke:#fff;stroke-miterlimit:10;stroke-width:0.2px"/><path d="M61.32,38.84a1.65,1.65,0,0,1-.62,1.38,2.77,2.77,0,0,1-1.74.48h-.68V43h-.74V37.11h1.56Q61.32,37.11,61.32,38.84Zm-3,1.23h.59a2.22,2.22,0,0,0,1.27-.28,1,1,0,0,0,.39-.91,1,1,0,0,0-.37-.85A1.88,1.88,0,0,0,59,37.74h-.75Z" style="fill:#fff;stroke:#fff;stroke-miterlimit:10;stroke-width:0.2px"/><path d="M66.43,42.34h.76v2.21h-.71V43H66l-2.1-2.81-.6.53V43h-.74V37.11h.74V40l.51-.56,2.1-2.34h.87l-2.33,2.57Z" style="fill:#fff;stroke:#fff;stroke-miterlimit:10;stroke-width:0.2px"/><path d="M72.13,41.28a1.58,1.58,0,0,1-.53,1.28A2.36,2.36,0,0,1,70,43H68.3V37.11H69V39.6H70a2.64,2.64,0,0,1,1.62.42A1.47,1.47,0,0,1,72.13,41.28ZM69,42.37H70A1.65,1.65,0,0,0,71,42.1a1,1,0,0,0,.34-.82.89.89,0,0,0-.35-.78,2.06,2.06,0,0,0-1.14-.24H69Zm4.74.63H73V37.11h.75Z" style="fill:#fff;stroke:#fff;stroke-miterlimit:10;stroke-width:0.2px"/><path d="M79.87,43h-.74V37.76H77.26l-.12,1q-.25,2-.44,2.84a2.7,2.7,0,0,1-.49,1.19,1.06,1.06,0,0,1-.83.34,1.37,1.37,0,0,1-.54-.1v-.62a1,1,0,0,0,.46.1c.21,0,.38-.13.51-.4a8.45,8.45,0,0,0,.41-1.81q.22-1.41.44-3.15h3.22Z" style="fill:#fff;stroke:#fff;stroke-miterlimit:10;stroke-width:0.2px"/><path d="M85.36,41.28a1.58,1.58,0,0,1-.53,1.28,2.36,2.36,0,0,1-1.56.45H81.53V37.11h.74V39.6h.91A2.64,2.64,0,0,1,84.8,40,1.47,1.47,0,0,1,85.36,41.28Zm-3.09,1.1h.93a1.65,1.65,0,0,0,1.05-.27,1,1,0,0,0,.33-.82.89.89,0,0,0-.35-.78,2.06,2.06,0,0,0-1.14-.24h-.83ZM87,43h-.75V37.11H87Z" style="fill:#fff;stroke:#fff;stroke-miterlimit:10;stroke-width:0.2px"/><path d="M92.33,40,90,37.11h.82L93.11,40V37.11h.71V40l2.25-2.85h.82L94.62,40,97,43h-.85l-2.3-3v3h-.71V40l-2.31,3H90Z" style="fill:#fff;stroke:#fff;stroke-miterlimit:10;stroke-width:0.2px"/><path d="M99.91,40l1.54-2.9h.8l-2,3.61V43h-.75V40.75l-2-3.64h.81Z" style="fill:#fff;stroke:#fff;stroke-miterlimit:10;stroke-width:0.2px"/><path d="M107.58,43h-.89L104,40v3h-.74V37.11H104V40l2.6-2.85h.84L104.91,40Z" style="fill:#fff;stroke:#fff;stroke-miterlimit:10;stroke-width:0.2px"/><path d="M110.78,43H110V37.76H108.2v-.65h4.42v.65h-1.83Z" style="fill:#fff;stroke:#fff;stroke-miterlimit:10;stroke-width:0.2px"/><path d="M117,43h-3.29V37.11H117v.65h-2.55V39.6h2.4v.64h-2.4v2.1H117Z" style="fill:#fff;stroke:#fff;stroke-miterlimit:10;stroke-width:0.2px"/><path d="M122.82,42.34h.71v2.21h-.71V43h-.73V40.25h-3V43h-.74V37.11h.74V39.6h3V37.11h.73Z" style="fill:#fff;stroke:#fff;stroke-miterlimit:10;stroke-width:0.2px"/><path d="M126.56,43h-2.13v-.43l.69-.16V37.7l-.69-.17v-.43h2.13v.43l-.69.17v4.71l.69.16Z" style="fill:#fff;stroke:#fff;stroke-miterlimit:10;stroke-width:0.2px"/><path d="M131.5,38.49a1.27,1.27,0,0,1-.37.94,1.8,1.8,0,0,1-1,.47v0a2,2,0,0,1,1.13.46,1.24,1.24,0,0,1,.38.95,1.51,1.51,0,0,1-.62,1.29,2.9,2.9,0,0,1-1.75.46,3.94,3.94,0,0,1-1.72-.32v-.68a3.9,3.9,0,0,0,.86.29,4,4,0,0,0,.85.1,2,2,0,0,0,1.2-.3,1,1,0,0,0,.41-.85.87.87,0,0,0-.46-.8,2.69,2.69,0,0,0-1.36-.27h-.84v-.62h.8a2.36,2.36,0,0,0,1.31-.29.91.91,0,0,0,.43-.79.81.81,0,0,0-.32-.67,1.38,1.38,0,0,0-.86-.25,2.92,2.92,0,0,0-.83.11,3.12,3.12,0,0,0-.81.39l-.36-.5a3.33,3.33,0,0,1,2-.61,2.31,2.31,0,0,1,1.43.4A1.27,1.27,0,0,1,131.5,38.49Z" style="fill:#fff;stroke:#fff;stroke-miterlimit:10;stroke-width:0.2px"/></g></svg>