<svg id="artwork" xmlns="http://www.w3.org/2000/svg" xmlns:xlink="http://www.w3.org/1999/xlink" viewBox="0 0 155 60"><defs><linearGradient id="linear-gradient" x1="31.8" y1="183.29" x2="15.02" y2="166.51" gradientTransform="matrix(1, 0, 0, -1, 0, 202)" gradientUnits="userSpaceOnUse"><stop offset="0" stop-color="#00a0ff"/><stop offset="0.01" stop-color="#00a1ff"/><stop offset="0.26" stop-color="#00beff"/><stop offset="0.51" stop-color="#00d2ff"/><stop offset="0.76" stop-color="#00dfff"/><stop offset="1" stop-color="#00e3ff"/></linearGradient><linearGradient id="linear-gradient-2" x1="43.83" y1="172" x2="19.64" y2="172" gradientTransform="matrix(1, 0, 0, -1, 0, 202)" gradientUnits="userSpaceOnUse"><stop offset="0" stop-color="#ffe000"/><stop offset="0.41" stop-color="#ffbd00"/><stop offset="0.78" stop-color="orange"/><stop offset="1" stop-color="#ff9c00"/></linearGradient><linearGradient id="linear-gradient-3" x1="34.83" y1="169.7" x2="12.07" y2="146.95" gradientTransform="matrix(1, 0, 0, -1, 0, 202)" gradientUnits="userSpaceOnUse"><stop offset="0" stop-color="#ff3a44"/><stop offset="1" stop-color="#c31162"/></linearGradient><linearGradient id="linear-gradient-4" x1="17.3" y1="191.82" x2="27.46" y2="181.66" gradientTransform="matrix(1, 0, 0, -1, 0, 202)" gradientUnits="userSpaceOnUse"><stop offset="0" stop-color="#32a071"/><stop offset="0.07" stop-color="#2da771"/><stop offset="0.48" stop-color="#15cf74"/><stop offset="0.8" stop-color="#06e775"/><stop offset="1" stop-color="#00f076"/></linearGradient></defs><title>km_get</title><rect width="155" height="60" style="fill:#fff;fill-opacity:0"/><rect x="10" y="10" width="135" height="40" rx="5" ry="5"/><path d="M140,10.8a4.2,4.2,0,0,1,4.2,4.2V45a4.2,4.2,0,0,1-4.2,4.2H15A4.2,4.2,0,0,1,10.8,45V15A4.2,4.2,0,0,1,15,10.8H140m0-.8H15a5,5,0,0,0-5,5V45a5,5,0,0,0,5,5H140a5,5,0,0,0,5-5V15a5,5,0,0,0-5-5Z" style="fill:#a6a6a6"/><path d="M78.14,31.75A4.25,4.25,0,1,0,82.41,36,4.19,4.19,0,0,0,78.14,31.75Zm0,6.83A2.58,2.58,0,1,1,80.54,36,2.46,2.46,0,0,1,78.14,38.58Zm-9.31-6.83A4.25,4.25,0,1,0,73.09,36,4.19,4.19,0,0,0,68.82,31.75Zm0,6.83A2.58,2.58,0,1,1,71.22,36,2.46,2.46,0,0,1,68.82,38.58ZM57.74,33.06v1.8h4.32a3.77,3.77,0,0,1-1,2.27,4.42,4.42,0,0,1-3.33,1.32,4.8,4.8,0,0,1,0-9.6A4.6,4.6,0,0,1,61,30.14l1.27-1.27A6.29,6.29,0,0,0,57.74,27a6.61,6.61,0,1,0,0,13.21,6,6,0,0,0,4.61-1.85,6,6,0,0,0,1.56-4.22,5.87,5.87,0,0,0-.1-1.13Zm45.31,1.4a4,4,0,0,0-3.64-2.71,4,4,0,0,0-4,4.25,4.16,4.16,0,0,0,4.22,4.25,4.23,4.23,0,0,0,3.54-1.88l-1.45-1a2.43,2.43,0,0,1-2.09,1.18,2.16,2.16,0,0,1-2.06-1.29l5.69-2.35Zm-5.8,1.42a2.33,2.33,0,0,1,2.22-2.48,1.65,1.65,0,0,1,1.58.9ZM92.63,40H94.5V27.5H92.63Zm-3.06-7.3H89.5a3,3,0,0,0-2.24-1,4.26,4.26,0,0,0,0,8.51,2.9,2.9,0,0,0,2.24-1h.06v.61c0,1.63-.87,2.5-2.27,2.5a2.35,2.35,0,0,1-2.14-1.51l-1.63.68a4.05,4.05,0,0,0,3.77,2.51c2.19,0,4-1.29,4-4.43V32H89.57Zm-2.14,5.88a2.59,2.59,0,0,1,0-5.16A2.4,2.4,0,0,1,89.7,36,2.38,2.38,0,0,1,87.42,38.58ZM111.81,27.5h-4.47V40h1.87V35.26h2.61a3.89,3.89,0,1,0,0-7.76Zm0,6H109.2V29.24h2.65a2.14,2.14,0,1,1,0,4.29Zm11.53-1.8a3.5,3.5,0,0,0-3.33,1.91l1.66.69a1.77,1.77,0,0,1,1.7-.92,1.8,1.8,0,0,1,2,1.61v.13a4.13,4.13,0,0,0-1.95-.48c-1.79,0-3.6,1-3.6,2.81a2.89,2.89,0,0,0,3.1,2.75A2.63,2.63,0,0,0,125.32,39h.06v1h1.8V35.19C127.18,33,125.52,31.73,123.39,31.73Zm-.23,6.85c-.61,0-1.46-.31-1.46-1.06,0-1,1.06-1.33,2-1.33a3.32,3.32,0,0,1,1.7.42A2.26,2.26,0,0,1,123.16,38.58ZM133.74,32l-2.14,5.42h-.06L129.32,32h-2l3.33,7.58-1.9,4.21h1.95L135.82,32Zm-16.81,8h1.87V27.5h-1.87Z" style="fill:#fff"/><path d="M20.44,17.54a2,2,0,0,0-.46,1.4V41.06a2,2,0,0,0,.46,1.4l.07.07L32.9,30.15v-.29L20.51,17.47Z" style="fill:url(#linear-gradient)"/><path d="M37,34.28,32.9,30.15v-.29L37,25.72l.09.05L42,28.56c1.4.79,1.4,2.09,0,2.89l-4.89,2.78Z" style="fill:url(#linear-gradient-2)"/><path d="M37.12,34.22,32.9,30,20.44,42.46a1.63,1.63,0,0,0,2.08.06l14.61-8.3" style="fill:url(#linear-gradient-3)"/><path d="M37.12,25.78l-14.61-8.3a1.63,1.63,0,0,0-2.08.06L32.9,30Z" style="fill:url(#linear-gradient-4)"/><path d="M37,34.13,22.51,42.38a1.67,1.67,0,0,1-2,0h0l-.07.07h0l.07.07h0a1.66,1.66,0,0,0,2,0l14.61-8.3Z" style="opacity:0.2;isolation:isolate"/><path d="M20.44,42.32a2,2,0,0,1-.46-1.4v.15a2,2,0,0,0,.46,1.4l.07-.07Z" style="opacity:0.12;isolation:isolate"/><path d="M42,31.3l-5,2.83.09.09L42,31.44a1.75,1.75,0,0,0,1-1.44h0A1.86,1.86,0,0,1,42,31.3Z" style="opacity:0.12;isolation:isolate"/><path d="M22.51,17.62,42,28.7a1.86,1.86,0,0,1,1,1.3h0a1.75,1.75,0,0,0-1-1.44L22.51,17.48c-1.4-.79-2.54-.13-2.54,1.47v.15C20,17.49,21.12,16.83,22.51,17.62Z" style="fill:#fff;opacity:0.25;isolation:isolate"/><path d="M55.3,20.72v.7Q55.3,23,53.37,23t-1.92-1.58v-.77h.92v.77q0,.9,1,.9t1-.9v-.78l-.57-.08q-2.61-.37-2.61-1.85a1.48,1.48,0,0,1,.49-1.13,3.48,3.48,0,0,1,3.42,0,1.38,1.38,0,0,1,.49,1v.24h-.92v-.24a.71.71,0,0,0-.29-.58,1.64,1.64,0,0,0-1-.22,1.67,1.67,0,0,0-1,.22.82.82,0,0,0-.28.68q0,.93,1.74,1.18l.56.08a.6.6,0,0,1,.14-.21.58.58,0,0,1,.43-.18.61.61,0,0,1,.61.61.59.59,0,0,1-.18.43Z" style="fill:#fff;stroke:#fff;stroke-miterlimit:10;stroke-width:0.2px"/><path d="M56.84,17.14a1.8,1.8,0,0,1,1.19.32,1.21,1.21,0,0,1,.37,1V23h-.92V18.42a.65.65,0,0,0-.14-.48.75.75,0,0,0-.51-.13H55.53v-.67Z" style="fill:#fff;stroke:#fff;stroke-miterlimit:10;stroke-width:0.2px"/><path d="M59.9,18.49a1.36,1.36,0,0,1,.37-1,1.1,1.1,0,0,1,.83-.4,1.47,1.47,0,0,1,1,.61,1.48,1.48,0,0,1,1-.61,1.1,1.1,0,0,1,.82.4,2.36,2.36,0,0,1,1.49-.4,2.25,2.25,0,0,1,1.56.45,1.48,1.48,0,0,1,.49,1.13V23h-.92V18.72a.81.81,0,0,0-.28-.67,1.33,1.33,0,0,0-.84-.23,1.31,1.31,0,0,0-.84.23.8.8,0,0,0-.29.67V23h-.92V18.49q0-.62-.35-.62c-.16,0-.37.15-.64.46a.35.35,0,0,1-.58,0q-.4-.46-.63-.46t-.36.62v2.32q1,0,1,1,0,1.22-1,1.22t-.92-.6Zm5.86,5h1.71v.78q0,1.17-1.6,1.17A3.59,3.59,0,0,1,63.92,25a3.9,3.9,0,0,0-2.08-.49h-2v-.59h2a5,5,0,0,1,2.51.49,3,3,0,0,0,1.5.49q.68,0,.68-.59v-.2h-.79Zm-4.94-2v.84q.45,0,.45-.54Q61.26,21.49,60.81,21.49Z" style="fill:#fff;stroke:#fff;stroke-miterlimit:10;stroke-width:0.2px"/><path d="M68.94,17.64q0-.5.73-.5h.87v.67q-.69,0-.69.23v3.38a.81.81,0,0,0,.29.68,2.29,2.29,0,0,0,2,0,.81.81,0,0,0,.29-.68V19.06L72,18.58l-.2-.24a.34.34,0,0,1,0-.48l.18-.24.37-.48h1.21v.67H72.36l1,1.08v2.52a.8.8,0,0,0,.29.67,1.31,1.31,0,0,0,.84.23,1.33,1.33,0,0,0,.84-.23.81.81,0,0,0,.28-.67V19.06l-.51-.48-.25-.24a.4.4,0,0,1-.15-.28.32.32,0,0,1,.08-.2l.18-.24.37-.48h1.21v.67H75.29l1.21,1.08v2.52A1.47,1.47,0,0,1,76,22.55a2.9,2.9,0,0,1-3.12,0l0,0,0,0a3.45,3.45,0,0,1-3.42,0,1.47,1.47,0,0,1-.49-1.13Z" style="fill:#fff;stroke:#fff;stroke-miterlimit:10;stroke-width:0.2px"/><path d="M82.35,17.14v.67H78v-.67Zm-3.48,2.93V23H78V20.07q0-1.58,2.2-1.58t2.2,1.58V23h-.92V20.07q0-.9-1.28-.9T78.88,20.07Z" style="fill:#fff;stroke:#fff;stroke-miterlimit:10;stroke-width:0.2px"/><path d="M84.09,19.06l-.51-.48-.25-.24a.4.4,0,0,1-.15-.28.32.32,0,0,1,.08-.2l.18-.24.37-.48h.49c.23,0,.35-.08.35-.24v-.73h.92v.73q0,.92-1.27.92H83.8L85,18.9V22.4q0,.6-.46.6h-.46q-.78,0-.78-1.22,0-1,.78-1Zm0,2.42c-.14,0-.21.1-.21.3q0,.54.21.54Z" style="fill:#fff;stroke:#fff;stroke-miterlimit:10;stroke-width:0.2px"/><path d="M86.58,17.14a1.8,1.8,0,0,1,1.19.32,1.21,1.21,0,0,1,.37,1V23h-.92V18.42a.65.65,0,0,0-.14-.48.75.75,0,0,0-.51-.13H85.27v-.67Z" style="fill:#fff;stroke:#fff;stroke-miterlimit:10;stroke-width:0.2px"/><path d="M90.64,22.1q0,.23.37.23h.42V23h-1q-.73,0-.73-.5V19.06l-.39-.48-.2-.24a.34.34,0,0,1,0-.48l.18-.24.37-.48h1.21v.67H89.68l1,1.08Z" style="fill:#fff;stroke:#fff;stroke-miterlimit:10;stroke-width:0.2px"/><path d="M94.83,20.56q-2.61-.37-2.61-1.85a1.48,1.48,0,0,1,.49-1.13,3.48,3.48,0,0,1,3.42,0,1.38,1.38,0,0,1,.49,1v.17q0,.7-.67.7h-.73v-.7q.49,0,.49-.17a.71.71,0,0,0-.29-.58,1.64,1.64,0,0,0-1-.22,1.67,1.67,0,0,0-1,.22.82.82,0,0,0-.28.68q0,.93,1.74,1.18t1.74,1.33v.39a1.38,1.38,0,0,1-.37,1,1.33,1.33,0,0,1-1,.38,1.22,1.22,0,0,1-1-.45,1.76,1.76,0,0,0-.51-.46,1.3,1.3,0,0,0-.6-.12v1h-.92V20.54h.92v.75a2.16,2.16,0,0,1,1.26.29,2.6,2.6,0,0,1,.56.52c.11.15.2.23.29.23a.46.46,0,0,0,.29-.15.67.67,0,0,0,.16-.51v-.44Q95.7,20.69,94.83,20.56Z" style="fill:#fff;stroke:#fff;stroke-miterlimit:10;stroke-width:0.2px"/><path d="M97.86,17.14a1.8,1.8,0,0,1,1.19.32,1.21,1.21,0,0,1,.37,1V23H98.5V18.42a.65.65,0,0,0-.14-.48.75.75,0,0,0-.51-.13H96.55v-.67Zm.64-1.65a.46.46,0,0,0-.07-.29.37.37,0,0,0-.29-.08h-.62v-.67h.63a1.39,1.39,0,0,1,1,.27,1.1,1.1,0,0,1,.25.77V17H98.5Z" style="fill:#fff;stroke:#fff;stroke-miterlimit:10;stroke-width:0.2px"/><path d="M101.92,22.1q0,.23.37.23h.42V23h-1q-.73,0-.73-.5V19.06l-.39-.48-.2-.24a.34.34,0,0,1,0-.48l.18-.24.37-.48h1.21v.67H101l1,1.08Z" style="fill:#fff;stroke:#fff;stroke-miterlimit:10;stroke-width:0.2px"/><path d="M109.88,19.06l-.51-.48-.25-.24a.4.4,0,0,1-.15-.28.32.32,0,0,1,.08-.2l.18-.24.37-.48h1.21v.67h-1.21l1.21,1.08v2.52q0,1.58-2,1.58t-2-1.58V18.72q0-.9-1.16-.9t-1.16.9v2.09q1,0,1,1,0,1.22-1,1.22t-.92-.6V18.72q0-1.58,2.08-1.58t2.08,1.58v2.71q0,.9,1.13.9t1.13-.9Zm-5.49,2.42v.84q.45,0,.45-.54Q104.84,21.49,104.39,21.49Z" style="fill:#fff;stroke:#fff;stroke-miterlimit:10;stroke-width:0.2px"/><path d="M112.32,16.16h-3.66q-.49,0-.49-.73a1.14,1.14,0,0,1,.39-.85,1.58,1.58,0,0,1,1.12-.37,3,3,0,0,1,1.42.37,5.57,5.57,0,0,1,.55.33V14h.67ZM109.08,15a.68.68,0,0,0-.17.54h2.48a3.91,3.91,0,0,0-1-.54,2.32,2.32,0,0,0-.72-.15A1,1,0,0,0,109.08,15Z" style="fill:#fff;stroke:#fff;stroke-miterlimit:10;stroke-width:0.2px"/></svg>