<svg id="artwork" xmlns="http://www.w3.org/2000/svg" xmlns:xlink="http://www.w3.org/1999/xlink" viewBox="0 0 155 60"><defs><linearGradient id="linear-gradient" x1="31.8" y1="-96.71" x2="15.02" y2="-113.49" gradientTransform="matrix(1, 0, 0, -1, 0, -78)" gradientUnits="userSpaceOnUse"><stop offset="0" stop-color="#00a0ff"/><stop offset="0.01" stop-color="#00a1ff"/><stop offset="0.26" stop-color="#00beff"/><stop offset="0.51" stop-color="#00d2ff"/><stop offset="0.76" stop-color="#00dfff"/><stop offset="1" stop-color="#00e3ff"/></linearGradient><linearGradient id="linear-gradient-2" x1="43.83" y1="-108" x2="19.64" y2="-108" gradientTransform="matrix(1, 0, 0, -1, 0, -78)" gradientUnits="userSpaceOnUse"><stop offset="0" stop-color="#ffe000"/><stop offset="0.41" stop-color="#ffbd00"/><stop offset="0.78" stop-color="orange"/><stop offset="1" stop-color="#ff9c00"/></linearGradient><linearGradient id="linear-gradient-3" x1="34.83" y1="-110.3" x2="12.07" y2="-133.05" gradientTransform="matrix(1, 0, 0, -1, 0, -78)" gradientUnits="userSpaceOnUse"><stop offset="0" stop-color="#ff3a44"/><stop offset="1" stop-color="#c31162"/></linearGradient><linearGradient id="linear-gradient-4" x1="17.3" y1="-88.18" x2="27.46" y2="-98.34" gradientTransform="matrix(1, 0, 0, -1, 0, -78)" gradientUnits="userSpaceOnUse"><stop offset="0" stop-color="#32a071"/><stop offset="0.07" stop-color="#2da771"/><stop offset="0.48" stop-color="#15cf74"/><stop offset="0.8" stop-color="#06e775"/><stop offset="1" stop-color="#00f076"/></linearGradient></defs><title>kn_get</title><rect width="155" height="60" style="fill:#fff;fill-opacity:0"/><rect x="10" y="10" width="135" height="40" rx="5" ry="5"/><path d="M140,10.8a4.2,4.2,0,0,1,4.2,4.2V45a4.2,4.2,0,0,1-4.2,4.2H15A4.2,4.2,0,0,1,10.8,45V15A4.2,4.2,0,0,1,15,10.8H140m0-.8H15a5,5,0,0,0-5,5V45a5,5,0,0,0,5,5H140a5,5,0,0,0,5-5V15a5,5,0,0,0-5-5Z" style="fill:#a6a6a6"/><path d="M74.72,26.79a3.72,3.72,0,1,0,3.73,3.72A3.66,3.66,0,0,0,74.72,26.79Zm0,6a2.26,2.26,0,1,1,2.1-2.25A2.15,2.15,0,0,1,74.72,32.76Zm-8.14-6a3.72,3.72,0,1,0,3.73,3.72A3.66,3.66,0,0,0,66.58,26.79Zm0,6a2.26,2.26,0,1,1,2.1-2.25A2.15,2.15,0,0,1,66.58,32.76ZM56.9,27.93v1.58h3.77a3.29,3.29,0,0,1-.86,2,3.86,3.86,0,0,1-2.91,1.15,4.2,4.2,0,0,1,0-8.39,4,4,0,0,1,2.84,1.13l1.11-1.11a5.5,5.5,0,0,0-4-1.59,5.77,5.77,0,1,0,0,11.55,5.28,5.28,0,0,0,4-1.62,5.21,5.21,0,0,0,1.37-3.69,5.14,5.14,0,0,0-.08-1Zm39.6,1.23a3.46,3.46,0,0,0-3.18-2.37,3.53,3.53,0,0,0-3.51,3.72,3.64,3.64,0,0,0,3.69,3.72,3.7,3.7,0,0,0,3.1-1.65l-1.27-.84a2.12,2.12,0,0,1-1.83,1,1.89,1.89,0,0,1-1.8-1.13l5-2.06ZM91.43,30.4a2,2,0,0,1,1.94-2.17,1.44,1.44,0,0,1,1.38.79Zm-4,3.61H89V23.07H87.39Zm-2.68-6.38h-.06a2.58,2.58,0,0,0-2-.83,3.72,3.72,0,0,0,0,7.44,2.53,2.53,0,0,0,2-.84h.06v.54c0,1.42-.76,2.18-2,2.18a2.06,2.06,0,0,1-1.87-1.32l-1.42.59a3.54,3.54,0,0,0,3.3,2.2c1.92,0,3.53-1.13,3.53-3.87V27H84.72Zm-1.87,5.14a2.26,2.26,0,0,1,0-4.51,2.1,2.1,0,0,1,2,2.27A2.08,2.08,0,0,1,82.84,32.76Zm21.31-9.69h-3.91V34h1.63V29.86h2.28a3.4,3.4,0,1,0,0-6.79Zm0,5.27h-2.32V24.59h2.32a1.87,1.87,0,1,1,0,3.75Zm10.08-1.57a3.06,3.06,0,0,0-2.91,1.67l1.45.6a1.55,1.55,0,0,1,1.49-.8A1.57,1.57,0,0,1,116,29.65v.11a3.61,3.61,0,0,0-1.7-.42c-1.56,0-3.15.86-3.15,2.46a2.52,2.52,0,0,0,2.71,2.4A2.3,2.3,0,0,0,116,33.14H116V34h1.57V29.79C117.59,27.85,116.15,26.77,114.28,26.77Zm-.2,6c-.53,0-1.28-.27-1.28-.93,0-.84.93-1.17,1.73-1.17A2.9,2.9,0,0,1,116,31,2,2,0,0,1,114.08,32.76ZM123.33,27l-1.87,4.74h-.06L119.46,27h-1.76l2.91,6.62L119,37.31h1.7L125.14,27Zm-14.69,7h1.63V23.07h-1.63Z" style="fill:#fff"/><path d="M20.44,17.54a2,2,0,0,0-.46,1.4V41.06a2,2,0,0,0,.46,1.4l.07.07L32.9,30.15v-.29L20.51,17.47Z" style="fill:url(#linear-gradient)"/><path d="M37,34.28,32.9,30.15v-.29L37,25.72l.09.05L42,28.56c1.4.79,1.4,2.09,0,2.89l-4.89,2.78Z" style="fill:url(#linear-gradient-2)"/><path d="M37.12,34.22,32.9,30,20.44,42.46a1.63,1.63,0,0,0,2.08.06l14.61-8.3" style="fill:url(#linear-gradient-3)"/><path d="M37.12,25.78l-14.61-8.3a1.63,1.63,0,0,0-2.08.06L32.9,30Z" style="fill:url(#linear-gradient-4)"/><path d="M37,34.13,22.51,42.38a1.67,1.67,0,0,1-2,0h0l-.07.07h0l.07.07h0a1.66,1.66,0,0,0,2,0l14.61-8.3Z" style="opacity:0.2;isolation:isolate"/><path d="M20.44,42.32a2,2,0,0,1-.46-1.4v.15a2,2,0,0,0,.46,1.4l.07-.07Z" style="opacity:0.12;isolation:isolate"/><path d="M42,31.3l-5,2.83.09.09L42,31.44a1.75,1.75,0,0,0,1-1.44h0A1.86,1.86,0,0,1,42,31.3Z" style="opacity:0.12;isolation:isolate"/><path d="M22.51,17.62,42,28.7a1.86,1.86,0,0,1,1,1.3h0a1.75,1.75,0,0,0-1-1.44L22.51,17.48c-1.4-.79-2.54-.13-2.54,1.47v.15C20,17.49,21.12,16.83,22.51,17.62Z" style="fill:#fff;opacity:0.25;isolation:isolate"/><path d="M52.21,44.85l-.66.26a2.3,2.3,0,0,1-.33-.64,2.2,2.2,0,0,1-.12-.71,1.36,1.36,0,0,1,.37-1,1.2,1.2,0,0,1,.91-.39,1.42,1.42,0,0,1,.76.19,2.29,2.29,0,0,1,.67.81,5.31,5.31,0,0,0,.41.64,1.05,1.05,0,0,0,.34.28,1,1,0,0,0,.46.1.71.71,0,0,0,.6-.28,1.25,1.25,0,0,0,.21-.77,2.47,2.47,0,0,0-.52-1.54A2.31,2.31,0,0,0,54,41H51.11v-.66h3.61a3.42,3.42,0,0,0,.67,0,.57.57,0,0,0,.33-.18.53.53,0,0,0,.11-.35,1.54,1.54,0,0,0-.55-1.08l.55-.37a3.28,3.28,0,0,1,.52.74,1.73,1.73,0,0,1,.17.77,1.09,1.09,0,0,1-.31.79,1.46,1.46,0,0,1-1,.38,3,3,0,0,1,.95,1,2.73,2.73,0,0,1,.33,1.33,1.9,1.9,0,0,1-.42,1.31,1.48,1.48,0,0,1-1.16.47,1.56,1.56,0,0,1-.65-.13,1.45,1.45,0,0,1-.49-.36,4.16,4.16,0,0,1-.47-.67,5.34,5.34,0,0,0-.36-.55,1,1,0,0,0-.28-.26.63.63,0,0,0-.32-.08.55.55,0,0,0-.44.18.74.74,0,0,0-.16.5A1.94,1.94,0,0,0,52.21,44.85Z" style="fill:#fff;stroke:#fff;stroke-miterlimit:10;stroke-width:0.2px"/><path d="M57.64,42.42a1.88,1.88,0,0,0,.59,1.45,2.36,2.36,0,0,0,1.66.54,2.42,2.42,0,0,0,1.82-.67,2.6,2.6,0,0,0,.65-1.89,4.58,4.58,0,0,0-.13-1.07,3.14,3.14,0,0,0-.37-.92,1.27,1.27,0,0,1-.49.54,1.4,1.4,0,0,1-.74.19,1.31,1.31,0,0,1-.88-.27,1,1,0,0,1-.32-.77.93.93,0,0,1,.34-.74,1.35,1.35,0,0,1,.9-.29,2,2,0,0,1,1.25.42,2.69,2.69,0,0,1,.84,1.19,4.72,4.72,0,0,1,.3,1.72,3.27,3.27,0,0,1-.84,2.39,3.22,3.22,0,0,1-2.41.86,3.28,3.28,0,0,1-1.53-.34,2.34,2.34,0,0,1-1-1A2.91,2.91,0,0,1,57,42.37a2.68,2.68,0,0,1,.22-1.12,1.78,1.78,0,0,1,.63-.77,1.58,1.58,0,0,1,.9-.27,1.25,1.25,0,0,1,.89.31,1.08,1.08,0,0,1,.33.83,1.19,1.19,0,0,1-.39.93,1.56,1.56,0,0,1-1.08.35A1.57,1.57,0,0,1,57.64,42.42Zm.06-.61a1.17,1.17,0,0,0,.71.22,1,1,0,0,0,.64-.17.58.58,0,0,0,.22-.48.57.57,0,0,0-.15-.42.55.55,0,0,0-.41-.15.89.89,0,0,0-.65.26A1.41,1.41,0,0,0,57.7,41.81Zm3.69-2.47a1.26,1.26,0,0,0-.73-.23.62.62,0,0,0-.41.12.4.4,0,0,0-.15.32.42.42,0,0,0,.13.32.54.54,0,0,0,.37.12.77.77,0,0,0,.52-.17A.83.83,0,0,0,61.39,39.34Z" style="fill:#fff;stroke:#fff;stroke-miterlimit:10;stroke-width:0.2px"/><path d="M64,46.13a1.48,1.48,0,0,1,.46-.44,1.06,1.06,0,0,1,.5-.11,1,1,0,0,1,.77.31,1.07,1.07,0,0,1,.3.77,1.47,1.47,0,0,1-.18.72,2.39,2.39,0,0,1-.62.69l-.4-.44a2,2,0,0,0,.46-.46.84.84,0,0,0,.14-.46.55.55,0,0,0-.13-.37.46.46,0,0,0-.37-.15.56.56,0,0,0-.44.2.85.85,0,0,0-.19.54h-.6a1,1,0,0,0-.21-.54.54.54,0,0,0-.42-.19.47.47,0,0,0-.37.14.56.56,0,0,0-.13.4.8.8,0,0,0,.13.44,2.17,2.17,0,0,0,.47.48l-.4.44a2.49,2.49,0,0,1-.62-.69,1.48,1.48,0,0,1-.19-.73,1,1,0,0,1,.3-.75,1,1,0,0,1,.77-.31,1.05,1.05,0,0,1,.52.11A1.46,1.46,0,0,1,64,46.13Z" style="fill:#fff;stroke:#fff;stroke-miterlimit:10;stroke-width:0.2px"/><path d="M66.67,41v-.66H71a3.6,3.6,0,0,0,.66,0,.56.56,0,0,0,.33-.18.53.53,0,0,0,.11-.35,1.54,1.54,0,0,0-.55-1.08l.55-.37a3.28,3.28,0,0,1,.52.74,1.75,1.75,0,0,1,.17.77,1.16,1.16,0,0,1-.15.58,1.08,1.08,0,0,1-.48.43,2.39,2.39,0,0,1-1,.16Zm5.32.34a2.9,2.9,0,0,1,.81,2,1.92,1.92,0,0,1-.42,1.31,1.37,1.37,0,0,1-1.07.47,1.84,1.84,0,0,1-.81-.16,1.61,1.61,0,0,1-.61-.61,1.68,1.68,0,0,1-.6.57,2,2,0,0,1-1,.19,1.71,1.71,0,0,1-1.19-.42,1.41,1.41,0,0,1-.46-1.1,1.35,1.35,0,0,1,.36-1,1.23,1.23,0,0,1,.93-.37,1.14,1.14,0,0,1,.73.22A.7.7,0,0,1,69,43a1,1,0,0,1-.11.5l-.58-.05a.79.79,0,0,0,.05-.27.35.35,0,0,0-.1-.28.41.41,0,0,0-.28-.09.56.56,0,0,0-.45.19.76.76,0,0,0-.17.52.79.79,0,0,0,.28.64,1.22,1.22,0,0,0,.8.23,1.05,1.05,0,0,0,1.17-1.08h.65a1.23,1.23,0,0,0,.31.8,1,1,0,0,0,.72.28.77.77,0,0,0,.63-.27,1.22,1.22,0,0,0,.22-.78,2.08,2.08,0,0,0-.18-.85,3.22,3.22,0,0,0-.54-.82Zm-2.17.17a.48.48,0,0,1,.35.14.49.49,0,0,1,.15.36.48.48,0,0,1-.15.35.49.49,0,0,1-.35.15.46.46,0,0,1-.35-.15.49.49,0,0,1-.14-.35.5.5,0,0,1,.14-.35A.46.46,0,0,1,69.82,41.48Z" style="fill:#fff;stroke:#fff;stroke-miterlimit:10;stroke-width:0.2px"/><path d="M79.26,39.56a1.37,1.37,0,0,1-.27.87,1.32,1.32,0,0,1-.78.46,1.31,1.31,0,0,1,.54.51,1.45,1.45,0,0,1,.19.73c0,.06,0,.11,0,.17a1.9,1.9,0,0,1,.24.53,2.21,2.21,0,0,1,.08.61,1.7,1.7,0,0,1-.43,1.2,1.42,1.42,0,0,1-1.09.46,1.79,1.79,0,0,1-.84-.17,1.67,1.67,0,0,1-.59-.59,1.55,1.55,0,0,1-.53.56,1.66,1.66,0,0,1-.88.2,1.3,1.3,0,0,1-1.09-.51,2.34,2.34,0,0,1-.39-1.45,2.77,2.77,0,0,1,.29-1.3,2.05,2.05,0,0,1,.84-.87H73.41v-.66h3.75a3.46,3.46,0,0,0,.89-.08.71.71,0,0,0,.38-.26.87.87,0,0,0,.13-.51.71.71,0,0,0-.22-.54.8.8,0,0,0-.57-.21.9.9,0,0,0-.43.1.7.7,0,0,0-.29.29.5.5,0,0,1,.33.1.32.32,0,0,1,.12.27.38.38,0,0,1-.12.3.51.51,0,0,1-.34.11.51.51,0,0,1-.43-.19.75.75,0,0,1-.15-.49,1,1,0,0,1,.38-.76,1.45,1.45,0,0,1,1-.32,1.35,1.35,0,0,1,1.44,1.43ZM76,43.44h.65a1.21,1.21,0,0,0,.34.73,1,1,0,0,0,.69.26.93.93,0,0,0,.69-.26,1,1,0,0,0,.26-.74,2.16,2.16,0,0,0,0-.45,1.19,1.19,0,0,1-.9.37,1.13,1.13,0,0,1-.75-.24.82.82,0,0,1-.28-.67.79.79,0,0,1,.27-.63,1,1,0,0,1,.7-.23,1.45,1.45,0,0,1,.65.14,1.25,1.25,0,0,0-.63-.55,2.58,2.58,0,0,0-1.06-.2h-.29a2.08,2.08,0,0,0-1.57.6,2.18,2.18,0,0,0-.57,1.58,1.77,1.77,0,0,0,.21,1,.74.74,0,0,0,.66.32.88.88,0,0,0,.65-.26A1.35,1.35,0,0,0,76,43.44Zm2.32-1a.78.78,0,0,0-.62-.31.46.46,0,0,0-.3.09.3.3,0,0,0-.11.25q0,.37.44.37a.66.66,0,0,0,.36-.11A.54.54,0,0,0,78.3,42.41Z" style="fill:#fff;stroke:#fff;stroke-miterlimit:10;stroke-width:0.2px"/><path d="M81,41H79.85v-.66h4a3.85,3.85,0,0,0,.65,0,.6.6,0,0,0,.34-.17.52.52,0,0,0,.12-.36,1.55,1.55,0,0,0-.55-1.08l.55-.37a3.28,3.28,0,0,1,.52.74,1.75,1.75,0,0,1,.17.77,1.08,1.08,0,0,1-.28.76,1.35,1.35,0,0,1-.85.39,2.2,2.2,0,0,1,.83.9,2.79,2.79,0,0,1,.29,1.29,2.32,2.32,0,0,1-.4,1.46,1.34,1.34,0,0,1-1.12.51,1.64,1.64,0,0,1-.8-.18,1.71,1.71,0,0,1-.58-.59,1.55,1.55,0,0,1-.53.56,1.66,1.66,0,0,1-.88.2,1.3,1.3,0,0,1-1.09-.51,2.34,2.34,0,0,1-.39-1.45,2.77,2.77,0,0,1,.29-1.3A2.05,2.05,0,0,1,81,41Zm1.43,2.37h.65a1.22,1.22,0,0,0,.31.79.91.91,0,0,0,.68.29q.89,0,.89-1.27A2.48,2.48,0,0,0,84.7,42a1.85,1.85,0,0,0-.74-.78A2.21,2.21,0,0,0,82.84,41H82.7a2.35,2.35,0,0,0-1.14.27,1.79,1.79,0,0,0-.75.77,2.44,2.44,0,0,0-.26,1.14,1.76,1.76,0,0,0,.21,1,.74.74,0,0,0,.66.32.89.89,0,0,0,.68-.29A1.29,1.29,0,0,0,82.42,43.34Z" style="fill:#fff;stroke:#fff;stroke-miterlimit:10;stroke-width:0.2px"/><path d="M85,44l.44-.46a2.9,2.9,0,0,0,.76.71,1.6,1.6,0,0,0,.83.22,1,1,0,0,0,.79-.33,1.31,1.31,0,0,0,.29-.89,2.36,2.36,0,0,0-.42-1.4,2.94,2.94,0,0,0-1.25-1l.37-.66a3.75,3.75,0,0,1,1.49,1.25,3,3,0,0,1,.51,1.73,2,2,0,0,1-.48,1.41A1.71,1.71,0,0,1,87,45.1a2.09,2.09,0,0,1-1-.27A3.37,3.37,0,0,1,85,44Z" style="fill:#fff;stroke:#fff;stroke-miterlimit:10;stroke-width:0.2px"/><path d="M91.83,41a.85.85,0,0,1,.14.44.73.73,0,0,1-.11.4h1.72v.59h-.83a1.27,1.27,0,0,1,.47.48,1.31,1.31,0,0,1,.16.65,1.41,1.41,0,0,1-.52,1.16,2.27,2.27,0,0,1-1.46.42,2.14,2.14,0,0,1-1.4-.43,1.4,1.4,0,0,1-.51-1.14,1.32,1.32,0,0,1,.61-1.14H89.3v-.59h1.77a.49.49,0,0,0,.22-.41.77.77,0,0,0-.14-.43H89.3v-.66h2.22a3.45,3.45,0,0,0,.89-.08.71.71,0,0,0,.38-.26.87.87,0,0,0,.13-.51.71.71,0,0,0-.22-.54.79.79,0,0,0-.57-.21.9.9,0,0,0-.43.1.69.69,0,0,0-.29.29.5.5,0,0,1,.33.1.33.33,0,0,1,.12.27.38.38,0,0,1-.12.3.51.51,0,0,1-.34.11A.51.51,0,0,1,91,39.7a.75.75,0,0,1-.15-.49,1,1,0,0,1,.38-.76,1.45,1.45,0,0,1,1-.32,1.35,1.35,0,0,1,1.44,1.43,1.31,1.31,0,0,1-.42,1A2.08,2.08,0,0,1,91.83,41Zm-.39,1.43a1.4,1.4,0,0,0-.94.28,1,1,0,0,0-.33.76.89.89,0,0,0,.32.73,1.8,1.8,0,0,0,1.88,0,.89.89,0,0,0,.33-.73.94.94,0,0,0-.33-.76A1.43,1.43,0,0,0,91.44,42.4Z" style="fill:#fff;stroke:#fff;stroke-miterlimit:10;stroke-width:0.2px"/><path d="M92.84,44.06l.46-.49a2.82,2.82,0,0,0,.64.65,1.23,1.23,0,0,0,.7.21.72.72,0,0,0,.54-.19.79.79,0,0,0,.18-.56q0-.39,0-.77t0-.66a2.13,2.13,0,0,1,.27-1.08,1.77,1.77,0,0,1,.76-.71,2.44,2.44,0,0,1,1.11-.25,2.51,2.51,0,0,1,1.32.34,2.18,2.18,0,0,1,.85,1A3.42,3.42,0,0,1,99.9,43a2.33,2.33,0,0,1-.48,1.55,1.64,1.64,0,0,1-1.32.57A1.47,1.47,0,0,1,97,44.72a1.3,1.3,0,0,1-.39-1,1.2,1.2,0,0,1,.27-.82.86.86,0,0,1,.68-.3.73.73,0,0,1,.49.15.53.53,0,0,1,.18.42.55.55,0,0,1-.14.39.43.43,0,0,1-.33.15.55.55,0,0,1-.33-.09.38.38,0,0,1-.15-.27.94.94,0,0,0,0,.31.79.79,0,0,0,.22.58.85.85,0,0,0,.63.22,1,1,0,0,0,.8-.39A1.79,1.79,0,0,0,99.2,43a2.39,2.39,0,0,0-.47-1.53,1.55,1.55,0,0,0-1.29-.59A1.33,1.33,0,0,0,96,42.33c0,.19,0,.42,0,.68s0,.49,0,.68a1.38,1.38,0,0,1-.39,1,1.42,1.42,0,0,1-1,.37,1.81,1.81,0,0,1-.9-.24A3.64,3.64,0,0,1,92.84,44.06Z" style="fill:#fff;stroke:#fff;stroke-miterlimit:10;stroke-width:0.2px"/><path d="M104.74,39.85a1.26,1.26,0,0,1-.49.54,1.4,1.4,0,0,1-.74.19,1.31,1.31,0,0,1-.88-.27,1,1,0,0,1-.32-.77.93.93,0,0,1,.34-.74,1.35,1.35,0,0,1,.91-.29,1.91,1.91,0,0,1,1.16.37,2.42,2.42,0,0,1,.79,1,3.44,3.44,0,0,1,.28,1.38,2.47,2.47,0,0,1-.4,1.48,2.05,2.05,0,0,1-1.21.76.82.82,0,0,1,.2.57.87.87,0,0,1-.35.73,1.9,1.9,0,0,1-1.93,0,.84.84,0,0,1-.36-.73.78.78,0,0,1,.25-.58,2.41,2.41,0,0,1-1.29-.65,1.6,1.6,0,0,1-.47-1.15,1.52,1.52,0,0,1,.4-1.1,1.44,1.44,0,0,1,1.09-.42,1.28,1.28,0,0,1,.85.28.93.93,0,0,1,.33.75,1,1,0,0,1-.36.83,1.61,1.61,0,0,1-1.05.3,1.85,1.85,0,0,1-.46-.07,1.28,1.28,0,0,0,.53.43,2.82,2.82,0,0,0,.8.23,5.39,5.39,0,0,0,.72.07,3.72,3.72,0,0,0,1-.13,1.39,1.39,0,0,0,.78-.52,1.77,1.77,0,0,0,.29-1.08,3.11,3.11,0,0,0-.1-.76A2.59,2.59,0,0,0,104.74,39.85Zm-3.89,1.82a1.46,1.46,0,0,0,.56.1,1.14,1.14,0,0,0,.61-.13.43.43,0,0,0,.21-.38.4.4,0,0,0-.15-.33.64.64,0,0,0-.41-.12.78.78,0,0,0-.59.23.84.84,0,0,0-.22.61Zm2.2,1.86a1.08,1.08,0,0,0-.28,0,.55.55,0,0,0-.27.17.44.44,0,0,0-.11.3.38.38,0,0,0,.18.33.86.86,0,0,0,.5.12.88.88,0,0,0,.5-.12.38.38,0,0,0,.17-.34.43.43,0,0,0-.2-.38A.82.82,0,0,0,103.06,43.54Zm1.22-4.2a1.26,1.26,0,0,0-.73-.22.62.62,0,0,0-.41.12.4.4,0,0,0-.15.32.42.42,0,0,0,.13.32.54.54,0,0,0,.37.12.8.8,0,0,0,.52-.16A.79.79,0,0,0,104.27,39.34Z" style="fill:#fff;stroke:#fff;stroke-miterlimit:10;stroke-width:0.2px"/><path d="M105.73,47.43a.5.5,0,0,1,.12.34.51.51,0,0,1-.25.45,1.37,1.37,0,0,1-.74.16,1.32,1.32,0,0,1-.7-.16.5.5,0,0,1-.26-.45.46.46,0,0,1,.15-.34,1.68,1.68,0,0,1-.84-.41.94.94,0,0,1-.29-.69.92.92,0,0,1,.29-.7,1.08,1.08,0,0,1,.77-.27,1,1,0,0,1,.66.2.65.65,0,0,1,.25.53q0,.74-.9.73l-.27,0a2.71,2.71,0,0,0,1.16.17,2.66,2.66,0,0,0,.51-.07,1,1,0,0,0,.52-.27.75.75,0,0,0,.2-.55,2.44,2.44,0,0,0-.52-1.4l.57-.28a4.23,4.23,0,0,1,.46.88,2.35,2.35,0,0,1,.13.79,1.39,1.39,0,0,1-.26.86A1.41,1.41,0,0,1,105.73,47.43Zm-2.26-1.09a1,1,0,0,0,.4.07c.3,0,.45-.09.45-.28s-.12-.25-.36-.25a.51.51,0,0,0-.36.12.41.41,0,0,0-.13.32Zm1.4,1.11a.57.57,0,0,0-.27.06.2.2,0,0,0-.12.18.18.18,0,0,0,.1.15.58.58,0,0,0,.3.06c.26,0,.39-.07.39-.21a.2.2,0,0,0-.13-.18A.61.61,0,0,0,104.88,47.44Z" style="fill:#fff;stroke:#fff;stroke-miterlimit:10;stroke-width:0.2px"/><path d="M56.61,17.35V18H54v-.65h1.52a1.28,1.28,0,0,1-.5-1,1,1,0,0,1,.33-.76,1.22,1.22,0,0,1,.87-.31,1.45,1.45,0,0,1,1.19.55,2.21,2.21,0,0,1,.44,1.44A2.69,2.69,0,0,1,57,19.37a3.88,3.88,0,0,1-2.56.73A3.62,3.62,0,0,1,52,19.36a2.5,2.5,0,0,1-.87-2,2.37,2.37,0,0,1,.49-1.57,1.57,1.57,0,0,1,1.26-.58,1.24,1.24,0,0,1,.89.31,1.09,1.09,0,0,1,.33.83,1.18,1.18,0,0,1-.39.93,1.57,1.57,0,0,1-1.08.35,1.63,1.63,0,0,1-.81-.21,1.86,1.86,0,0,0,.72,1.45,3,3,0,0,0,1.87.53,3.32,3.32,0,0,0,2.08-.53,2,2,0,0,0,.67-1.66,1.79,1.79,0,0,0-.25-1,.77.77,0,0,0-.68-.37.53.53,0,0,0-.39.16.58.58,0,0,0-.16.43.74.74,0,0,0,.24.54A1.65,1.65,0,0,0,56.61,17.35Zm-4.74-.56a1.15,1.15,0,0,0,.71.25,1,1,0,0,0,.64-.17.58.58,0,0,0,.22-.48.57.57,0,0,0-.15-.42.55.55,0,0,0-.4-.15.91.91,0,0,0-.66.25A1.34,1.34,0,0,0,51.87,16.79Z" style="fill:#fff;stroke:#fff;stroke-miterlimit:10;stroke-width:0.2px"/><path d="M59.56,16H58.42v-.66h4a3.85,3.85,0,0,0,.65,0,.6.6,0,0,0,.34-.17.52.52,0,0,0,.12-.36A1.55,1.55,0,0,0,63,13.65l.55-.37A3.29,3.29,0,0,1,64,14a1.75,1.75,0,0,1,.17.77,1.08,1.08,0,0,1-.28.76,1.35,1.35,0,0,1-.85.39,2.2,2.2,0,0,1,.83.9,2.79,2.79,0,0,1,.29,1.29,2.32,2.32,0,0,1-.4,1.46,1.34,1.34,0,0,1-1.12.51,1.64,1.64,0,0,1-.8-.18,1.71,1.71,0,0,1-.59-.59,1.55,1.55,0,0,1-.53.56,1.66,1.66,0,0,1-.88.2,1.3,1.3,0,0,1-1.09-.51,2.34,2.34,0,0,1-.39-1.45,2.77,2.77,0,0,1,.3-1.3A2.05,2.05,0,0,1,59.56,16ZM61,18.34h.65a1.22,1.22,0,0,0,.31.79.91.91,0,0,0,.68.29q.89,0,.89-1.27A2.48,2.48,0,0,0,63.27,17a1.85,1.85,0,0,0-.74-.78A2.21,2.21,0,0,0,61.41,16h-.14a2.35,2.35,0,0,0-1.14.27,1.79,1.79,0,0,0-.75.77,2.44,2.44,0,0,0-.26,1.14,1.76,1.76,0,0,0,.21,1,.74.74,0,0,0,.66.32.89.89,0,0,0,.68-.29A1.29,1.29,0,0,0,61,18.34Z" style="fill:#fff;stroke:#fff;stroke-miterlimit:10;stroke-width:0.2px"/><path d="M65.86,19.85l-.66.26a2.3,2.3,0,0,1-.33-.64,2.2,2.2,0,0,1-.12-.71,1.36,1.36,0,0,1,.37-1,1.2,1.2,0,0,1,.91-.39,1.42,1.42,0,0,1,.76.19,2.29,2.29,0,0,1,.67.81,5.33,5.33,0,0,0,.41.64,1.06,1.06,0,0,0,.34.28,1,1,0,0,0,.46.1.71.71,0,0,0,.6-.28,1.25,1.25,0,0,0,.21-.77A2.47,2.47,0,0,0,69,16.85,2.31,2.31,0,0,0,67.6,16H64.76v-.66h3.61a3.42,3.42,0,0,0,.67,0,.57.57,0,0,0,.33-.18.53.53,0,0,0,.11-.35,1.54,1.54,0,0,0-.55-1.08l.55-.37A3.28,3.28,0,0,1,70,14a1.73,1.73,0,0,1,.17.77,1.09,1.09,0,0,1-.31.79,1.46,1.46,0,0,1-1,.38,3,3,0,0,1,.95,1,2.73,2.73,0,0,1,.33,1.33,1.9,1.9,0,0,1-.42,1.31,1.48,1.48,0,0,1-1.16.47,1.56,1.56,0,0,1-.65-.13,1.45,1.45,0,0,1-.49-.36,4.16,4.16,0,0,1-.47-.67,5.34,5.34,0,0,0-.36-.55,1,1,0,0,0-.28-.26.63.63,0,0,0-.32-.08.55.55,0,0,0-.44.18.74.74,0,0,0-.16.5A1.94,1.94,0,0,0,65.86,19.85Z" style="fill:#fff;stroke:#fff;stroke-miterlimit:10;stroke-width:0.2px"/><path d="M69.51,19l.44-.46a2.9,2.9,0,0,0,.76.71,1.6,1.6,0,0,0,.83.22,1,1,0,0,0,.79-.33,1.31,1.31,0,0,0,.29-.89,2.36,2.36,0,0,0-.42-1.4,2.94,2.94,0,0,0-1.25-1l.37-.66a3.75,3.75,0,0,1,1.49,1.25,3,3,0,0,1,.51,1.73,2,2,0,0,1-.48,1.41,1.71,1.71,0,0,1-1.32.52,2.09,2.09,0,0,1-1-.27A3.37,3.37,0,0,1,69.51,19Z" style="fill:#fff;stroke:#fff;stroke-miterlimit:10;stroke-width:0.2px"/><path d="M73.54,21.66a1.3,1.3,0,0,0,.26-.42,1.47,1.47,0,0,0,.08-.51,2.09,2.09,0,0,0-.25-1l.56-.28a1.8,1.8,0,0,1,.25.56,2.48,2.48,0,0,1,.09.67,2.06,2.06,0,0,1-.17.86,1.88,1.88,0,0,1-.52.67.83.83,0,0,0,.27.28.78.78,0,0,0,.39.08l.17,0,.14,0,.11.57a.71.71,0,0,1-.2.05l-.22,0a1.29,1.29,0,0,1-.66-.15,1.46,1.46,0,0,1-.48-.51,2.73,2.73,0,0,1-1.14.24,1.49,1.49,0,0,1-1-.31,1,1,0,0,1-.36-.81.94.94,0,0,1,.32-.74,1.22,1.22,0,0,1,.83-.28,1.4,1.4,0,0,1,.82.23A2.83,2.83,0,0,1,73.54,21.66Zm-.45.32a2.43,2.43,0,0,0-.52-.68.83.83,0,0,0-.53-.2.58.58,0,0,0-.4.13.43.43,0,0,0-.15.34.49.49,0,0,0,.19.42.93.93,0,0,0,.57.15A2.06,2.06,0,0,0,73.08,22Z" style="fill:#fff;stroke:#fff;stroke-miterlimit:10;stroke-width:0.2px"/></svg>