<svg xmlns="http://www.w3.org/2000/svg" xmlns:xlink="http://www.w3.org/1999/xlink" viewBox="0 0 155 60"><defs><linearGradient id="linear-gradient" x1="31.8" y1="43.29" x2="15.02" y2="26.51" gradientTransform="matrix(1, 0, 0, -1, 0, 62)" gradientUnits="userSpaceOnUse"><stop offset="0" stop-color="#00a0ff"/><stop offset="0.01" stop-color="#00a1ff"/><stop offset="0.26" stop-color="#00beff"/><stop offset="0.51" stop-color="#00d2ff"/><stop offset="0.76" stop-color="#00dfff"/><stop offset="1" stop-color="#00e3ff"/></linearGradient><linearGradient id="linear-gradient-2" x1="43.83" y1="32" x2="19.64" y2="32" gradientTransform="matrix(1, 0, 0, -1, 0, 62)" gradientUnits="userSpaceOnUse"><stop offset="0" stop-color="#ffe000"/><stop offset="0.41" stop-color="#ffbd00"/><stop offset="0.78" stop-color="orange"/><stop offset="1" stop-color="#ff9c00"/></linearGradient><linearGradient id="linear-gradient-3" x1="34.83" y1="29.7" x2="12.07" y2="6.95" gradientTransform="matrix(1, 0, 0, -1, 0, 62)" gradientUnits="userSpaceOnUse"><stop offset="0" stop-color="#ff3a44"/><stop offset="1" stop-color="#c31162"/></linearGradient><linearGradient id="linear-gradient-4" x1="17.3" y1="51.82" x2="27.46" y2="41.66" gradientTransform="matrix(1, 0, 0, -1, 0, 62)" gradientUnits="userSpaceOnUse"><stop offset="0" stop-color="#32a071"/><stop offset="0.07" stop-color="#2da771"/><stop offset="0.48" stop-color="#15cf74"/><stop offset="0.8" stop-color="#06e775"/><stop offset="1" stop-color="#00f076"/></linearGradient></defs><title>ky_get</title><g id="artwork"><rect width="155" height="60" style="fill:#fff;fill-opacity:0"/><rect x="10" y="10" width="135" height="40" rx="5" ry="5"/><path d="M140,10.8a4.2,4.2,0,0,1,4.2,4.2V45a4.2,4.2,0,0,1-4.2,4.2H15A4.2,4.2,0,0,1,10.8,45V15A4.2,4.2,0,0,1,15,10.8H140m0-.8H15a5,5,0,0,0-5,5V45a5,5,0,0,0,5,5H140a5,5,0,0,0,5-5V15a5,5,0,0,0-5-5Z" style="fill:#a6a6a6"/><path d="M74.72,22.79a3.72,3.72,0,1,0,3.73,3.72A3.66,3.66,0,0,0,74.72,22.79Zm0,6a2.26,2.26,0,1,1,2.1-2.25A2.15,2.15,0,0,1,74.72,28.76Zm-8.14-6a3.72,3.72,0,1,0,3.73,3.72A3.66,3.66,0,0,0,66.58,22.79Zm0,6a2.26,2.26,0,1,1,2.1-2.25A2.15,2.15,0,0,1,66.58,28.76ZM56.9,23.93v1.58h3.77a3.29,3.29,0,0,1-.86,2,3.86,3.86,0,0,1-2.91,1.15,4.2,4.2,0,0,1,0-8.39,4,4,0,0,1,2.84,1.13l1.11-1.11a5.5,5.5,0,0,0-4-1.59,5.77,5.77,0,1,0,0,11.55,5.28,5.28,0,0,0,4-1.62,5.21,5.21,0,0,0,1.37-3.69,5.14,5.14,0,0,0-.08-1Zm39.6,1.23a3.46,3.46,0,0,0-3.18-2.37,3.53,3.53,0,0,0-3.51,3.72,3.64,3.64,0,0,0,3.69,3.72,3.7,3.7,0,0,0,3.1-1.65l-1.27-.84a2.12,2.12,0,0,1-1.83,1,1.89,1.89,0,0,1-1.8-1.13l5-2.06ZM91.43,26.4a2,2,0,0,1,1.94-2.17,1.44,1.44,0,0,1,1.38.79Zm-4,3.61H89V19.07H87.39Zm-2.68-6.38h-.06a2.58,2.58,0,0,0-2-.83,3.72,3.72,0,0,0,0,7.44,2.53,2.53,0,0,0,2-.84h.06v.54c0,1.42-.76,2.18-2,2.18a2.06,2.06,0,0,1-1.87-1.32l-1.42.59a3.54,3.54,0,0,0,3.3,2.2c1.92,0,3.53-1.13,3.53-3.87V23H84.72Zm-1.87,5.14a2.26,2.26,0,0,1,0-4.51,2.1,2.1,0,0,1,2,2.27A2.08,2.08,0,0,1,82.84,28.76Zm21.31-9.69h-3.91V30h1.63V25.86h2.28a3.4,3.4,0,1,0,0-6.79Zm0,5.27h-2.32V20.59h2.32a1.87,1.87,0,1,1,0,3.75Zm10.08-1.57a3.06,3.06,0,0,0-2.91,1.67l1.45.6a1.55,1.55,0,0,1,1.49-.8A1.57,1.57,0,0,1,116,25.65v.11a3.61,3.61,0,0,0-1.7-.42c-1.56,0-3.15.86-3.15,2.46a2.52,2.52,0,0,0,2.71,2.4A2.3,2.3,0,0,0,116,29.14H116V30h1.57V25.79C117.59,23.85,116.15,22.77,114.28,22.77Zm-.2,6c-.53,0-1.28-.27-1.28-.93,0-.84.93-1.17,1.73-1.17A2.91,2.91,0,0,1,116,27,2,2,0,0,1,114.08,28.76ZM123.33,23l-1.87,4.74h-.06L119.46,23h-1.76l2.91,6.62L119,33.31h1.7L125.14,23Zm-14.69,7h1.63V19.07h-1.63Z" style="fill:#fff"/><path d="M20.44,17.54a2,2,0,0,0-.46,1.4V41.06a2,2,0,0,0,.46,1.4l.07.07L32.9,30.15v-.29L20.51,17.47Z" style="fill:url(#linear-gradient)"/><path d="M37,34.28,32.9,30.15v-.29L37,25.72l.09.05L42,28.56c1.4.79,1.4,2.09,0,2.89l-4.89,2.78Z" style="fill:url(#linear-gradient-2)"/><path d="M37.12,34.22,32.9,30,20.44,42.46a1.63,1.63,0,0,0,2.08.06l14.61-8.3" style="fill:url(#linear-gradient-3)"/><path d="M37.12,25.78l-14.61-8.3a1.63,1.63,0,0,0-2.08.06L32.9,30Z" style="fill:url(#linear-gradient-4)"/><path d="M37,34.13,22.51,42.38a1.67,1.67,0,0,1-2,0h0l-.07.07h0l.07.07h0a1.66,1.66,0,0,0,2,0l14.61-8.3Z" style="opacity:0.2;isolation:isolate"/><path d="M20.44,42.32a2,2,0,0,1-.46-1.4v.15a2,2,0,0,0,.46,1.4l.07-.07Z" style="opacity:0.12;isolation:isolate"/><path d="M42,31.3l-5,2.83.09.09L42,31.44a1.75,1.75,0,0,0,1-1.44h0A1.86,1.86,0,0,1,42,31.3Z" style="opacity:0.12;isolation:isolate"/><path d="M22.51,17.62,42,28.7a1.86,1.86,0,0,1,1,1.3h0a1.75,1.75,0,0,0-1-1.44L22.51,17.48c-1.4-.79-2.54-.13-2.54,1.47v.15C20,17.49,21.12,16.83,22.51,17.62Z" style="fill:#fff;opacity:0.25;isolation:isolate"/></g><g id="Layer_3" data-name="Layer 3"><path d="M52,36.93l-.17,2.19h-.47l-.17-2.19Z" style="fill:#fff;stroke:#fff;stroke-miterlimit:10;stroke-width:0.2px"/><path d="M57.91,44.6h-.73V43H53v1.6h-.73V42.32h.47a11.58,11.58,0,0,0,1.06-2.54,12.4,12.4,0,0,0,.53-2.85h2.81v5.39h.77Zm-1.53-2.28v-4.7H55A11.22,11.22,0,0,1,54.5,40a11.13,11.13,0,0,1-1,2.29Z" style="fill:#fff;stroke:#fff;stroke-miterlimit:10;stroke-width:0.2px"/><path d="M62.47,43H59.08V36.93h3.39v.67H59.84V39.5h2.47v.66H59.84v2.17h2.63Z" style="fill:#fff;stroke:#fff;stroke-miterlimit:10;stroke-width:0.2px"/><path d="M68.45,43h-.76V40.17H64.57V43h-.76V36.93h.76V39.5h3.11V36.93h.76Z" style="fill:#fff;stroke:#fff;stroke-miterlimit:10;stroke-width:0.2px"/><path d="M76.12,43l-.73-1.88H73L72.26,43h-.77l2.37-6.09h.69L76.92,43Zm-1-2.56-.68-1.84-.29-.91c-.08.33-.17.64-.26.91l-.69,1.84Z" style="fill:#fff;stroke:#fff;stroke-miterlimit:10;stroke-width:0.2px"/><path d="M82.75,43H82V37.6H80.06l-.13,1q-.26,2-.46,2.93A2.78,2.78,0,0,1,79,42.75a1.09,1.09,0,0,1-.85.35,1.42,1.42,0,0,1-.55-.1v-.64a1.07,1.07,0,0,0,.47.1c.22,0,.39-.14.52-.41A8.69,8.69,0,0,0,79,40.17q.23-1.46.46-3.24h3.32Z" style="fill:#fff;stroke:#fff;stroke-miterlimit:10;stroke-width:0.2px"/><path d="M88.39,41.22a1.62,1.62,0,0,1-.55,1.32,2.43,2.43,0,0,1-1.6.46H84.44V36.93h.76V39.5h.93a2.73,2.73,0,0,1,1.67.44A1.52,1.52,0,0,1,88.39,41.22Zm-3.18,1.13h1a1.7,1.7,0,0,0,1.08-.28,1,1,0,0,0,.34-.85.91.91,0,0,0-.36-.81,2.12,2.12,0,0,0-1.18-.25h-.85Zm4.88.65h-.77V36.93h.77Z" style="fill:#fff;stroke:#fff;stroke-miterlimit:10;stroke-width:0.2px"/><path d="M96.42,42.32h.73V44.6h-.73V43h-.75V40.17H92.55V43h-.76V36.93h.76V39.5h3.12V36.93h.75Z" style="fill:#fff;stroke:#fff;stroke-miterlimit:10;stroke-width:0.2px"/><path d="M102.28,41.22a1.62,1.62,0,0,1-.55,1.32,2.43,2.43,0,0,1-1.6.46H98.34V36.93h.76V39.5H100a2.73,2.73,0,0,1,1.67.44A1.52,1.52,0,0,1,102.28,41.22ZM99.1,42.35h1a1.7,1.7,0,0,0,1.08-.28,1,1,0,0,0,.34-.85.91.91,0,0,0-.36-.81,2.12,2.12,0,0,0-1.18-.25H99.1ZM104,43h-.77V36.93H104Z" style="fill:#fff;stroke:#fff;stroke-miterlimit:10;stroke-width:0.2px"/><path d="M109.31,38.35a1.3,1.3,0,0,1-.38,1,1.85,1.85,0,0,1-1.06.48v0a2.07,2.07,0,0,1,1.17.48,1.28,1.28,0,0,1,.4,1,1.55,1.55,0,0,1-.64,1.33,3,3,0,0,1-1.81.48,4.07,4.07,0,0,1-1.77-.33v-.7a4,4,0,0,0,.88.3,4.2,4.2,0,0,0,.88.1,2.1,2.1,0,0,0,1.24-.3,1,1,0,0,0,.42-.87.9.9,0,0,0-.47-.82,2.78,2.78,0,0,0-1.4-.28h-.87v-.64h.82a2.43,2.43,0,0,0,1.35-.3.93.93,0,0,0,.45-.81.83.83,0,0,0-.33-.7,1.42,1.42,0,0,0-.89-.25,3,3,0,0,0-.85.11,3.24,3.24,0,0,0-.83.41l-.37-.52a3.43,3.43,0,0,1,2.06-.63,2.38,2.38,0,0,1,1.47.41A1.31,1.31,0,0,1,109.31,38.35Z" style="fill:#fff;stroke:#fff;stroke-miterlimit:10;stroke-width:0.2px"/></g></svg>