<svg id="artwork" xmlns="http://www.w3.org/2000/svg" xmlns:xlink="http://www.w3.org/1999/xlink" viewBox="0 0 155 60"><defs><linearGradient id="linear-gradient" x1="31.8" y1="183.29" x2="15.02" y2="166.51" gradientTransform="matrix(1, 0, 0, -1, 0, 202)" gradientUnits="userSpaceOnUse"><stop offset="0" stop-color="#00a0ff"/><stop offset="0.01" stop-color="#00a1ff"/><stop offset="0.26" stop-color="#00beff"/><stop offset="0.51" stop-color="#00d2ff"/><stop offset="0.76" stop-color="#00dfff"/><stop offset="1" stop-color="#00e3ff"/></linearGradient><linearGradient id="linear-gradient-2" x1="43.83" y1="172" x2="19.64" y2="172" gradientTransform="matrix(1, 0, 0, -1, 0, 202)" gradientUnits="userSpaceOnUse"><stop offset="0" stop-color="#ffe000"/><stop offset="0.41" stop-color="#ffbd00"/><stop offset="0.78" stop-color="orange"/><stop offset="1" stop-color="#ff9c00"/></linearGradient><linearGradient id="linear-gradient-3" x1="34.83" y1="169.7" x2="12.07" y2="146.95" gradientTransform="matrix(1, 0, 0, -1, 0, 202)" gradientUnits="userSpaceOnUse"><stop offset="0" stop-color="#ff3a44"/><stop offset="1" stop-color="#c31162"/></linearGradient><linearGradient id="linear-gradient-4" x1="17.3" y1="191.82" x2="27.46" y2="181.66" gradientTransform="matrix(1, 0, 0, -1, 0, 202)" gradientUnits="userSpaceOnUse"><stop offset="0" stop-color="#32a071"/><stop offset="0.07" stop-color="#2da771"/><stop offset="0.48" stop-color="#15cf74"/><stop offset="0.8" stop-color="#06e775"/><stop offset="1" stop-color="#00f076"/></linearGradient></defs><title>lo_get</title><rect width="155" height="60" style="fill:#fff;fill-opacity:0"/><rect x="10" y="10" width="135" height="40" rx="5" ry="5"/><path d="M140,10.8a4.2,4.2,0,0,1,4.2,4.2V45a4.2,4.2,0,0,1-4.2,4.2H15A4.2,4.2,0,0,1,10.8,45V15A4.2,4.2,0,0,1,15,10.8H140m0-.8H15a5,5,0,0,0-5,5V45a5,5,0,0,0,5,5H140a5,5,0,0,0,5-5V15a5,5,0,0,0-5-5Z" style="fill:#a6a6a6"/><path d="M78.14,31.75A4.25,4.25,0,1,0,82.41,36,4.19,4.19,0,0,0,78.14,31.75Zm0,6.83A2.58,2.58,0,1,1,80.54,36,2.46,2.46,0,0,1,78.14,38.58Zm-9.31-6.83A4.25,4.25,0,1,0,73.09,36,4.19,4.19,0,0,0,68.82,31.75Zm0,6.83A2.58,2.58,0,1,1,71.22,36,2.46,2.46,0,0,1,68.82,38.58ZM57.74,33.06v1.8h4.32a3.77,3.77,0,0,1-1,2.27,4.42,4.42,0,0,1-3.33,1.32,4.8,4.8,0,0,1,0-9.6A4.6,4.6,0,0,1,61,30.14l1.27-1.27A6.29,6.29,0,0,0,57.74,27a6.61,6.61,0,1,0,0,13.21,6,6,0,0,0,4.61-1.85,6,6,0,0,0,1.56-4.22,5.87,5.87,0,0,0-.1-1.13Zm45.31,1.4a4,4,0,0,0-3.64-2.71,4,4,0,0,0-4,4.25,4.16,4.16,0,0,0,4.22,4.25,4.23,4.23,0,0,0,3.54-1.88l-1.45-1a2.43,2.43,0,0,1-2.09,1.18,2.16,2.16,0,0,1-2.06-1.29l5.69-2.35Zm-5.8,1.42a2.33,2.33,0,0,1,2.22-2.48,1.65,1.65,0,0,1,1.58.9ZM92.63,40H94.5V27.5H92.63Zm-3.06-7.3H89.5a3,3,0,0,0-2.24-1,4.26,4.26,0,0,0,0,8.51,2.9,2.9,0,0,0,2.24-1h.06v.61c0,1.63-.87,2.5-2.27,2.5a2.35,2.35,0,0,1-2.14-1.51l-1.63.68a4.05,4.05,0,0,0,3.77,2.51c2.19,0,4-1.29,4-4.43V32H89.57Zm-2.14,5.88a2.59,2.59,0,0,1,0-5.16A2.4,2.4,0,0,1,89.7,36,2.38,2.38,0,0,1,87.42,38.58ZM111.81,27.5h-4.47V40h1.87V35.26h2.61a3.89,3.89,0,1,0,0-7.76Zm0,6H109.2V29.24h2.65a2.14,2.14,0,1,1,0,4.29Zm11.53-1.8a3.5,3.5,0,0,0-3.33,1.91l1.66.69a1.77,1.77,0,0,1,1.7-.92,1.8,1.8,0,0,1,2,1.61v.13a4.13,4.13,0,0,0-1.95-.48c-1.79,0-3.6,1-3.6,2.81a2.89,2.89,0,0,0,3.1,2.75A2.63,2.63,0,0,0,125.32,39h.06v1h1.8V35.19C127.18,33,125.52,31.73,123.39,31.73Zm-.23,6.85c-.61,0-1.46-.31-1.46-1.06,0-1,1.06-1.33,2-1.33a3.32,3.32,0,0,1,1.7.42A2.26,2.26,0,0,1,123.16,38.58ZM133.74,32l-2.14,5.42h-.06L129.32,32h-2l3.33,7.58-1.9,4.21h1.95L135.82,32Zm-16.81,8h1.87V27.5h-1.87Z" style="fill:#fff"/><path d="M20.44,17.54a2,2,0,0,0-.46,1.4V41.06a2,2,0,0,0,.46,1.4l.07.07L32.9,30.15v-.29L20.51,17.47Z" style="fill:url(#linear-gradient)"/><path d="M37,34.28,32.9,30.15v-.29L37,25.72l.09.05L42,28.56c1.4.79,1.4,2.09,0,2.89l-4.89,2.78Z" style="fill:url(#linear-gradient-2)"/><path d="M37.12,34.22,32.9,30,20.44,42.46a1.63,1.63,0,0,0,2.08.06l14.61-8.3" style="fill:url(#linear-gradient-3)"/><path d="M37.12,25.78l-14.61-8.3a1.63,1.63,0,0,0-2.08.06L32.9,30Z" style="fill:url(#linear-gradient-4)"/><path d="M37,34.13,22.51,42.38a1.67,1.67,0,0,1-2,0h0l-.07.07h0l.07.07h0a1.66,1.66,0,0,0,2,0l14.61-8.3Z" style="opacity:0.2;isolation:isolate"/><path d="M20.44,42.32a2,2,0,0,1-.46-1.4v.15a2,2,0,0,0,.46,1.4l.07-.07Z" style="opacity:0.12;isolation:isolate"/><path d="M42,31.3l-5,2.83.09.09L42,31.44a1.75,1.75,0,0,0,1-1.44h0A1.86,1.86,0,0,1,42,31.3Z" style="opacity:0.12;isolation:isolate"/><path d="M22.51,17.62,42,28.7a1.86,1.86,0,0,1,1,1.3h0a1.75,1.75,0,0,0-1-1.44L22.51,17.48c-1.4-.79-2.54-.13-2.54,1.47v.15C20,17.49,21.12,16.83,22.51,17.62Z" style="fill:#fff;opacity:0.25;isolation:isolate"/><path d="M51.15,19.23q0-2.08,2.6-2.08t2.58,2.08v3.6c0,.11-.11.17-.34.17s-.35-.06-.35-.17v-3.6q0-1.44-1.89-1.44t-1.9,1.44v2.43l0-.07a.81.81,0,0,1,.6-.21q.8,0,.8.71a1.29,1.29,0,0,1,0,.16q0,.74-.91.75-1.24,0-1.24-1.51Zm1.24,2.62q-.36,0-.36.34t.36.35q.36,0,.36-.35T52.39,21.85Z" style="fill:#fff;stroke:#fff;stroke-miterlimit:10;stroke-width:0.2px"/><path d="M59.51,23q-.32,0-.32-.17V18.75q0-.79-.56-.86a.66.66,0,0,1,.22.48q0,.89-.72.89H58q-.76,0-.77-.95a1.06,1.06,0,0,1,1.18-1.17q1.45,0,1.45,1.62v4.06C59.82,22.94,59.72,23,59.51,23Zm-1.14-4.62a.35.35,0,1,0-.35.36A.31.31,0,0,0,58.37,18.38Z" style="fill:#fff;stroke:#fff;stroke-miterlimit:10;stroke-width:0.2px"/><path d="M62.81,22.28a3.17,3.17,0,0,0,.63.07,4.62,4.62,0,0,0,.71-.06,2.3,2.3,0,0,0,.67-.21,1.27,1.27,0,0,0,.49-.42,1.23,1.23,0,0,0,.19-.71V19.34a1.31,1.31,0,0,0-.18-.71,1.42,1.42,0,0,0-.47-.47,2.17,2.17,0,0,0-.66-.26,3.34,3.34,0,0,0-.72-.08,4.14,4.14,0,0,0-.53,0,2.37,2.37,0,0,0-.59.15,1.37,1.37,0,0,0-.47.31.75.75,0,0,0-.22.34c0,.1-.14.14-.35.15h0c-.2,0-.3-.08-.3-.23a1,1,0,0,1,.25-.55,1.8,1.8,0,0,1,.61-.51,3,3,0,0,1,.81-.28,4.33,4.33,0,0,1,.83-.09,4.16,4.16,0,0,1,1,.12,2.54,2.54,0,0,1,.86.38,2,2,0,0,1,.61.67,2,2,0,0,1,.23,1V21a1.76,1.76,0,0,1-.24.95,1.9,1.9,0,0,1-.62.62,2.6,2.6,0,0,1-.87.33,5,5,0,0,1-1,.1,3,3,0,0,1-.92-.15,3.71,3.71,0,0,1-.76-.33,1.75,1.75,0,0,1-.56-.5,1.23,1.23,0,0,1-.23-.75,1,1,0,0,1,.24-.69,1.06,1.06,0,0,1,.67-.34,1.34,1.34,0,0,1,.54.1,1,1,0,0,1,.34.25.83.83,0,0,1,.17.33,1.28,1.28,0,0,1,0,.33,1,1,0,0,1-.17.55.75.75,0,0,1-.55.3A1.52,1.52,0,0,0,62.81,22.28ZM62.35,21a.36.36,0,0,0-.26-.1.38.38,0,0,0-.28.1.33.33,0,0,0-.11.25.32.32,0,0,0,.11.25.4.4,0,0,0,.28.09.38.38,0,0,0,.26-.09.33.33,0,0,0,.1-.25h0A.32.32,0,0,0,62.35,21Z" style="fill:#fff;stroke:#fff;stroke-miterlimit:10;stroke-width:0.2px"/><path d="M67.06,14.68a.2.2,0,0,0-.05.13.46.46,0,0,0,.18.3l1.44,1.42.66.57h0a1.15,1.15,0,0,0-.74.42,1.25,1.25,0,0,0-.16.54V21.4q0,.54.1.56a.61.61,0,0,1,.7-.6.57.57,0,0,1,.65.63q0,1-.88,1-1.19,0-1.25-1.6V18.09a1.68,1.68,0,0,1,.15-.65,1.41,1.41,0,0,1,.26-.42l-1.47-1.48a1,1,0,0,1-.32-.74,1,1,0,0,1,.25-.66,1,1,0,0,1,.7-.3,1.09,1.09,0,0,1,.78.31l.53.54q.74.78,1.14.78h.1v.57a1.15,1.15,0,0,1-.32.05.73.73,0,0,1-.29-.06,5.14,5.14,0,0,1-1.09-.92l-.42-.41a.44.44,0,0,0-.33-.22A.45.45,0,0,0,67.06,14.68ZM69.38,22q0-.27-.25-.27t-.25.27q0,.27.25.27T69.38,22Z" style="fill:#fff;stroke:#fff;stroke-miterlimit:10;stroke-width:0.2px"/><path d="M74.26,21.19A1.6,1.6,0,0,1,72.44,23a1.56,1.56,0,0,1-1.76-1.76,3.26,3.26,0,0,1,.51-1.81,4.76,4.76,0,0,0,.28-.51q-.8,0-.79-.88t.81-.89q.82,0,.82.89a3.2,3.2,0,0,1-.47,1.58,3.25,3.25,0,0,0-.47,1.62,1,1,0,0,0,1.08,1.08,1,1,0,0,0,1.14-1.12V18.62h-.19q-.7,0-.7-.74t.65-.73a.78.78,0,0,1,.8.52,2.22,2.22,0,0,1,1.27-.52,1.27,1.27,0,0,1,1.41,1.43v4.19c0,.15-.11.23-.34.23s-.34-.08-.35-.24V18.57a.65.65,0,0,0-.73-.73,1.64,1.64,0,0,0-1.1.39.25.25,0,0,0,0,.12Zm-2.85-2.77q.28,0,.28-.38t-.28-.37q-.28,0-.28.37C71.14,18.29,71.23,18.42,71.42,18.42Zm1.93-.78a.23.23,0,0,0-.24.23c0,.15.09.23.27.23h.2Q73.55,17.64,73.34,17.64Z" style="fill:#fff;stroke:#fff;stroke-miterlimit:10;stroke-width:0.2px"/><path d="M82.09,23a1.14,1.14,0,0,1-.62-.2,1.46,1.46,0,0,1-.52-.7,1.79,1.79,0,0,0-.52-.75,1.24,1.24,0,0,0-.68-.27h-.13q-.7,0-.78.49a.71.71,0,0,1,.51-.22q.94.1.94.72a1.41,1.41,0,0,1,0,.16q0,.76-1,.77Q78,23,78,21.66t1.59-1.26h.07a2.72,2.72,0,0,1,1.08.34,1.87,1.87,0,0,1,.74.9q.28.63.56.63.46,0,.46-.3V18.9q0-1.05-1.78-1.05h-.14q-1.88,0-1.89.89c0,.11-.11.16-.34.16s-.34-.05-.34-.16q0-1.58,2.59-1.58t2.59,1.75V22Q83.23,23,82.09,23Zm-2.71-.44q.38,0,.38-.35t-.38-.35q-.39,0-.38.35T79.38,22.56Z" style="fill:#fff;stroke:#fff;stroke-miterlimit:10;stroke-width:0.2px"/><path d="M84.58,19.23q0-2.08,2.6-2.08t2.58,2.08v3.6c0,.11-.11.17-.34.17s-.35-.06-.35-.17v-3.6q0-1.44-1.89-1.44t-1.9,1.44v2.43l0-.07a.81.81,0,0,1,.6-.21q.8,0,.8.71a1.27,1.27,0,0,1,0,.16q0,.74-.91.75-1.24,0-1.24-1.51Zm1.24,2.62q-.36,0-.36.34t.36.35q.36,0,.36-.35T85.82,21.85Z" style="fill:#fff;stroke:#fff;stroke-miterlimit:10;stroke-width:0.2px"/><path d="M91.3,18.56a.91.91,0,0,1,.08-.41,1.28,1.28,0,0,1,.17-.27,1.45,1.45,0,0,1,.23-.21l.33-.24.18-.11.23-.14a1.22,1.22,0,0,0,.21-.15.21.21,0,0,0,.08-.15.11.11,0,0,0-.06-.11l-.12,0a1.3,1.3,0,0,0-.43.14,1.28,1.28,0,0,1-.47.14.6.6,0,0,1-.48-.21,1.77,1.77,0,0,1-.3-.71,4.82,4.82,0,0,0-.37-1.1,3,3,0,0,0-.64-.68l.5-.5a2.65,2.65,0,0,1,.52.51,2,2,0,0,1,.31.54l.12.32s0,.14.08.28.07.24.1.36,0,.21.07.27a.78.78,0,0,0,.08.17.15.15,0,0,0,.13.07.91.91,0,0,0,.36-.14,1,1,0,0,1,.51-.14.89.89,0,0,1,.52.18.61.61,0,0,1,.26.53.72.72,0,0,1-.11.4,1.42,1.42,0,0,1-.26.29,2.4,2.4,0,0,1-.34.25l-.34.22-.31.24a.42.42,0,0,0-.17.3V21.4c0,.36,0,.54.09.56a.61.61,0,0,1,.7-.6.57.57,0,0,1,.65.63q0,1-.88,1-1.19,0-1.24-1.6ZM92.49,22q0,.27.25.27T93,22c0-.18-.08-.27-.25-.27S92.49,21.84,92.49,22Z" style="fill:#fff;stroke:#fff;stroke-miterlimit:10;stroke-width:0.2px"/><path d="M94.44,19.23q0-2.08,2.6-2.08t2.58,2.08v3.6c0,.11-.11.17-.34.17s-.35-.06-.35-.17v-3.6q0-1.44-1.89-1.44t-1.9,1.44v2.43l0-.07a.81.81,0,0,1,.6-.21q.8,0,.8.71a1.29,1.29,0,0,1,0,.16q0,.74-.91.75-1.24,0-1.24-1.51Zm1.24,2.62q-.36,0-.36.34t.36.35q.36,0,.36-.35T95.68,21.85Z" style="fill:#fff;stroke:#fff;stroke-miterlimit:10;stroke-width:0.2px"/><path d="M98.51,15.4a.49.49,0,0,1-.16-.38V15a.58.58,0,0,1,.25-.44.73.73,0,0,1,.43-.13h.11a.51.51,0,0,1,.43.25,1.06,1.06,0,0,1,.1.49v.05a1.28,1.28,0,0,1-.46.77,1.92,1.92,0,0,0,1.16-.42,2.26,2.26,0,0,0,.62-1l.62.31a3.23,3.23,0,0,1-.6.92,2.15,2.15,0,0,1-.75.44,3.53,3.53,0,0,1-1.18.17H98V16a1.74,1.74,0,0,0,1-.47A.8.8,0,0,1,98.51,15.4Zm.68-.36a.21.21,0,0,0,0-.08.19.19,0,0,0-.17-.13h0a.18.18,0,0,0-.15.18v0a.14.14,0,0,0,.13.16l.15,0h.08A.51.51,0,0,0,99.19,15Z" style="fill:#fff;stroke:#fff;stroke-miterlimit:10;stroke-width:0.2px"/><path d="M104.07,17.82q-1.85,0-1.85.84,0,.23-.4.23t-.4-.23q0-1.5,2.66-1.5t2.52,1.55c0,.06,0,.12,0,.18v3.06q0,1-1.13,1.05a1,1,0,0,1-1-.55,1.14,1.14,0,0,1-.11-.47,1.07,1.07,0,0,1,.15-.54,5.57,5.57,0,0,0,.27-.51.7.7,0,0,1-.45.1h0a.94.94,0,0,1-.9-1V20q0-.82,1-1h0q1,0,1.17.75a2.69,2.69,0,0,1,0,.48,1.57,1.57,0,0,1-.19.78,2.09,2.09,0,0,0-.31.87.2.2,0,0,0,0,0c0,.22.13.36.38.4h.05q.35,0,.39-.41v-3Q105.91,17.82,104.07,17.82Zm0,2.2v0q0,.33.38.33h0c.27,0,.4-.12.4-.36s-.13-.35-.38-.35S104.1,19.78,104.09,20Z" style="fill:#fff;stroke:#fff;stroke-miterlimit:10;stroke-width:0.2px"/><path d="M109.81,23c-.21,0-.32-.06-.32-.17V18.75q0-.79-.56-.86a.66.66,0,0,1,.22.48q0,.89-.72.89h-.16q-.76,0-.77-.95a1.06,1.06,0,0,1,1.18-1.17q1.45,0,1.45,1.62v4.06C110.12,22.94,110,23,109.81,23Zm-1.14-4.62a.35.35,0,1,0-.35.36A.32.32,0,0,0,108.67,18.38Z" style="fill:#fff;stroke:#fff;stroke-miterlimit:10;stroke-width:0.2px"/><path d="M113.15,22.12q0,.81-1,.88a.8.8,0,0,1-.89-.83.83.83,0,0,1,.66-.8l.19,0a.57.57,0,0,1,.33.08V18.68l-.32,0q-.87-.07-.87-.81t.8-.75a1.2,1.2,0,0,1,1.08.55,3.34,3.34,0,0,1,1.68-.55q1.85,0,2,1.4v4.27c0,.12-.11.18-.34.18s-.35-.07-.35-.22V18.57q0-.69-1.3-.77a3.53,3.53,0,0,0-1.23.32,2.36,2.36,0,0,0-.45.31Zm-1-4.48c-.21,0-.31.07-.31.22a.23.23,0,0,0,.21.26h.08a.7.7,0,0,0,.37-.13A.37.37,0,0,0,112.1,17.65Zm.35,4.56q0-.31-.33-.31t-.33.31q0,.31.33.31T112.46,22.21Z" style="fill:#fff;stroke:#fff;stroke-miterlimit:10;stroke-width:0.2px"/></svg>