<svg id="artwork" xmlns="http://www.w3.org/2000/svg" xmlns:xlink="http://www.w3.org/1999/xlink" viewBox="0 0 155 60"><defs><linearGradient id="linear-gradient" x1="31.8" y1="-96.71" x2="15.02" y2="-113.49" gradientTransform="matrix(1, 0, 0, -1, 0, -78)" gradientUnits="userSpaceOnUse"><stop offset="0" stop-color="#00a0ff"/><stop offset="0.01" stop-color="#00a1ff"/><stop offset="0.26" stop-color="#00beff"/><stop offset="0.51" stop-color="#00d2ff"/><stop offset="0.76" stop-color="#00dfff"/><stop offset="1" stop-color="#00e3ff"/></linearGradient><linearGradient id="linear-gradient-2" x1="43.83" y1="-108" x2="19.64" y2="-108" gradientTransform="matrix(1, 0, 0, -1, 0, -78)" gradientUnits="userSpaceOnUse"><stop offset="0" stop-color="#ffe000"/><stop offset="0.41" stop-color="#ffbd00"/><stop offset="0.78" stop-color="orange"/><stop offset="1" stop-color="#ff9c00"/></linearGradient><linearGradient id="linear-gradient-3" x1="34.83" y1="-110.3" x2="12.07" y2="-133.05" gradientTransform="matrix(1, 0, 0, -1, 0, -78)" gradientUnits="userSpaceOnUse"><stop offset="0" stop-color="#ff3a44"/><stop offset="1" stop-color="#c31162"/></linearGradient><linearGradient id="linear-gradient-4" x1="17.3" y1="-88.18" x2="27.46" y2="-98.34" gradientTransform="matrix(1, 0, 0, -1, 0, -78)" gradientUnits="userSpaceOnUse"><stop offset="0" stop-color="#32a071"/><stop offset="0.07" stop-color="#2da771"/><stop offset="0.48" stop-color="#15cf74"/><stop offset="0.8" stop-color="#06e775"/><stop offset="1" stop-color="#00f076"/></linearGradient></defs><title>ml_get</title><rect width="155" height="60" style="fill:#fff;fill-opacity:0"/><rect x="10" y="10" width="135" height="40" rx="5" ry="5"/><path d="M140,10.8a4.2,4.2,0,0,1,4.2,4.2V45a4.2,4.2,0,0,1-4.2,4.2H15A4.2,4.2,0,0,1,10.8,45V15A4.2,4.2,0,0,1,15,10.8H140m0-.8H15a5,5,0,0,0-5,5V45a5,5,0,0,0,5,5H140a5,5,0,0,0,5-5V15a5,5,0,0,0-5-5Z" style="fill:#a6a6a6"/><path d="M74.72,26.79a3.72,3.72,0,1,0,3.73,3.72A3.66,3.66,0,0,0,74.72,26.79Zm0,6a2.26,2.26,0,1,1,2.1-2.25A2.15,2.15,0,0,1,74.72,32.76Zm-8.14-6a3.72,3.72,0,1,0,3.73,3.72A3.66,3.66,0,0,0,66.58,26.79Zm0,6a2.26,2.26,0,1,1,2.1-2.25A2.15,2.15,0,0,1,66.58,32.76ZM56.9,27.93v1.58h3.77a3.29,3.29,0,0,1-.86,2,3.86,3.86,0,0,1-2.91,1.15,4.2,4.2,0,0,1,0-8.39,4,4,0,0,1,2.84,1.13l1.11-1.11a5.5,5.5,0,0,0-4-1.59,5.77,5.77,0,1,0,0,11.55,5.28,5.28,0,0,0,4-1.62,5.21,5.21,0,0,0,1.37-3.69,5.14,5.14,0,0,0-.08-1Zm39.6,1.23a3.46,3.46,0,0,0-3.18-2.37,3.53,3.53,0,0,0-3.51,3.72,3.64,3.64,0,0,0,3.69,3.72,3.7,3.7,0,0,0,3.1-1.65l-1.27-.84a2.12,2.12,0,0,1-1.83,1,1.89,1.89,0,0,1-1.8-1.13l5-2.06ZM91.43,30.4a2,2,0,0,1,1.94-2.17,1.44,1.44,0,0,1,1.38.79Zm-4,3.61H89V23.07H87.39Zm-2.68-6.38h-.06a2.58,2.58,0,0,0-2-.83,3.72,3.72,0,0,0,0,7.44,2.53,2.53,0,0,0,2-.84h.06v.54c0,1.42-.76,2.18-2,2.18a2.06,2.06,0,0,1-1.87-1.32l-1.42.59a3.54,3.54,0,0,0,3.3,2.2c1.92,0,3.53-1.13,3.53-3.87V27H84.72Zm-1.87,5.14a2.26,2.26,0,0,1,0-4.51,2.1,2.1,0,0,1,2,2.27A2.08,2.08,0,0,1,82.84,32.76Zm21.31-9.69h-3.91V34h1.63V29.86h2.28a3.4,3.4,0,1,0,0-6.79Zm0,5.27h-2.32V24.59h2.32a1.87,1.87,0,1,1,0,3.75Zm10.08-1.57a3.06,3.06,0,0,0-2.91,1.67l1.45.6a1.55,1.55,0,0,1,1.49-.8A1.57,1.57,0,0,1,116,29.65v.11a3.61,3.61,0,0,0-1.7-.42c-1.56,0-3.15.86-3.15,2.46a2.52,2.52,0,0,0,2.71,2.4A2.3,2.3,0,0,0,116,33.14H116V34h1.57V29.79C117.59,27.85,116.15,26.77,114.28,26.77Zm-.2,6c-.53,0-1.28-.27-1.28-.93,0-.84.93-1.17,1.73-1.17A2.9,2.9,0,0,1,116,31,2,2,0,0,1,114.08,32.76ZM123.33,27l-1.87,4.74h-.06L119.46,27h-1.76l2.91,6.62L119,37.31h1.7L125.14,27Zm-14.69,7h1.63V23.07h-1.63Z" style="fill:#fff"/><path d="M20.44,17.54a2,2,0,0,0-.46,1.4V41.06a2,2,0,0,0,.46,1.4l.07.07L32.9,30.15v-.29L20.51,17.47Z" style="fill:url(#linear-gradient)"/><path d="M37,34.28,32.9,30.15v-.29L37,25.72l.09.05L42,28.56c1.4.79,1.4,2.09,0,2.89l-4.89,2.78Z" style="fill:url(#linear-gradient-2)"/><path d="M37.12,34.22,32.9,30,20.44,42.46a1.63,1.63,0,0,0,2.08.06l14.61-8.3" style="fill:url(#linear-gradient-3)"/><path d="M37.12,25.78l-14.61-8.3a1.63,1.63,0,0,0-2.08.06L32.9,30Z" style="fill:url(#linear-gradient-4)"/><path d="M37,34.13,22.51,42.38a1.67,1.67,0,0,1-2,0h0l-.07.07h0l.07.07h0a1.66,1.66,0,0,0,2,0l14.61-8.3Z" style="opacity:0.2;isolation:isolate"/><path d="M20.44,42.32a2,2,0,0,1-.46-1.4v.15a2,2,0,0,0,.46,1.4l.07-.07Z" style="opacity:0.12;isolation:isolate"/><path d="M42,31.3l-5,2.83.09.09L42,31.44a1.75,1.75,0,0,0,1-1.44h0A1.86,1.86,0,0,1,42,31.3Z" style="opacity:0.12;isolation:isolate"/><path d="M22.51,17.62,42,28.7a1.86,1.86,0,0,1,1,1.3h0a1.75,1.75,0,0,0-1-1.44L22.51,17.48c-1.4-.79-2.54-.13-2.54,1.47v.15C20,17.49,21.12,16.83,22.51,17.62Z" style="fill:#fff;opacity:0.25;isolation:isolate"/><path d="M51.19,43.07v-.7h2.06v.7Z" style="fill:#fff;stroke:#fff;stroke-miterlimit:10;stroke-width:0.2px"/><path d="M56.88,40.57A1.78,1.78,0,0,1,58,40.18a1.66,1.66,0,0,1,1.3.54,2.12,2.12,0,0,1,.48,1.46,3,3,0,0,1-.29,1.3,2.66,2.66,0,0,1-.82,1,2.72,2.72,0,0,0,.48,0,2,2,0,0,0,1.53-.59,2.23,2.23,0,0,0,.55-1.58,2.86,2.86,0,0,0-.16-.94,2.58,2.58,0,0,0-.46-.83l.59-.4a3.18,3.18,0,0,1,.58,1,3.42,3.42,0,0,1,.2,1.15,3,3,0,0,1-.34,1.46,2.31,2.31,0,0,1-1,1,3.2,3.2,0,0,1-1.5.34A3,3,0,0,1,58,44.88a3.23,3.23,0,0,1-1.24.22,3,3,0,0,1-1.5-.36,2.47,2.47,0,0,1-1-1,3.28,3.28,0,0,1-.36-1.55,2,2,0,0,1,.5-1.44,1.91,1.91,0,0,1,2.49-.15Zm-.42.51a.93.93,0,0,0-.72-.31,1,1,0,0,0-.81.37,1.6,1.6,0,0,0-.3,1,2.7,2.7,0,0,0,.26,1.19,2,2,0,0,0,.76.85,2.16,2.16,0,0,0,1.16.31,2.88,2.88,0,0,0,.49,0,2.8,2.8,0,0,1-.83-1,3.12,3.12,0,0,1-.27-1.33A2.1,2.1,0,0,1,56.45,41.08ZM58,44.27a2,2,0,0,0,.79-.85,2.67,2.67,0,0,0,.29-1.25,1.68,1.68,0,0,0-.28-1,.9.9,0,0,0-.76-.37.94.94,0,0,0-.78.37,1.64,1.64,0,0,0-.29,1,2.76,2.76,0,0,0,.28,1.22A2.06,2.06,0,0,0,58,44.27Z" style="fill:#fff;stroke:#fff;stroke-miterlimit:10;stroke-width:0.2px"/><path d="M60.74,39.68a1.94,1.94,0,0,1,0-.41,1.36,1.36,0,0,1,.42-1,1.53,1.53,0,0,1,1.08-.39,1.59,1.59,0,0,1,1,.29,1.41,1.41,0,0,1,.5.73,5.17,5.17,0,0,1,.13,1.32V45h-.73V40.39A6.92,6.92,0,0,0,63,39.2a1,1,0,0,0-.27-.58.73.73,0,0,0-.52-.19.75.75,0,0,0-.79.81,1.56,1.56,0,0,0,0,.31Z" style="fill:#fff;stroke:#fff;stroke-miterlimit:10;stroke-width:0.2px"/><path d="M69.2,40.95a2.75,2.75,0,0,1,.77,1,2.82,2.82,0,0,1,.27,1.22,2.11,2.11,0,0,1-.45,1.44,1.83,1.83,0,0,1-2.55,0,2.09,2.09,0,0,1-.46-1.44A2.65,2.65,0,0,1,68,40.86a2.42,2.42,0,0,0-.73-.1,2.22,2.22,0,0,0-1,.23,1.62,1.62,0,0,0-.69.67,2.08,2.08,0,0,0-.24,1,2,2,0,0,0,1,1.86l-.42.54a2.63,2.63,0,0,1-1-1,2.84,2.84,0,0,1-.36-1.43,2.53,2.53,0,0,1,.33-1.3,2.2,2.2,0,0,1,.93-.87,3.24,3.24,0,0,1,2.8,0,3.5,3.5,0,0,1,.8-.25,5.4,5.4,0,0,1,1-.08,4.29,4.29,0,0,1,1.71.29,2.4,2.4,0,0,0,.46-.53,1,1,0,0,0,.13-.47.56.56,0,0,0-.17-.43.68.68,0,0,0-.49-.16,2.14,2.14,0,0,0-.63.09l-.17-.58a3.4,3.4,0,0,1,.91-.12,1.57,1.57,0,0,1,.7.14,1,1,0,0,1,.44.39,1,1,0,0,1,.15.52,1.49,1.49,0,0,1-.17.7,3,3,0,0,1-.58.73,2.69,2.69,0,0,1,1,1A2.75,2.75,0,0,1,74,43.12a2.18,2.18,0,0,1-.45,1.46,1.58,1.58,0,0,1-1.27.52,1.56,1.56,0,0,1-1.25-.5,2.13,2.13,0,0,1-.44-1.44A2.74,2.74,0,0,1,70.9,42,3.64,3.64,0,0,1,71.65,41a4.46,4.46,0,0,0-1.25-.16A4.34,4.34,0,0,0,69.2,40.95Zm-.61.25a2,2,0,0,0-1.08,1.93,1.76,1.76,0,0,0,.25,1,.85.85,0,0,0,.74.35q1,0,1-1.38A2.56,2.56,0,0,0,69.25,42,2.25,2.25,0,0,0,68.59,41.19Zm3.67,0a2.89,2.89,0,0,0-.65.93,2.61,2.61,0,0,0-.21,1,1.69,1.69,0,0,0,.24,1,.91.91,0,0,0,1.41,0,1.68,1.68,0,0,0,.24-1A2.47,2.47,0,0,0,73,42,2,2,0,0,0,72.26,41.21Z" style="fill:#fff;stroke:#fff;stroke-miterlimit:10;stroke-width:0.2px"/><path d="M84,42.71a4.91,4.91,0,0,0,.08,1,1,1,0,0,0,.33.56,1,1,0,0,0,.66.2A1.1,1.1,0,0,0,86,44a2.07,2.07,0,0,0,.35-1.27,2.55,2.55,0,0,0-.26-1.15,2.34,2.34,0,0,0-.76-.87l.51-.54a3.36,3.36,0,0,1,1,1.15,3.25,3.25,0,0,1,.29,1.41,2.5,2.5,0,0,1-.56,1.72A1.93,1.93,0,0,1,85,45.1,2.12,2.12,0,0,1,84.2,45a1.4,1.4,0,0,1-.58-.42,1.58,1.58,0,0,1-.32-.67,5.21,5.21,0,0,1-.09-1.08v-.3a4.12,4.12,0,0,0-.09-1,.91.91,0,0,0-.32-.49.94.94,0,0,0-.58-.17.91.91,0,0,0-.58.19.93.93,0,0,0-.32.51,3.62,3.62,0,0,0-.09.89V45H80.5V42.52a4.26,4.26,0,0,0-.08-1,1,1,0,0,0-.34-.55,1,1,0,0,0-.66-.22,1.14,1.14,0,0,0-.67.22,1.46,1.46,0,0,0-.48.62,2.21,2.21,0,0,0-.18.9,2.3,2.3,0,0,0,1,2l-.49.54a3.41,3.41,0,0,1-1-1.14,3.13,3.13,0,0,1-.3-1.41,2.74,2.74,0,0,1,.26-1.21,2,2,0,0,1,.74-.84,2.08,2.08,0,0,1,1.11-.3,1.56,1.56,0,0,1,1.43.78,1.58,1.58,0,0,1,1.45-.78,1.6,1.6,0,0,1,.88.23,1.5,1.5,0,0,1,.56.66,3.48,3.48,0,0,1,.2,1.36Z" style="fill:#fff;stroke:#fff;stroke-miterlimit:10;stroke-width:0.2px"/><path d="M88.56,40.29v6.06H85.65v-.61h2.17V40.29Z" style="fill:#fff;stroke:#fff;stroke-miterlimit:10;stroke-width:0.2px"/><path d="M91,45h-.73V40.53a7.36,7.36,0,0,0-.06-1,1.5,1.5,0,0,0-.24-.65,1,1,0,0,0-.49-.38.92.92,0,0,1,.12.51,1,1,0,0,1-.31.8,1.29,1.29,0,0,1-.9.29,1.21,1.21,0,0,1-.83-.3,1,1,0,0,1-.34-.8,1,1,0,0,1,.41-.83,1.75,1.75,0,0,1,1.1-.32,2.85,2.85,0,0,1,1.3.26,1.58,1.58,0,0,1,.74.76A3.88,3.88,0,0,1,91,40.39Zm-2.21-6.62h-.06a1,1,0,0,0-.6.16.54.54,0,0,0-.24.46.5.5,0,0,0,.14.38.54.54,0,0,0,.4.14.57.57,0,0,0,.43-.16A.56.56,0,0,0,89,39,.83.83,0,0,0,88.81,38.38Z" style="fill:#fff;stroke:#fff;stroke-miterlimit:10;stroke-width:0.2px"/><path d="M94.57,44.69a2.69,2.69,0,0,1-.66.31,2.49,2.49,0,0,1-.71.1A1.69,1.69,0,0,1,92,44.73a1.3,1.3,0,0,1-.41-1,1.39,1.39,0,0,1,.13-.61,1.22,1.22,0,0,1,.39-.47,2,2,0,0,1,.62-.29,4.45,4.45,0,0,1,1-.13,2.41,2.41,0,0,1,.63-1.5,2,2,0,0,1,2.71,0,2.46,2.46,0,0,1,.62,1.51,2.77,2.77,0,0,1,1.63.41,1.29,1.29,0,0,1,.51,1.08,1.34,1.34,0,0,1-.39,1,1.53,1.53,0,0,1-1.09.37,3,3,0,0,1-.86-.1l.17-.57a2.27,2.27,0,0,0,.58.08q.86,0,.86-.78a.74.74,0,0,0-.33-.66,2.06,2.06,0,0,0-1.05-.25,2.68,2.68,0,0,1-.57,1.7,1.78,1.78,0,0,1-1.41.59A1.88,1.88,0,0,1,94.57,44.69Zm-.4-.47a2.36,2.36,0,0,1-.26-.63,3.68,3.68,0,0,1-.11-.78,2.17,2.17,0,0,0-1.1.23.71.71,0,0,0-.34.64.8.8,0,0,0,.22.61.88.88,0,0,0,.64.21A1.77,1.77,0,0,0,94.17,44.22Zm2.88-1.41H94.54a2.25,2.25,0,0,0,.34,1.27,1.06,1.06,0,0,0,.91.42,1.07,1.07,0,0,0,.92-.42A2.24,2.24,0,0,0,97.05,42.81Zm-2.49-.6H97a1.91,1.91,0,0,0-.38-1.08,1.07,1.07,0,0,0-.86-.36,1.09,1.09,0,0,0-.87.36A1.86,1.86,0,0,0,94.56,42.21Z" style="fill:#fff;stroke:#fff;stroke-miterlimit:10;stroke-width:0.2px"/><path d="M105,42a1.64,1.64,0,0,0-.73-.86,2.43,2.43,0,0,0-1.26-.31,2.07,2.07,0,0,0-1.47.5,1.81,1.81,0,0,0-.54,1.39,2,2,0,0,0,1,1.86l-.42.54a2.63,2.63,0,0,1-1-1,2.84,2.84,0,0,1-.36-1.43,2.55,2.55,0,0,1,.32-1.27,2.18,2.18,0,0,1,.95-.88,3.68,3.68,0,0,1,3,0,2.27,2.27,0,0,1,1,1,3.06,3.06,0,0,1,.34,1.48,2.39,2.39,0,0,1-.48,1.6,1.65,1.65,0,0,1-1.33.55,1.54,1.54,0,0,1-1.2-.5,2.06,2.06,0,0,1,0-2.55A1.58,1.58,0,0,1,105,42Zm.12.71a1.36,1.36,0,0,0-.45-.38,1.17,1.17,0,0,0-.54-.13,1,1,0,0,0-.76.3,1.25,1.25,0,0,0-.26.85,1.41,1.41,0,0,0,.24.88.84.84,0,0,0,.7.3.93.93,0,0,0,.83-.4,2.19,2.19,0,0,0,.27-1.21S105.08,42.77,105.07,42.67Z" style="fill:#fff;stroke:#fff;stroke-miterlimit:10;stroke-width:0.2px"/><path d="M104.39,39.68a1.94,1.94,0,0,1,0-.41,1.36,1.36,0,0,1,.42-1,1.53,1.53,0,0,1,1.08-.39,1.59,1.59,0,0,1,1,.29,1.41,1.41,0,0,1,.5.73,5.17,5.17,0,0,1,.13,1.32V45h-.73V40.39a6.92,6.92,0,0,0-.07-1.19,1,1,0,0,0-.27-.58.72.72,0,0,0-.52-.19.75.75,0,0,0-.79.81,1.56,1.56,0,0,0,0,.31Z" style="fill:#fff;stroke:#fff;stroke-miterlimit:10;stroke-width:0.2px"/><path d="M111,44.69a2.73,2.73,0,0,1-.68.31,2.53,2.53,0,0,1-.71.09,1.69,1.69,0,0,1-1.16-.37,1.3,1.3,0,0,1-.41-1,1.38,1.38,0,0,1,.14-.61,1.24,1.24,0,0,1,.41-.47,2,2,0,0,1,.63-.29,4.61,4.61,0,0,1,1-.12,2.41,2.41,0,0,1,.63-1.5,2,2,0,0,1,2.7,0,2.44,2.44,0,0,1,.61,1.51H115a2.64,2.64,0,0,1,1-1.5,2.85,2.85,0,0,1,1.74-.53,2.59,2.59,0,0,1,1.89.66,2.36,2.36,0,0,1,.68,1.77,2.75,2.75,0,0,1-1.37,2.46l-.42-.54a2.08,2.08,0,0,0,1-1.84,1.92,1.92,0,0,0-.5-1.39,1.8,1.8,0,0,0-1.35-.52,2,2,0,0,0-1.2.38,2.13,2.13,0,0,0-.77,1h.27a3.42,3.42,0,0,1,1.13.15,1.32,1.32,0,0,1,.66.49,1.49,1.49,0,0,1,.23.87,1.32,1.32,0,0,1-.39,1,1.53,1.53,0,0,1-1.09.37,1.56,1.56,0,0,1-1.21-.48,1.92,1.92,0,0,1-.44-1.35q0-.23,0-.46h-.64a2.67,2.67,0,0,1-.57,1.7,1.78,1.78,0,0,1-1.41.59A1.87,1.87,0,0,1,111,44.69Zm-.4-.47a2.39,2.39,0,0,1-.26-.63,3.68,3.68,0,0,1-.11-.78,2.18,2.18,0,0,0-1.1.23.71.71,0,0,0-.34.64.8.8,0,0,0,.22.61.88.88,0,0,0,.64.21A1.74,1.74,0,0,0,110.6,44.22Zm2.88-1.41H111a2.25,2.25,0,0,0,.34,1.27,1.2,1.2,0,0,0,1.83,0A2.24,2.24,0,0,0,113.48,42.81Zm-2.49-.6h2.48a1.91,1.91,0,0,0-.38-1.08,1.07,1.07,0,0,0-.86-.36,1.09,1.09,0,0,0-.87.36A1.86,1.86,0,0,0,111,42.21Zm4.57.6a3.14,3.14,0,0,0,0,.44q0,1.29,1,1.29a.74.74,0,0,0,.57-.21.83.83,0,0,0,.2-.59.9.9,0,0,0-.15-.55.84.84,0,0,0-.43-.29,3,3,0,0,0-.86-.09Z" style="fill:#fff;stroke:#fff;stroke-miterlimit:10;stroke-width:0.2px"/><path d="M121.64,44q.23-.81.32-1.35a5.84,5.84,0,0,0,.1-1,1,1,0,0,0-.17-.64.61.61,0,0,0-.51-.21,2,2,0,0,0-.51.07l-.15-.58a2.76,2.76,0,0,1,.74-.09,1.3,1.3,0,0,1,1,.37,1.49,1.49,0,0,1,.34,1.05,5.9,5.9,0,0,1-.11,1.07,12.94,12.94,0,0,1-.34,1.36,1.37,1.37,0,0,1,.8.51,1.49,1.49,0,0,1,.28.91,1.42,1.42,0,0,1-.43,1.07,1.73,1.73,0,0,1-2.23,0,1.43,1.43,0,0,1-.42-1.08,1.45,1.45,0,0,1,.34-1A1.47,1.47,0,0,1,121.64,44Zm-.58,1.47a.93.93,0,0,0,.23.66.88.88,0,0,0,1.21,0,1.1,1.1,0,0,0,0-1.34.89.89,0,0,0-1.22,0A1,1,0,0,0,121.06,45.46Z" style="fill:#fff;stroke:#fff;stroke-miterlimit:10;stroke-width:0.2px"/><path d="M126,44.69a2.69,2.69,0,0,1-.66.31,2.48,2.48,0,0,1-.71.1,1.69,1.69,0,0,1-1.16-.37,1.3,1.3,0,0,1-.41-1,1.39,1.39,0,0,1,.13-.61,1.22,1.22,0,0,1,.39-.47,2,2,0,0,1,.62-.29,4.45,4.45,0,0,1,1-.13,2.41,2.41,0,0,1,.63-1.5,2,2,0,0,1,2.71,0,2.46,2.46,0,0,1,.62,1.51,2.77,2.77,0,0,1,1.63.41,1.29,1.29,0,0,1,.51,1.08,1.34,1.34,0,0,1-.39,1,1.53,1.53,0,0,1-1.09.37A3,3,0,0,1,129,45l.17-.57a2.27,2.27,0,0,0,.58.08q.86,0,.86-.78a.74.74,0,0,0-.33-.66,2.06,2.06,0,0,0-1.05-.25,2.68,2.68,0,0,1-.57,1.7,1.78,1.78,0,0,1-1.41.59A1.88,1.88,0,0,1,126,44.69Zm-.4-.47a2.36,2.36,0,0,1-.26-.63,3.69,3.69,0,0,1-.11-.78,2.17,2.17,0,0,0-1.1.23.71.71,0,0,0-.34.64.8.8,0,0,0,.22.61.88.88,0,0,0,.64.21A1.77,1.77,0,0,0,125.59,44.22Zm2.88-1.41H126a2.25,2.25,0,0,0,.34,1.27,1.2,1.2,0,0,0,1.83,0A2.24,2.24,0,0,0,128.46,42.81Zm-2.49-.6h2.48a1.91,1.91,0,0,0-.38-1.08,1.07,1.07,0,0,0-.86-.36,1.09,1.09,0,0,0-.87.36A1.86,1.86,0,0,0,126,42.21Z" style="fill:#fff;stroke:#fff;stroke-miterlimit:10;stroke-width:0.2px"/><path d="M55.29,14.64a1.48,1.48,0,0,1,.61-.5,2,2,0,0,1,.83-.17A1.81,1.81,0,0,1,58.42,15a2.5,2.5,0,0,1,.24,1.09,3.25,3.25,0,0,1-.18,1.14,2,2,0,0,1-.54.8,2.12,2.12,0,0,1-.88.46,5.73,5.73,0,0,1-1.39.13H53a2.64,2.64,0,0,0-.66.06.54.54,0,0,0-.28.17.44.44,0,0,0-.09.28.46.46,0,0,0,.22.42,1.66,1.66,0,0,0,.8.13h5.5v.6H53a2.21,2.21,0,0,1-1.29-.3.94.94,0,0,1-.41-.8,1.2,1.2,0,0,1,.13-.57,1,1,0,0,1,.46-.41,2.25,2.25,0,0,1,1-.16h2.75a4.6,4.6,0,0,0,1.34-.15,1.4,1.4,0,0,0,.75-.56,2.2,2.2,0,0,0,.28-1.23,2,2,0,0,0-.15-.76,1.32,1.32,0,0,0-.44-.58,1.14,1.14,0,0,0-.7-.21.91.91,0,0,0-.59.18.93.93,0,0,0-.31.46,3.13,3.13,0,0,0-.09.87v1.58H55V16.11a2.41,2.41,0,0,0-.12-.87,1,1,0,0,0-.42-.49,1.6,1.6,0,0,0-.85-.19,1.66,1.66,0,0,0-1.64.91,1.53,1.53,0,0,1,.83-.25,1.21,1.21,0,0,1,.9.33,1.19,1.19,0,0,1,.33.87,1.22,1.22,0,0,1-.37.92,1.4,1.4,0,0,1-1,.36,1.31,1.31,0,0,1-1-.43,1.72,1.72,0,0,1-.38-1.19A2,2,0,0,1,51.48,15a2,2,0,0,1,.84-.76A2.78,2.78,0,0,1,53.58,14a2.81,2.81,0,0,1,1,.16A1.62,1.62,0,0,1,55.29,14.64ZM51.8,16.16q0,1,.78,1a.69.69,0,0,0,.52-.2.71.71,0,0,0,.19-.51.66.66,0,0,0-.18-.49.67.67,0,0,0-.5-.18A1.11,1.11,0,0,0,51.8,16.16Z" style="fill:#fff;stroke:#fff;stroke-miterlimit:10;stroke-width:0.2px"/><path d="M60.91,18.21l-.41.52a2.54,2.54,0,0,1-1-1,2.75,2.75,0,0,1-.35-1.38,2.44,2.44,0,0,1,.32-1.26,2.15,2.15,0,0,1,.9-.84,3.16,3.16,0,0,1,2.65,0,3.2,3.2,0,0,1,1.4-.29,2.75,2.75,0,0,1,1.3.29,2,2,0,0,1,.85.83,2.53,2.53,0,0,1,.3,1.24,2.67,2.67,0,0,1-1.33,2.39l-.41-.52a2,2,0,0,0,1-1.78,2.13,2.13,0,0,0-.22-1,1.57,1.57,0,0,0-.63-.67,1.88,1.88,0,0,0-1-.24,2.78,2.78,0,0,0-.77.09,2.68,2.68,0,0,1,.84,1,2.74,2.74,0,0,1,.29,1.24,2.05,2.05,0,0,1-.44,1.4,1.78,1.78,0,0,1-2.47,0,2,2,0,0,1-.45-1.4,2.65,2.65,0,0,1,.29-1.24,2.81,2.81,0,0,1,.86-1,2.49,2.49,0,0,0-.69-.09,2.15,2.15,0,0,0-1,.23,1.56,1.56,0,0,0-.67.65,2,2,0,0,0-.23,1A2,2,0,0,0,60.91,18.21ZM63,14.91a2,2,0,0,0-.71.8,2.46,2.46,0,0,0-.26,1.12,1.7,1.7,0,0,0,.24,1,.83.83,0,0,0,.71.34q1,0,1-1.34a2.48,2.48,0,0,0-.26-1.1A2.14,2.14,0,0,0,63,14.91Z" style="fill:#fff;stroke:#fff;stroke-miterlimit:10;stroke-width:0.2px"/><path d="M64.89,11.91l.61.11a1.57,1.57,0,0,0,0,.4.77.77,0,0,0,.22.59,1.1,1.1,0,0,0,1.26,0,.77.77,0,0,0,.22-.59,1.52,1.52,0,0,0,0-.4l.61-.11a2.06,2.06,0,0,1,.08.54,1.24,1.24,0,0,1-.4,1,1.87,1.87,0,0,1-2.19,0,1.23,1.23,0,0,1-.4-1A1.82,1.82,0,0,1,64.89,11.91Z" style="fill:#fff;stroke:#fff;stroke-miterlimit:10;stroke-width:0.2px"/></svg>