<svg xmlns="http://www.w3.org/2000/svg" xmlns:xlink="http://www.w3.org/1999/xlink" viewBox="0 0 155 60"><defs><linearGradient id="linear-gradient" x1="31.8" y1="43.29" x2="15.02" y2="26.51" gradientTransform="matrix(1, 0, 0, -1, 0, 62)" gradientUnits="userSpaceOnUse"><stop offset="0" stop-color="#00a0ff"/><stop offset="0.01" stop-color="#00a1ff"/><stop offset="0.26" stop-color="#00beff"/><stop offset="0.51" stop-color="#00d2ff"/><stop offset="0.76" stop-color="#00dfff"/><stop offset="1" stop-color="#00e3ff"/></linearGradient><linearGradient id="linear-gradient-2" x1="43.83" y1="32" x2="19.64" y2="32" gradientTransform="matrix(1, 0, 0, -1, 0, 62)" gradientUnits="userSpaceOnUse"><stop offset="0" stop-color="#ffe000"/><stop offset="0.41" stop-color="#ffbd00"/><stop offset="0.78" stop-color="orange"/><stop offset="1" stop-color="#ff9c00"/></linearGradient><linearGradient id="linear-gradient-3" x1="34.83" y1="29.7" x2="12.07" y2="6.95" gradientTransform="matrix(1, 0, 0, -1, 0, 62)" gradientUnits="userSpaceOnUse"><stop offset="0" stop-color="#ff3a44"/><stop offset="1" stop-color="#c31162"/></linearGradient><linearGradient id="linear-gradient-4" x1="17.3" y1="51.82" x2="27.46" y2="41.66" gradientTransform="matrix(1, 0, 0, -1, 0, 62)" gradientUnits="userSpaceOnUse"><stop offset="0" stop-color="#32a071"/><stop offset="0.07" stop-color="#2da771"/><stop offset="0.48" stop-color="#15cf74"/><stop offset="0.8" stop-color="#06e775"/><stop offset="1" stop-color="#00f076"/></linearGradient></defs><title>mr_get</title><g id="artwork"><rect width="155" height="60" style="fill:#fff;fill-opacity:0"/><rect x="10" y="10" width="135" height="40" rx="5" ry="5"/><path d="M140,10.8a4.2,4.2,0,0,1,4.2,4.2V45a4.2,4.2,0,0,1-4.2,4.2H15A4.2,4.2,0,0,1,10.8,45V15A4.2,4.2,0,0,1,15,10.8H140m0-.8H15a5,5,0,0,0-5,5V45a5,5,0,0,0,5,5H140a5,5,0,0,0,5-5V15a5,5,0,0,0-5-5Z" style="fill:#a6a6a6"/><path d="M74.72,22.79a3.72,3.72,0,1,0,3.73,3.72A3.66,3.66,0,0,0,74.72,22.79Zm0,6a2.26,2.26,0,1,1,2.1-2.25A2.15,2.15,0,0,1,74.72,28.76Zm-8.14-6a3.72,3.72,0,1,0,3.73,3.72A3.66,3.66,0,0,0,66.58,22.79Zm0,6a2.26,2.26,0,1,1,2.1-2.25A2.15,2.15,0,0,1,66.58,28.76ZM56.9,23.93v1.58h3.77a3.29,3.29,0,0,1-.86,2,3.86,3.86,0,0,1-2.91,1.15,4.2,4.2,0,0,1,0-8.39,4,4,0,0,1,2.84,1.13l1.11-1.11a5.5,5.5,0,0,0-4-1.59,5.77,5.77,0,1,0,0,11.55,5.28,5.28,0,0,0,4-1.62,5.21,5.21,0,0,0,1.37-3.69,5.14,5.14,0,0,0-.08-1Zm39.6,1.23a3.46,3.46,0,0,0-3.18-2.37,3.53,3.53,0,0,0-3.51,3.72,3.64,3.64,0,0,0,3.69,3.72,3.7,3.7,0,0,0,3.1-1.65l-1.27-.84a2.12,2.12,0,0,1-1.83,1,1.89,1.89,0,0,1-1.8-1.13l5-2.06ZM91.43,26.4a2,2,0,0,1,1.94-2.17,1.44,1.44,0,0,1,1.38.79Zm-4,3.61H89V19.07H87.39Zm-2.68-6.38h-.06a2.58,2.58,0,0,0-2-.83,3.72,3.72,0,0,0,0,7.44,2.53,2.53,0,0,0,2-.84h.06v.54c0,1.42-.76,2.18-2,2.18a2.06,2.06,0,0,1-1.87-1.32l-1.42.59a3.54,3.54,0,0,0,3.3,2.2c1.92,0,3.53-1.13,3.53-3.87V23H84.72Zm-1.87,5.14a2.26,2.26,0,0,1,0-4.51,2.1,2.1,0,0,1,2,2.27A2.08,2.08,0,0,1,82.84,28.76Zm21.31-9.69h-3.91V30h1.63V25.86h2.28a3.4,3.4,0,1,0,0-6.79Zm0,5.27h-2.32V20.59h2.32a1.87,1.87,0,1,1,0,3.75Zm10.08-1.57a3.06,3.06,0,0,0-2.91,1.67l1.45.6a1.55,1.55,0,0,1,1.49-.8A1.57,1.57,0,0,1,116,25.65v.11a3.61,3.61,0,0,0-1.7-.42c-1.56,0-3.15.86-3.15,2.46a2.52,2.52,0,0,0,2.71,2.4A2.3,2.3,0,0,0,116,29.14H116V30h1.57V25.79C117.59,23.85,116.15,22.77,114.28,22.77Zm-.2,6c-.53,0-1.28-.27-1.28-.93,0-.84.93-1.17,1.73-1.17A2.91,2.91,0,0,1,116,27,2,2,0,0,1,114.08,28.76ZM123.33,23l-1.87,4.74h-.06L119.46,23h-1.76l2.91,6.62L119,33.31h1.7L125.14,23Zm-14.69,7h1.63V19.07h-1.63Z" style="fill:#fff"/><path d="M20.44,17.54a2,2,0,0,0-.46,1.4V41.06a2,2,0,0,0,.46,1.4l.07.07L32.9,30.15v-.29L20.51,17.47Z" style="fill:url(#linear-gradient)"/><path d="M37,34.28,32.9,30.15v-.29L37,25.72l.09.05L42,28.56c1.4.79,1.4,2.09,0,2.89l-4.89,2.78Z" style="fill:url(#linear-gradient-2)"/><path d="M37.12,34.22,32.9,30,20.44,42.46a1.63,1.63,0,0,0,2.08.06l14.61-8.3" style="fill:url(#linear-gradient-3)"/><path d="M37.12,25.78l-14.61-8.3a1.63,1.63,0,0,0-2.08.06L32.9,30Z" style="fill:url(#linear-gradient-4)"/><path d="M37,34.13,22.51,42.38a1.67,1.67,0,0,1-2,0h0l-.07.07h0l.07.07h0a1.66,1.66,0,0,0,2,0l14.61-8.3Z" style="opacity:0.2;isolation:isolate"/><path d="M20.44,42.32a2,2,0,0,1-.46-1.4v.15a2,2,0,0,0,.46,1.4l.07-.07Z" style="opacity:0.12;isolation:isolate"/><path d="M42,31.3l-5,2.83.09.09L42,31.44a1.75,1.75,0,0,0,1-1.44h0A1.86,1.86,0,0,1,42,31.3Z" style="opacity:0.12;isolation:isolate"/><path d="M22.51,17.62,42,28.7a1.86,1.86,0,0,1,1,1.3h0a1.75,1.75,0,0,0-1-1.44L22.51,17.48c-1.4-.79-2.54-.13-2.54,1.47v.15C20,17.49,21.12,16.83,22.51,17.62Z" style="fill:#fff;opacity:0.25;isolation:isolate"/></g><g id="Layer_3" data-name="Layer 3"><path d="M57,39v.75H55.94v5.78H55.1V43.84a2.68,2.68,0,0,1-.77.38,2.88,2.88,0,0,1-.85.12,2.25,2.25,0,0,1-1-.22,1.67,1.67,0,0,1-.7-.62,1.7,1.7,0,0,1-.25-.93,1.82,1.82,0,0,1,.27-1,1.7,1.7,0,0,1,.77-.64,2.86,2.86,0,0,1,1.15-.22l.58,0a2.82,2.82,0,0,1,.47.07l-.06.76a5.41,5.41,0,0,0-.94-.11,1.6,1.6,0,0,0-1,.29,1,1,0,0,0-.36.81,1,1,0,0,0,.15.58.91.91,0,0,0,.41.35,1.45,1.45,0,0,0,.57.11,2.14,2.14,0,0,0,1.59-.75V39.79H51V39Z" style="fill:#fff;stroke:#fff;stroke-miterlimit:10;stroke-width:0.2px"/><path d="M61.41,39.79H60.32a2.48,2.48,0,0,1,.17,1,2,2,0,0,1-.14.76,1.89,1.89,0,0,1-.37.58,2.57,2.57,0,0,1-.56.45,5.13,5.13,0,0,1-.7.35,12.28,12.28,0,0,0,1,1.09q.62.58,1.34,1.14l-.56.56q-.44-.36-.88-.77T58.76,44q-.46-.48-.76-.85a5.23,5.23,0,0,1-.42-.57,1.56,1.56,0,0,1-.16-.34,1,1,0,0,1,0-.28.54.54,0,0,1,.07-.26.54.54,0,0,1,.22-.21.8.8,0,0,1,.38-.08.87.87,0,0,1,.46.12,1.26,1.26,0,0,1,.36.33,1.43,1.43,0,0,0,.59-.52,1.38,1.38,0,0,0,.19-.73,2.46,2.46,0,0,0,0-.45,1.78,1.78,0,0,0-.13-.42H57V39h4.45Z" style="fill:#fff;stroke:#fff;stroke-miterlimit:10;stroke-width:0.2px"/><path d="M68.19,42.13H67a5.18,5.18,0,0,0-1,.07,1,1,0,0,0-.54.28.83.83,0,0,0-.2.61,1.39,1.39,0,0,0,.16.65,2.85,2.85,0,0,0,.48.65,9.3,9.3,0,0,0,.87.78l-.56.55a10.48,10.48,0,0,1-1.07-1,3.64,3.64,0,0,1-.53-.8,1.94,1.94,0,0,1-.19-.84,1.59,1.59,0,0,1,.14-.66,1.44,1.44,0,0,1,.44-.55,1.88,1.88,0,0,1,.73-.34,4.68,4.68,0,0,1,1.07-.1h1.34V39.79H64V39h6.14v.75H69v5.78h-.85Z" style="fill:#fff;stroke:#fff;stroke-miterlimit:10;stroke-width:0.2px"/><path d="M68.19,39.12a8.19,8.19,0,0,0-.44-1.32,1.78,1.78,0,0,0-.47-.66,1,1,0,0,0-.63-.2,1.79,1.79,0,0,0-.73.14l-.26-.76a2.54,2.54,0,0,1,.46-.12,3.14,3.14,0,0,1,.5,0,1.85,1.85,0,0,1,.78.15,1.67,1.67,0,0,1,.6.48,3.76,3.76,0,0,1,.51.9A11.18,11.18,0,0,1,69,39.12Z" style="fill:#fff;stroke:#fff;stroke-miterlimit:10;stroke-width:0.2px"/><path d="M79.74,39.12a6.68,6.68,0,0,0-1.87-1.65,4.13,4.13,0,0,0-2.05-.55,3,3,0,0,0-.72.08,1.71,1.71,0,0,0-.54.23,1.06,1.06,0,0,0-.34.37,1,1,0,0,0-.12.5,1.36,1.36,0,0,0,.1.54,2.26,2.26,0,0,0,.22.41h1.15v.75H74.48v5.78h-.85V39.79H72.7V39h.84a2.57,2.57,0,0,1-.21-.49,2,2,0,0,1-.08-.57,1.67,1.67,0,0,1,.17-.75,1.69,1.69,0,0,1,.47-.57,2.22,2.22,0,0,1,.74-.37,3.47,3.47,0,0,1,1-.13A5.36,5.36,0,0,1,78.5,37a6.33,6.33,0,0,1,1.16.93,8.21,8.21,0,0,1,1,1.21Z" style="fill:#fff;stroke:#fff;stroke-miterlimit:10;stroke-width:0.2px"/><path d="M83.61,39.79H82.52v5.78h-.85V43H79.36v.38a.75.75,0,0,1-.14.48.45.45,0,0,1-.37.17,1,1,0,0,1-.54-.21,1.92,1.92,0,0,1-.5-.54,1.11,1.11,0,0,1-.21-.58.38.38,0,0,1,.16-.34.82.82,0,0,1,.48-.12h.28V39.79H77.18V39h6.43Zm-1.94,2.42V39.79H79.36v2.42Z" style="fill:#fff;stroke:#fff;stroke-miterlimit:10;stroke-width:0.2px"/><path d="M89,41a1.65,1.65,0,0,1,.93.69A2.2,2.2,0,0,1,90.25,43,2.17,2.17,0,0,1,90,44a1.71,1.71,0,0,1-.65.7,1.83,1.83,0,0,1-1,.26,2.2,2.2,0,0,1-.67-.1,2.32,2.32,0,0,1-.57-.27,4.44,4.44,0,0,1-.57-.46,2,2,0,0,1-.64.62,2,2,0,0,1-1.82,0,1.65,1.65,0,0,1-.65-.68,2.25,2.25,0,0,1-.24-1.08,2.16,2.16,0,0,1,.24-1,1.69,1.69,0,0,1,.66-.69,1.87,1.87,0,0,1,1-.24,2.23,2.23,0,0,1,.66.09,2.28,2.28,0,0,1,.57.27,4.56,4.56,0,0,1,.58.46,2,2,0,0,1,.55-.57,1.59,1.59,0,0,1,.71-.24V39.79H82.76V39h8.14v.75H89Zm-2.46,1.4a3,3,0,0,0-.71-.56,1.36,1.36,0,0,0-.64-.16,1.22,1.22,0,0,0-.55.13.94.94,0,0,0-.41.41,1.44,1.44,0,0,0-.15.7,1.6,1.6,0,0,0,.13.7.86.86,0,0,0,.35.39,1,1,0,0,0,.48.12,1,1,0,0,0,.65-.25,2.58,2.58,0,0,0,.56-.85Zm.42,1a2.88,2.88,0,0,0,.7.55,1.4,1.4,0,0,0,.65.16,1.22,1.22,0,0,0,.55-.12,1,1,0,0,0,.41-.41,1.43,1.43,0,0,0,.15-.7,1.61,1.61,0,0,0-.13-.7.85.85,0,0,0-.35-.39,1,1,0,0,0-.49-.12,1,1,0,0,0-.65.25,2.59,2.59,0,0,0-.55.86Z" style="fill:#fff;stroke:#fff;stroke-miterlimit:10;stroke-width:0.2px"/><path d="M96.81,39v.75H95.72v5.78h-.84V43.84a2.68,2.68,0,0,1-.77.38,2.88,2.88,0,0,1-.85.12,2.25,2.25,0,0,1-1-.22,1.67,1.67,0,0,1-.7-.62,1.7,1.7,0,0,1-.25-.93,1.82,1.82,0,0,1,.27-1,1.7,1.7,0,0,1,.77-.64,2.85,2.85,0,0,1,1.15-.22l.58,0a2.82,2.82,0,0,1,.47.07l-.06.76a5.41,5.41,0,0,0-.94-.11,1.6,1.6,0,0,0-1,.29,1,1,0,0,0-.36.81,1,1,0,0,0,.15.58.9.9,0,0,0,.41.35,1.45,1.45,0,0,0,.57.11,2.15,2.15,0,0,0,1.59-.75V39.79H90.82V39Z" style="fill:#fff;stroke:#fff;stroke-miterlimit:10;stroke-width:0.2px"/><path d="M99.61,39.79H98.52v5.78h-.85V39.79h-.93V39h2.87Z" style="fill:#fff;stroke:#fff;stroke-miterlimit:10;stroke-width:0.2px"/></g></svg>