<svg xmlns="http://www.w3.org/2000/svg" xmlns:xlink="http://www.w3.org/1999/xlink" viewBox="0 0 155 60"><defs><linearGradient id="linear-gradient" x1="31.8" y1="43.29" x2="15.02" y2="26.51" gradientTransform="matrix(1, 0, 0, -1, 0, 62)" gradientUnits="userSpaceOnUse"><stop offset="0" stop-color="#00a0ff"/><stop offset="0.01" stop-color="#00a1ff"/><stop offset="0.26" stop-color="#00beff"/><stop offset="0.51" stop-color="#00d2ff"/><stop offset="0.76" stop-color="#00dfff"/><stop offset="1" stop-color="#00e3ff"/></linearGradient><linearGradient id="linear-gradient-2" x1="43.83" y1="32" x2="19.64" y2="32" gradientTransform="matrix(1, 0, 0, -1, 0, 62)" gradientUnits="userSpaceOnUse"><stop offset="0" stop-color="#ffe000"/><stop offset="0.41" stop-color="#ffbd00"/><stop offset="0.78" stop-color="orange"/><stop offset="1" stop-color="#ff9c00"/></linearGradient><linearGradient id="linear-gradient-3" x1="34.83" y1="29.7" x2="12.07" y2="6.95" gradientTransform="matrix(1, 0, 0, -1, 0, 62)" gradientUnits="userSpaceOnUse"><stop offset="0" stop-color="#ff3a44"/><stop offset="1" stop-color="#c31162"/></linearGradient><linearGradient id="linear-gradient-4" x1="17.3" y1="51.82" x2="27.46" y2="41.66" gradientTransform="matrix(1, 0, 0, -1, 0, 62)" gradientUnits="userSpaceOnUse"><stop offset="0" stop-color="#32a071"/><stop offset="0.07" stop-color="#2da771"/><stop offset="0.48" stop-color="#15cf74"/><stop offset="0.8" stop-color="#06e775"/><stop offset="1" stop-color="#00f076"/></linearGradient></defs><title>my_get</title><g id="artwork"><rect width="155" height="60" style="fill:#fff;fill-opacity:0"/><rect x="10" y="10" width="135" height="40" rx="5" ry="5"/><path d="M140,10.8a4.2,4.2,0,0,1,4.2,4.2V45a4.2,4.2,0,0,1-4.2,4.2H15A4.2,4.2,0,0,1,10.8,45V15A4.2,4.2,0,0,1,15,10.8H140m0-.8H15a5,5,0,0,0-5,5V45a5,5,0,0,0,5,5H140a5,5,0,0,0,5-5V15a5,5,0,0,0-5-5Z" style="fill:#a6a6a6"/><path d="M74.72,22.79a3.72,3.72,0,1,0,3.73,3.72A3.66,3.66,0,0,0,74.72,22.79Zm0,6a2.26,2.26,0,1,1,2.1-2.25A2.15,2.15,0,0,1,74.72,28.76Zm-8.14-6a3.72,3.72,0,1,0,3.73,3.72A3.66,3.66,0,0,0,66.58,22.79Zm0,6a2.26,2.26,0,1,1,2.1-2.25A2.15,2.15,0,0,1,66.58,28.76ZM56.9,23.93v1.58h3.77a3.29,3.29,0,0,1-.86,2,3.86,3.86,0,0,1-2.91,1.15,4.2,4.2,0,0,1,0-8.39,4,4,0,0,1,2.84,1.13l1.11-1.11a5.5,5.5,0,0,0-4-1.59,5.77,5.77,0,1,0,0,11.55,5.28,5.28,0,0,0,4-1.62,5.21,5.21,0,0,0,1.37-3.69,5.14,5.14,0,0,0-.08-1Zm39.6,1.23a3.46,3.46,0,0,0-3.18-2.37,3.53,3.53,0,0,0-3.51,3.72,3.64,3.64,0,0,0,3.69,3.72,3.7,3.7,0,0,0,3.1-1.65l-1.27-.84a2.12,2.12,0,0,1-1.83,1,1.89,1.89,0,0,1-1.8-1.13l5-2.06ZM91.43,26.4a2,2,0,0,1,1.94-2.17,1.44,1.44,0,0,1,1.38.79Zm-4,3.61H89V19.07H87.39Zm-2.68-6.38h-.06a2.58,2.58,0,0,0-2-.83,3.72,3.72,0,0,0,0,7.44,2.53,2.53,0,0,0,2-.84h.06v.54c0,1.42-.76,2.18-2,2.18a2.06,2.06,0,0,1-1.87-1.32l-1.42.59a3.54,3.54,0,0,0,3.3,2.2c1.92,0,3.53-1.13,3.53-3.87V23H84.72Zm-1.87,5.14a2.26,2.26,0,0,1,0-4.51,2.1,2.1,0,0,1,2,2.27A2.08,2.08,0,0,1,82.84,28.76Zm21.31-9.69h-3.91V30h1.63V25.86h2.28a3.4,3.4,0,1,0,0-6.79Zm0,5.27h-2.32V20.59h2.32a1.87,1.87,0,1,1,0,3.75Zm10.08-1.57a3.06,3.06,0,0,0-2.91,1.67l1.45.6a1.55,1.55,0,0,1,1.49-.8A1.57,1.57,0,0,1,116,25.65v.11a3.61,3.61,0,0,0-1.7-.42c-1.56,0-3.15.86-3.15,2.46a2.52,2.52,0,0,0,2.71,2.4A2.3,2.3,0,0,0,116,29.14H116V30h1.57V25.79C117.59,23.85,116.15,22.77,114.28,22.77Zm-.2,6c-.53,0-1.28-.27-1.28-.93,0-.84.93-1.17,1.73-1.17A2.91,2.91,0,0,1,116,27,2,2,0,0,1,114.08,28.76ZM123.33,23l-1.87,4.74h-.06L119.46,23h-1.76l2.91,6.62L119,33.31h1.7L125.14,23Zm-14.69,7h1.63V19.07h-1.63Z" style="fill:#fff"/><path d="M20.44,17.54a2,2,0,0,0-.46,1.4V41.06a2,2,0,0,0,.46,1.4l.07.07L32.9,30.15v-.29L20.51,17.47Z" style="fill:url(#linear-gradient)"/><path d="M37,34.28,32.9,30.15v-.29L37,25.72l.09.05L42,28.56c1.4.79,1.4,2.09,0,2.89l-4.89,2.78Z" style="fill:url(#linear-gradient-2)"/><path d="M37.12,34.22,32.9,30,20.44,42.46a1.63,1.63,0,0,0,2.08.06l14.61-8.3" style="fill:url(#linear-gradient-3)"/><path d="M37.12,25.78l-14.61-8.3a1.63,1.63,0,0,0-2.08.06L32.9,30Z" style="fill:url(#linear-gradient-4)"/><path d="M37,34.13,22.51,42.38a1.67,1.67,0,0,1-2,0h0l-.07.07h0l.07.07h0a1.66,1.66,0,0,0,2,0l14.61-8.3Z" style="opacity:0.2;isolation:isolate"/><path d="M20.44,42.32a2,2,0,0,1-.46-1.4v.15a2,2,0,0,0,.46,1.4l.07-.07Z" style="opacity:0.12;isolation:isolate"/><path d="M42,31.3l-5,2.83.09.09L42,31.44a1.75,1.75,0,0,0,1-1.44h0A1.86,1.86,0,0,1,42,31.3Z" style="opacity:0.12;isolation:isolate"/><path d="M22.51,17.62,42,28.7a1.86,1.86,0,0,1,1,1.3h0a1.75,1.75,0,0,0-1-1.44L22.51,17.48c-1.4-.79-2.54-.13-2.54,1.47v.15C20,17.49,21.12,16.83,22.51,17.62Z" style="fill:#fff;opacity:0.25;isolation:isolate"/></g><g id="Layer_3" data-name="Layer 3"><path d="M55.45,39.36a2.26,2.26,0,0,1,.84-.75,2.43,2.43,0,0,1,1.12-.26,2.24,2.24,0,0,1,1.73.69,2.61,2.61,0,0,1,0,3.39,2.11,2.11,0,0,1-1.59.64,3.92,3.92,0,0,1-.67,0,2,2,0,0,1-.53-.17l.27-.56a1.87,1.87,0,0,0,.81.15A1.45,1.45,0,0,0,58.58,42,1.8,1.8,0,0,0,59,40.74a1.85,1.85,0,0,0-.42-1.26A1.44,1.44,0,0,0,57.42,39a1.52,1.52,0,0,0-1,.3,3,3,0,0,0-.7.82l0,.28a2.27,2.27,0,0,1-2.34,2.69,2.21,2.21,0,0,1-1.69-.67,2.56,2.56,0,0,1,0-3.37,2.23,2.23,0,0,1,1.71-.68,2.38,2.38,0,0,1,1.09.25A2.36,2.36,0,0,1,55.45,39.36Zm-.8.11A1.44,1.44,0,0,0,53.51,39a1.47,1.47,0,0,0-1.15.48,1.84,1.84,0,0,0-.43,1.27A1.73,1.73,0,0,0,52.37,42a1.49,1.49,0,0,0,1.13.46A1.46,1.46,0,0,0,54.64,42a1.79,1.79,0,0,0,.43-1.24A1.86,1.86,0,0,0,54.65,39.47Z" style="fill:#fff;stroke:#fff;stroke-miterlimit:10;stroke-width:0.2px"/><path d="M58.61,46.15a1.49,1.49,0,0,1-1.16.46,1.44,1.44,0,0,1-1.12-.46,1.76,1.76,0,0,1,0-2.28,1.46,1.46,0,0,1,1.13-.46,1.43,1.43,0,0,1,1.15.48A1.72,1.72,0,0,1,59,45.05,1.58,1.58,0,0,1,58.61,46.15Zm-1.79-.4a.87.87,0,0,0,1.28,0,1,1,0,0,0,.24-.7,1.21,1.21,0,0,0-.23-.76.77.77,0,0,0-.64-.3.8.8,0,0,0-.65.29,1.15,1.15,0,0,0-.24.75A1.06,1.06,0,0,0,56.82,45.75Z" style="fill:#fff;stroke:#fff;stroke-miterlimit:10;stroke-width:0.2px"/><path d="M65,41.7a2,2,0,0,1-.81,1,2.41,2.41,0,0,1-1.35.38,2.26,2.26,0,0,1-2.43-2.37A2.31,2.31,0,0,1,61.08,39a2.36,2.36,0,0,1,1.77-.67,2.41,2.41,0,0,1,1.35.38,2,2,0,0,1,.81,1l-.59.3a1.74,1.74,0,0,0-.64-.79,1.69,1.69,0,0,0-.94-.27,1.56,1.56,0,0,0-1.2.48,1.75,1.75,0,0,0-.44,1.24A1.77,1.77,0,0,0,61.66,42a1.54,1.54,0,0,0,1.18.5,1.69,1.69,0,0,0,.94-.27,1.74,1.74,0,0,0,.64-.79Z" style="fill:#fff;stroke:#fff;stroke-miterlimit:10;stroke-width:0.2px"/><path d="M63.73,35.55a1.06,1.06,0,0,0-.35-.36.88.88,0,0,0-.48-.13.78.78,0,0,0-.64.29A1.09,1.09,0,0,0,62,36a1.23,1.23,0,0,0,.21.74,1.85,1.85,0,0,0,.46.46l-.37.44a1.93,1.93,0,0,1-.7-.66,1.77,1.77,0,0,1-.27-1,1.49,1.49,0,0,1,.44-1.14,1.54,1.54,0,0,1,1.1-.42,1.67,1.67,0,0,1,.78.18,1.32,1.32,0,0,1,.54.51Z" style="fill:#fff;stroke:#fff;stroke-miterlimit:10;stroke-width:0.2px"/><path d="M73.38,38.58a2,2,0,0,1,.53-.17,3.91,3.91,0,0,1,.67-.05,2.11,2.11,0,0,1,1.59.64,2.61,2.61,0,0,1,0,3.4,2.25,2.25,0,0,1-1.73.68,2.47,2.47,0,0,1-1.12-.25,2.24,2.24,0,0,1-.84-.75,2.34,2.34,0,0,1-.86.75,2.41,2.41,0,0,1-1.09.25,2.26,2.26,0,0,1-1.69-.68,2.41,2.41,0,0,1-.67-1.76,3,3,0,0,1,.3-1.31,2.5,2.5,0,0,1,.8-1l.43.54a2,2,0,0,0-.56.72,2.36,2.36,0,0,0-.19,1A2,2,0,0,0,69.36,42a1.44,1.44,0,0,0,1.15.49,1.43,1.43,0,0,0,1.15-.5,2,2,0,0,0,.42-1.33,2.32,2.32,0,0,0-.2-1,2,2,0,0,0-.57-.72l.43-.54a2.47,2.47,0,0,1,.82,1,3,3,0,0,1,.3,1.29,2.75,2.75,0,0,1,0,.41l-.05.29a3.39,3.39,0,0,0,.72.81,1.48,1.48,0,0,0,.94.3A1.45,1.45,0,0,0,75.6,42,1.85,1.85,0,0,0,76,40.71a1.78,1.78,0,0,0-.43-1.25A1.46,1.46,0,0,0,74.46,39a1.87,1.87,0,0,0-.8.15Z" style="fill:#fff;stroke:#fff;stroke-miterlimit:10;stroke-width:0.2px"/><path d="M82,41.7a2,2,0,0,1-.81,1,2.41,2.41,0,0,1-1.35.38,2.26,2.26,0,0,1-2.43-2.37A2.31,2.31,0,0,1,78.1,39a2.36,2.36,0,0,1,1.77-.67,2.41,2.41,0,0,1,1.35.38,2,2,0,0,1,.81,1l-.59.3a1.74,1.74,0,0,0-.64-.79,1.69,1.69,0,0,0-.94-.27,1.56,1.56,0,0,0-1.2.48,1.75,1.75,0,0,0-.44,1.24A1.77,1.77,0,0,0,78.68,42a1.54,1.54,0,0,0,1.18.5,1.69,1.69,0,0,0,.94-.27,1.74,1.74,0,0,0,.64-.79Z" style="fill:#fff;stroke:#fff;stroke-miterlimit:10;stroke-width:0.2px"/><path d="M80.75,35.55a1.06,1.06,0,0,0-.35-.36.88.88,0,0,0-.48-.13.78.78,0,0,0-.64.29,1.1,1.1,0,0,0-.23.7,1.23,1.23,0,0,0,.21.74,1.85,1.85,0,0,0,.46.46l-.37.44a1.93,1.93,0,0,1-.7-.66,1.77,1.77,0,0,1-.27-1,1.49,1.49,0,0,1,.44-1.14,1.54,1.54,0,0,1,1.1-.42,1.67,1.67,0,0,1,.78.18,1.32,1.32,0,0,1,.54.51Z" style="fill:#fff;stroke:#fff;stroke-miterlimit:10;stroke-width:0.2px"/><path d="M83,40a1,1,0,0,1,0-1.33.94.94,0,0,1,.67-.24,1,1,0,0,1,.68.24.83.83,0,0,1,.27.65.85.85,0,0,1-.27.67,1,1,0,0,1-.68.24A1,1,0,0,1,83,40Zm0,2.85a1,1,0,0,1,0-1.33.94.94,0,0,1,.67-.24,1,1,0,0,1,.68.24.83.83,0,0,1,.27.65.86.86,0,0,1-.27.67,1,1,0,0,1-.68.24A1,1,0,0,1,83,42.86ZM83.32,39a.43.43,0,0,0-.13.33.46.46,0,0,0,.11.33.45.45,0,0,0,.33.12.46.46,0,0,0,.32-.12.43.43,0,0,0,.13-.33A.42.42,0,0,0,84,39a.46.46,0,0,0-.32-.12A.45.45,0,0,0,83.32,39Zm0,2.85a.43.43,0,0,0-.13.33.47.47,0,0,0,.11.34.45.45,0,0,0,.33.12.46.46,0,0,0,.32-.12.43.43,0,0,0,.13-.34.42.42,0,0,0-.13-.33.46.46,0,0,0-.32-.12A.45.45,0,0,0,83.32,41.86Z" style="fill:#fff;stroke:#fff;stroke-miterlimit:10;stroke-width:0.2px"/><path d="M90.77,42.3a1.87,1.87,0,0,0,.8.15A1.44,1.44,0,0,0,92.69,42a1.78,1.78,0,0,0,.42-1.25,1.83,1.83,0,0,0-.43-1.26A1.46,1.46,0,0,0,91.54,39a1.51,1.51,0,0,0-.94.29,3,3,0,0,0-.72.82l0,.29a2.67,2.67,0,0,1,0,.41,2.83,2.83,0,0,1-.31,1.37,2.52,2.52,0,0,1-.79.9l-.43-.54a2,2,0,0,0,.56-.72,2.35,2.35,0,0,0,.2-1,2,2,0,0,0-.43-1.34,1.57,1.57,0,0,0-2.28,0A2,2,0,0,0,86,40.83a2.37,2.37,0,0,0,.19,1,2,2,0,0,0,.56.72l-.43.54a2.33,2.33,0,0,1-.78-.92,2.94,2.94,0,0,1-.32-1.35A2.4,2.4,0,0,1,85.94,39a2.26,2.26,0,0,1,1.67-.68,2.41,2.41,0,0,1,1.09.25,2.35,2.35,0,0,1,.86.75,2.23,2.23,0,0,1,.84-.75,2.44,2.44,0,0,1,1.12-.26,2.24,2.24,0,0,1,1.72.68,2.62,2.62,0,0,1,0,3.4,2.1,2.1,0,0,1-1.58.64A3.89,3.89,0,0,1,91,43a2,2,0,0,1-.53-.17Z" style="fill:#fff;stroke:#fff;stroke-miterlimit:10;stroke-width:0.2px"/><path d="M92.9,37.23a1.52,1.52,0,0,1-1.15.45,1.44,1.44,0,0,1-1.11-.46,1.74,1.74,0,0,1,0-2.27,1.61,1.61,0,0,1,2.28,0,1.7,1.7,0,0,1,.41,1.15A1.55,1.55,0,0,1,92.9,37.23Zm-1.77-.41a.79.79,0,0,0,.65.29.8.8,0,0,0,.63-.28,1,1,0,0,0,.25-.7,1.25,1.25,0,0,0-.23-.77.76.76,0,0,0-.64-.31.78.78,0,0,0-.65.3,1.17,1.17,0,0,0-.23.75A1.1,1.1,0,0,0,91.13,36.82Z" style="fill:#fff;stroke:#fff;stroke-miterlimit:10;stroke-width:0.2px"/><path d="M91.22,43.42H92v3H93V47H91.22Z" style="fill:#fff;stroke:#fff;stroke-miterlimit:10;stroke-width:0.2px"/><path d="M100.89,40.74a1.88,1.88,0,0,0-.42-1.26A1.4,1.4,0,0,0,99.34,39a1.42,1.42,0,0,0-1,.32,1.6,1.6,0,0,0-.51.84A2.51,2.51,0,0,1,99.6,41a2.87,2.87,0,0,1,.63,2,3.26,3.26,0,0,1-.43.11,2.54,2.54,0,0,1-.49,0,2.15,2.15,0,0,1-1.66-.67A2.39,2.39,0,0,1,97,40.72a2.56,2.56,0,0,1,.3-1.23,2.07,2.07,0,0,1,.81-.84,2.6,2.6,0,0,1,2.39,0,2.08,2.08,0,0,1,.81.85,2.56,2.56,0,0,1,.3,1.22v5.67h1.06V47h-1.81Zm-1.36,1.71A1.65,1.65,0,0,0,99,41.26a2,2,0,0,0-1.21-.51A1.79,1.79,0,0,0,98.22,42a1.44,1.44,0,0,0,1.11.46h.2Z" style="fill:#fff;stroke:#fff;stroke-miterlimit:10;stroke-width:0.2px"/><path d="M107.73,38.58a2,2,0,0,1,.53-.17,3.91,3.91,0,0,1,.67-.05,2.11,2.11,0,0,1,1.59.64,2.61,2.61,0,0,1,0,3.4,2.25,2.25,0,0,1-1.73.68,2.47,2.47,0,0,1-1.12-.25,2.24,2.24,0,0,1-.84-.75,2.34,2.34,0,0,1-.86.75,2.41,2.41,0,0,1-1.09.25,2.26,2.26,0,0,1-1.69-.68,2.41,2.41,0,0,1-.67-1.76,3,3,0,0,1,.3-1.31,2.5,2.5,0,0,1,.8-1l.43.54a2,2,0,0,0-.56.72,2.36,2.36,0,0,0-.19,1A2,2,0,0,0,103.7,42a1.45,1.45,0,0,0,1.15.49,1.43,1.43,0,0,0,1.15-.5,2,2,0,0,0,.42-1.33,2.32,2.32,0,0,0-.2-1,2,2,0,0,0-.57-.72l.43-.54a2.47,2.47,0,0,1,.82,1,3,3,0,0,1,.3,1.29,2.75,2.75,0,0,1,0,.41l-.05.29a3.39,3.39,0,0,0,.72.81,1.48,1.48,0,0,0,.94.3,1.45,1.45,0,0,0,1.15-.49,1.85,1.85,0,0,0,.42-1.26,1.78,1.78,0,0,0-.43-1.25,1.46,1.46,0,0,0-1.13-.46,1.87,1.87,0,0,0-.8.15Z" style="fill:#fff;stroke:#fff;stroke-miterlimit:10;stroke-width:0.2px"/><path d="M107.79,43.42h.75V47h-.75ZM111,47h-1.81V43.42h.75v3H111Z" style="fill:#fff;stroke:#fff;stroke-miterlimit:10;stroke-width:0.2px"/><path d="M115.45,38.36a2.49,2.49,0,0,1,.85,1,2.85,2.85,0,0,1,.32,1.3,2.38,2.38,0,0,1-.69,1.76,2.51,2.51,0,0,1-3.44,0,2.39,2.39,0,0,1-.68-1.76,3,3,0,0,1,.3-1.31,2.5,2.5,0,0,1,.8-1l.43.54a2,2,0,0,0-.56.72,2.36,2.36,0,0,0-.19,1A1.91,1.91,0,0,0,113,42a1.65,1.65,0,0,0,2.36,0,1.93,1.93,0,0,0,.45-1.34,2.2,2.2,0,0,0-.21-1,2,2,0,0,0-.61-.72Z" style="fill:#fff;stroke:#fff;stroke-miterlimit:10;stroke-width:0.2px"/><path d="M117.53,43V36.37a1.68,1.68,0,0,0-.25-1,.87.87,0,0,0-.77-.36.94.94,0,0,0-.74.32,1.39,1.39,0,0,0-.28,1v.14h-.72v-.12a1.87,1.87,0,0,1,.48-1.35,1.67,1.67,0,0,1,1.26-.5,1.59,1.59,0,0,1,1.28.54,2.2,2.2,0,0,1,.46,1.48V43Z" style="fill:#fff;stroke:#fff;stroke-miterlimit:10;stroke-width:0.2px"/></g></svg>