<svg id="artwork" xmlns="http://www.w3.org/2000/svg" xmlns:xlink="http://www.w3.org/1999/xlink" viewBox="0 0 155 60"><defs><linearGradient id="linear-gradient" x1="31.8" y1="-96.71" x2="15.02" y2="-113.49" gradientTransform="matrix(1, 0, 0, -1, 0, -78)" gradientUnits="userSpaceOnUse"><stop offset="0" stop-color="#00a0ff"/><stop offset="0.01" stop-color="#00a1ff"/><stop offset="0.26" stop-color="#00beff"/><stop offset="0.51" stop-color="#00d2ff"/><stop offset="0.76" stop-color="#00dfff"/><stop offset="1" stop-color="#00e3ff"/></linearGradient><linearGradient id="linear-gradient-2" x1="43.83" y1="-108" x2="19.64" y2="-108" gradientTransform="matrix(1, 0, 0, -1, 0, -78)" gradientUnits="userSpaceOnUse"><stop offset="0" stop-color="#ffe000"/><stop offset="0.41" stop-color="#ffbd00"/><stop offset="0.78" stop-color="orange"/><stop offset="1" stop-color="#ff9c00"/></linearGradient><linearGradient id="linear-gradient-3" x1="34.83" y1="-110.3" x2="12.07" y2="-133.05" gradientTransform="matrix(1, 0, 0, -1, 0, -78)" gradientUnits="userSpaceOnUse"><stop offset="0" stop-color="#ff3a44"/><stop offset="1" stop-color="#c31162"/></linearGradient><linearGradient id="linear-gradient-4" x1="17.3" y1="-88.18" x2="27.46" y2="-98.34" gradientTransform="matrix(1, 0, 0, -1, 0, -78)" gradientUnits="userSpaceOnUse"><stop offset="0" stop-color="#32a071"/><stop offset="0.07" stop-color="#2da771"/><stop offset="0.48" stop-color="#15cf74"/><stop offset="0.8" stop-color="#06e775"/><stop offset="1" stop-color="#00f076"/></linearGradient></defs><title>pa_get</title><rect width="155" height="60" style="fill:#fff;fill-opacity:0"/><rect x="10" y="10" width="135" height="40" rx="5" ry="5"/><path d="M140,10.8a4.2,4.2,0,0,1,4.2,4.2V45a4.2,4.2,0,0,1-4.2,4.2H15A4.2,4.2,0,0,1,10.8,45V15A4.2,4.2,0,0,1,15,10.8H140m0-.8H15a5,5,0,0,0-5,5V45a5,5,0,0,0,5,5H140a5,5,0,0,0,5-5V15a5,5,0,0,0-5-5Z" style="fill:#a6a6a6"/><path d="M74.72,26.79a3.72,3.72,0,1,0,3.73,3.72A3.66,3.66,0,0,0,74.72,26.79Zm0,6a2.26,2.26,0,1,1,2.1-2.25A2.15,2.15,0,0,1,74.72,32.76Zm-8.14-6a3.72,3.72,0,1,0,3.73,3.72A3.66,3.66,0,0,0,66.58,26.79Zm0,6a2.26,2.26,0,1,1,2.1-2.25A2.15,2.15,0,0,1,66.58,32.76ZM56.9,27.93v1.58h3.77a3.29,3.29,0,0,1-.86,2,3.86,3.86,0,0,1-2.91,1.15,4.2,4.2,0,0,1,0-8.39,4,4,0,0,1,2.84,1.13l1.11-1.11a5.5,5.5,0,0,0-4-1.59,5.77,5.77,0,1,0,0,11.55,5.28,5.28,0,0,0,4-1.62,5.21,5.21,0,0,0,1.37-3.69,5.14,5.14,0,0,0-.08-1Zm39.6,1.23a3.46,3.46,0,0,0-3.18-2.37,3.53,3.53,0,0,0-3.51,3.72,3.64,3.64,0,0,0,3.69,3.72,3.7,3.7,0,0,0,3.1-1.65l-1.27-.84a2.12,2.12,0,0,1-1.83,1,1.89,1.89,0,0,1-1.8-1.13l5-2.06ZM91.43,30.4a2,2,0,0,1,1.94-2.17,1.44,1.44,0,0,1,1.38.79Zm-4,3.61H89V23.07H87.39Zm-2.68-6.38h-.06a2.58,2.58,0,0,0-2-.83,3.72,3.72,0,0,0,0,7.44,2.53,2.53,0,0,0,2-.84h.06v.54c0,1.42-.76,2.18-2,2.18a2.06,2.06,0,0,1-1.87-1.32l-1.42.59a3.54,3.54,0,0,0,3.3,2.2c1.92,0,3.53-1.13,3.53-3.87V27H84.72Zm-1.87,5.14a2.26,2.26,0,0,1,0-4.51,2.1,2.1,0,0,1,2,2.27A2.08,2.08,0,0,1,82.84,32.76Zm21.31-9.69h-3.91V34h1.63V29.86h2.28a3.4,3.4,0,1,0,0-6.79Zm0,5.27h-2.32V24.59h2.32a1.87,1.87,0,1,1,0,3.75Zm10.08-1.57a3.06,3.06,0,0,0-2.91,1.67l1.45.6a1.55,1.55,0,0,1,1.49-.8A1.57,1.57,0,0,1,116,29.65v.11a3.61,3.61,0,0,0-1.7-.42c-1.56,0-3.15.86-3.15,2.46a2.52,2.52,0,0,0,2.71,2.4A2.3,2.3,0,0,0,116,33.14H116V34h1.57V29.79C117.59,27.85,116.15,26.77,114.28,26.77Zm-.2,6c-.53,0-1.28-.27-1.28-.93,0-.84.93-1.17,1.73-1.17A2.9,2.9,0,0,1,116,31,2,2,0,0,1,114.08,32.76ZM123.33,27l-1.87,4.74h-.06L119.46,27h-1.76l2.91,6.62L119,37.31h1.7L125.14,27Zm-14.69,7h1.63V23.07h-1.63Z" style="fill:#fff"/><path d="M20.44,17.54a2,2,0,0,0-.46,1.4V41.06a2,2,0,0,0,.46,1.4l.07.07L32.9,30.15v-.29L20.51,17.47Z" style="fill:url(#linear-gradient)"/><path d="M37,34.28,32.9,30.15v-.29L37,25.72l.09.05L42,28.56c1.4.79,1.4,2.09,0,2.89l-4.89,2.78Z" style="fill:url(#linear-gradient-2)"/><path d="M37.12,34.22,32.9,30,20.44,42.46a1.63,1.63,0,0,0,2.08.06l14.61-8.3" style="fill:url(#linear-gradient-3)"/><path d="M37.12,25.78l-14.61-8.3a1.63,1.63,0,0,0-2.08.06L32.9,30Z" style="fill:url(#linear-gradient-4)"/><path d="M37,34.13,22.51,42.38a1.67,1.67,0,0,1-2,0h0l-.07.07h0l.07.07h0a1.66,1.66,0,0,0,2,0l14.61-8.3Z" style="opacity:0.2;isolation:isolate"/><path d="M20.44,42.32a2,2,0,0,1-.46-1.4v.15a2,2,0,0,0,.46,1.4l.07-.07Z" style="opacity:0.12;isolation:isolate"/><path d="M42,31.3l-5,2.83.09.09L42,31.44a1.75,1.75,0,0,0,1-1.44h0A1.86,1.86,0,0,1,42,31.3Z" style="opacity:0.12;isolation:isolate"/><path d="M22.51,17.62,42,28.7a1.86,1.86,0,0,1,1,1.3h0a1.75,1.75,0,0,0-1-1.44L22.51,17.48c-1.4-.79-2.54-.13-2.54,1.47v.15C20,17.49,21.12,16.83,22.51,17.62Z" style="fill:#fff;opacity:0.25;isolation:isolate"/><path d="M51.34,14.6a1.57,1.57,0,0,1,.06-.44,1.09,1.09,0,0,1,.2-.39,1,1,0,0,1,.36-.28,1.19,1.19,0,0,1,.53-.11,1.14,1.14,0,0,1,.6.16,1.86,1.86,0,0,1,.46.4,2.64,2.64,0,0,1,.34.52,4.89,4.89,0,0,1,.22.5l-.46.21a2.44,2.44,0,0,0-.51-.88.85.85,0,0,0-.59-.28.44.44,0,0,0-.36.16.63.63,0,0,0-.13.41v1.12h6.14v.48H57.16v2H54.72a1.14,1.14,0,0,0-.32,0,.92.92,0,0,0-.3.15.83.83,0,0,0-.22.26.78.78,0,0,0-.09.38.93.93,0,0,0,.12.44,1.38,1.38,0,0,0,.35.41,1.92,1.92,0,0,0,.56.3,2.21,2.21,0,0,0,.76.12,1.72,1.72,0,0,0,.74-.16,2.8,2.8,0,0,0,.74-.53l.34.46a2.31,2.31,0,0,1-.86.66,2.66,2.66,0,0,1-1.06.21,2.82,2.82,0,0,1-1-.18,2.42,2.42,0,0,1-.76-.45,2,2,0,0,1-.46-.61,1.52,1.52,0,0,1-.16-.66,1.21,1.21,0,0,1,.32-.87,1.69,1.69,0,0,1,.84-.46,1.53,1.53,0,0,1-.48-.29,1.66,1.66,0,0,1-.32-.39,2,2,0,0,1-.19-.44,1.69,1.69,0,0,1-.08-.42h-1.1v2q0,.29,0,.63t0,.7c0,.24,0,.47,0,.7s0,.44,0,.63h-.86q0-.29,0-.63l0-.69c0-.23,0-.47,0-.7s0-.44,0-.63v-2h-.29v-.48h.29Zm5.1,3v-1.4H53.79a1.36,1.36,0,0,0,.17.59,1.65,1.65,0,0,0,.34.42,1.78,1.78,0,0,0,.39.26,1.69,1.69,0,0,0,.34.13Z" style="fill:#fff;stroke:#fff;stroke-miterlimit:10;stroke-width:0.2px"/><path d="M63.09,20.84h-.87c0-.17,0-.36,0-.56l0-.61q0-.31,0-.62t0-.59h-2a2,2,0,0,1-.14.48,2,2,0,0,1-.23.4,1.13,1.13,0,0,1-.3.28.61.61,0,0,1-.33.1.43.43,0,0,1-.35-.15.61.61,0,0,1-.12-.4.91.91,0,0,1,.06-.32,1.56,1.56,0,0,1,.18-.34,1.71,1.71,0,0,1,.27-.31,1.57,1.57,0,0,1,.35-.24,3.59,3.59,0,0,0,0-.45,2.23,2.23,0,0,0-.12-.44,2.7,2.7,0,0,0-.22-.45,3.63,3.63,0,0,0-.36-.48h-.5v-.48H64v.48H63v2q0,.29,0,.63t0,.7c0,.24,0,.47,0,.7S63.08,20.65,63.09,20.84Zm-2.82-3h2V16.16H59.65a3,3,0,0,1,.44.81A3.67,3.67,0,0,1,60.27,17.84Z" style="fill:#fff;stroke:#fff;stroke-miterlimit:10;stroke-width:0.2px"/><path d="M69,19.17a1.5,1.5,0,0,1-.13.62,1.6,1.6,0,0,1-.36.51,2.18,2.18,0,0,1-.56.38,2.64,2.64,0,0,1-.71.22l-.14-.62a2.15,2.15,0,0,0,.46-.14,1.45,1.45,0,0,0,.38-.24,1.16,1.16,0,0,0,.26-.33.85.85,0,0,0,.1-.4,1,1,0,0,0-.15-.52,1.58,1.58,0,0,0-.38-.41,1.88,1.88,0,0,0-.5-.28,1.65,1.65,0,0,0-.52-.11,1.94,1.94,0,0,0-.48.09,2,2,0,0,0-.52.25,1.52,1.52,0,0,0-.42.41,1,1,0,0,0-.17.56.92.92,0,0,0,.1.43,1.08,1.08,0,0,0,.27.33,1.42,1.42,0,0,0,.39.23,1.83,1.83,0,0,0,.46.12l-.14.62a2.48,2.48,0,0,1-.7-.2,1.9,1.9,0,0,1-.54-.37,1.51,1.51,0,0,1-.34-.51,1.83,1.83,0,0,1,0-1.42,1.78,1.78,0,0,1,.43-.55,2.23,2.23,0,0,1,.59-.36,3.42,3.42,0,0,1,.66-.2V16.16H64.15v-.48H70v.48H67.1v1.12a3,3,0,0,1,.74.24,2.26,2.26,0,0,1,.6.41,1.86,1.86,0,0,1,.4.56A1.59,1.59,0,0,1,69,19.17Zm-.32,2.42-.44.23a4.3,4.3,0,0,1-.49.19,4.55,4.55,0,0,1-.5.13,2.69,2.69,0,0,1-.49,0,3.32,3.32,0,0,1-1-.17,5.34,5.34,0,0,1-1-.42l.16-.41.3.09.46.09.53.07.52,0,.52,0,.53-.07.46-.09.31-.09Zm0,1.18-.44.23a4.33,4.33,0,0,1-1,.32,2.6,2.6,0,0,1-.49,0,3.32,3.32,0,0,1-1-.17,5.28,5.28,0,0,1-1-.42l.16-.42.3.09.46.1.53.07.52,0,.52,0,.53-.07.46-.1.31-.09Zm-1.93-9a.88.88,0,0,0-.5.14.48.48,0,0,0-.21.43.54.54,0,0,0,0,.21l.09.18-.26.17a1.39,1.39,0,0,1-.19-.28.91.91,0,0,1-.1-.44,1.08,1.08,0,0,1,.07-.37.93.93,0,0,1,.21-.34,1.1,1.1,0,0,1,.36-.24,1.25,1.25,0,0,1,.5-.09,1.22,1.22,0,0,1,.49.09,1.06,1.06,0,0,1,.35.24,1,1,0,0,1,.21.34,1.08,1.08,0,0,1,.07.37.92.92,0,0,1-.1.44,1.39,1.39,0,0,1-.19.28l-.26-.17a.65.65,0,0,0,.13-.39.48.48,0,0,0-.2-.43A.84.84,0,0,0,66.75,13.82Z" style="fill:#fff;stroke:#fff;stroke-miterlimit:10;stroke-width:0.2px"/><path d="M51.46,41.53l-.34-.22.43-.61a.55.55,0,0,1-.3-.16.46.46,0,0,1-.13-.33.54.54,0,0,1,1.09,0,1.16,1.16,0,0,1-.24.59Z" style="fill:#fff;stroke:#fff;stroke-miterlimit:10;stroke-width:0.2px"/><path d="M53.64,44.1l.24.28a2,2,0,0,0,.35.29,2,2,0,0,0,.47.22,1.85,1.85,0,0,0,.6.09,2.07,2.07,0,0,0,.45-.06,1.77,1.77,0,0,0,.46-.18,1.14,1.14,0,0,0,.36-.31.76.76,0,0,0,.14-.47.66.66,0,0,0-.09-.33,1.25,1.25,0,0,0-.23-.29,2.13,2.13,0,0,0-.33-.25,3.24,3.24,0,0,0-.38-.2,2.87,2.87,0,0,1-.51.15,2.19,2.19,0,0,1-.41,0,1.33,1.33,0,0,1-.71-.15.41.41,0,0,1-.23-.33.4.4,0,0,1,.21-.32,1.28,1.28,0,0,1,.71-.15,3.1,3.1,0,0,1,.78.11,2.39,2.39,0,0,0,.56-.38.69.69,0,0,0,.24-.52,1,1,0,0,0,0-.24,1.14,1.14,0,0,0-.11-.28H52.82v-.48H58.4v.48H56.92a1.51,1.51,0,0,1,.11.31,1.35,1.35,0,0,1,0,.3,1,1,0,0,1-.21.64,2.16,2.16,0,0,1-.51.48,3.06,3.06,0,0,1,.42.26,2,2,0,0,1,.35.32,1.42,1.42,0,0,1,.24.39,1.19,1.19,0,0,1,.09.46,1.35,1.35,0,0,1-.21.78,1.68,1.68,0,0,1-.52.5,2.22,2.22,0,0,1-.68.27,3.08,3.08,0,0,1-.66.08,2.73,2.73,0,0,1-.85-.12,2.48,2.48,0,0,1-.63-.3,2,2,0,0,1-.43-.39,2,2,0,0,1-.26-.4Z" style="fill:#fff;stroke:#fff;stroke-miterlimit:10;stroke-width:0.2px"/><path d="M57,40.15a3.65,3.65,0,0,0-.36-.55,2.61,2.61,0,0,0-.46-.46,2.24,2.24,0,0,0-.57-.32,1.93,1.93,0,0,0-.68-.12H53.79v-.62H55a2,2,0,0,1,.74.14,2.47,2.47,0,0,1,.66.38,2.87,2.87,0,0,1,.55.59,4.31,4.31,0,0,1,.43.78Z" style="fill:#fff;stroke:#fff;stroke-miterlimit:10;stroke-width:0.2px"/><path d="M64.77,45.51H64.7v.1a1.87,1.87,0,0,1-.14.7,4.07,4.07,0,0,1,.93.52,5.6,5.6,0,0,1,.9.86L66,48a4.7,4.7,0,0,0-.5-.48,4,4,0,0,0-.46-.33,3.32,3.32,0,0,0-.42-.22l-.38-.15a1.52,1.52,0,0,1-.47.36,1.32,1.32,0,0,1-.6.13,1.53,1.53,0,0,1-.34,0,1.33,1.33,0,0,1-.32-.12.8.8,0,0,1-.24-.19.38.38,0,0,1-.1-.26.43.43,0,0,1,.1-.29.74.74,0,0,1,.26-.2,1.56,1.56,0,0,1,.35-.12,1.74,1.74,0,0,1,.37,0,3,3,0,0,1,.59.06,1.42,1.42,0,0,0,.1-.5v-.1h-.06c0-.14,0-.29,0-.44s0-.32,0-.49a4.71,4.71,0,0,1-.81.39,2.82,2.82,0,0,1-1,.16,2.38,2.38,0,0,1-.76-.11,1.42,1.42,0,0,1-.53-.3,1.2,1.2,0,0,1-.31-.47,1.82,1.82,0,0,1-.1-.62,1.43,1.43,0,0,1,.08-.51,4.29,4.29,0,0,1,.18-.41l.18-.36A.88.88,0,0,0,61,42a1.74,1.74,0,0,0-.1-.53,1.63,1.63,0,0,0-.38-.6h-.43v-.48H61a4.49,4.49,0,0,1,.32.52,3,3,0,0,1,.19.44,1.89,1.89,0,0,1,.09.36,2.39,2.39,0,0,1,0,.29,1.76,1.76,0,0,1-.06.49,3.67,3.67,0,0,1-.14.39c-.05.12-.1.24-.14.36a1.21,1.21,0,0,0-.06.39,1,1,0,0,0,0,.26.78.78,0,0,0,.15.28.9.9,0,0,0,.29.23,1,1,0,0,0,.47.1,2.54,2.54,0,0,0,.8-.16,5.37,5.37,0,0,0,1-.49q0-.26,0-.49v-3h1.69v.48h-1v2q0,.29,0,.63t0,.7l0,.7Q64.76,45.22,64.77,45.51Z" style="fill:#fff;stroke:#fff;stroke-miterlimit:10;stroke-width:0.2px"/><path d="M65.72,40.83v-.48h2v.48h-1v.1c0,.19,0,.4,0,.63s0,.46,0,.7,0,.47,0,.7,0,.44,0,.63h-.86c0-.19,0-.4,0-.63l0-.69c0-.24,0-.47,0-.7s0-.44,0-.63v-.1Z" style="fill:#fff;stroke:#fff;stroke-miterlimit:10;stroke-width:0.2px"/><path d="M72.44,45.51h-.86c0-.14,0-.29,0-.44s0-.32,0-.49a4.71,4.71,0,0,1-.81.39,2.82,2.82,0,0,1-1,.16,2.38,2.38,0,0,1-.76-.11,1.42,1.42,0,0,1-.53-.3,1.2,1.2,0,0,1-.31-.47,1.82,1.82,0,0,1-.1-.62,1.43,1.43,0,0,1,.08-.51,4.27,4.27,0,0,1,.18-.41l.18-.36a.88.88,0,0,0,.08-.38,1.73,1.73,0,0,0-.1-.53,1.63,1.63,0,0,0-.38-.6h-.43v-.48h.91a4.49,4.49,0,0,1,.32.52,3,3,0,0,1,.19.44,1.89,1.89,0,0,1,.09.36,2.39,2.39,0,0,1,0,.29,1.77,1.77,0,0,1-.06.49,3.69,3.69,0,0,1-.14.39q-.08.18-.14.36a1.21,1.21,0,0,0-.06.39,1,1,0,0,0,0,.26.78.78,0,0,0,.15.28.9.9,0,0,0,.29.23,1,1,0,0,0,.47.1,2.54,2.54,0,0,0,.8-.16,5.37,5.37,0,0,0,1-.49q0-.26,0-.49v-3h1.69v.48h-1v2q0,.29,0,.63t0,.7l0,.7Q72.43,45.22,72.44,45.51Z" style="fill:#fff;stroke:#fff;stroke-miterlimit:10;stroke-width:0.2px"/><path d="M74.2,44.1l.24.28a2,2,0,0,0,.35.29,2,2,0,0,0,.47.22,1.85,1.85,0,0,0,.6.09,2.07,2.07,0,0,0,.45-.06,1.77,1.77,0,0,0,.46-.18,1.13,1.13,0,0,0,.36-.31.76.76,0,0,0,.14-.47.66.66,0,0,0-.09-.33,1.25,1.25,0,0,0-.23-.29,2.13,2.13,0,0,0-.33-.25,3.24,3.24,0,0,0-.38-.2,2.87,2.87,0,0,1-.51.15,2.19,2.19,0,0,1-.41,0,1.33,1.33,0,0,1-.71-.15.41.41,0,0,1-.23-.33.4.4,0,0,1,.21-.32,1.28,1.28,0,0,1,.71-.15,3.1,3.1,0,0,1,.78.11,2.39,2.39,0,0,0,.56-.38.69.69,0,0,0,.24-.52,1,1,0,0,0,0-.24,1.14,1.14,0,0,0-.11-.28H73.39v-.48H79v.48H77.48a1.51,1.51,0,0,1,.11.31,1.35,1.35,0,0,1,0,.3,1,1,0,0,1-.21.64,2.16,2.16,0,0,1-.51.48,3.06,3.06,0,0,1,.42.26,2,2,0,0,1,.35.32,1.42,1.42,0,0,1,.24.39A1.19,1.19,0,0,1,78,44a1.35,1.35,0,0,1-.21.78,1.68,1.68,0,0,1-.52.5,2.22,2.22,0,0,1-.68.27,3.08,3.08,0,0,1-.66.08,2.73,2.73,0,0,1-.85-.12,2.48,2.48,0,0,1-.63-.3,2,2,0,0,1-.43-.39,2,2,0,0,1-.26-.4Z" style="fill:#fff;stroke:#fff;stroke-miterlimit:10;stroke-width:0.2px"/><path d="M84.08,41.44a2.12,2.12,0,0,0,0-.32c0-.12,0-.22-.05-.29H80.32v-.48H86v.48H84.78c0,.08,0,.18,0,.3a2.57,2.57,0,0,1,0,.33,4.22,4.22,0,0,1-.35,1.78,4,4,0,0,1,.44,1,6.65,6.65,0,0,1,.2,1.22h-.72a7.06,7.06,0,0,0-.13-.83,5.1,5.1,0,0,0-.24-.77,2.21,2.21,0,0,1-.69.49,2.12,2.12,0,0,1-.9.18,2.58,2.58,0,0,1-.63-.08,1.88,1.88,0,0,1-.57-.24,1.36,1.36,0,0,1-.41-.42,1.09,1.09,0,0,1-.16-.6,1,1,0,0,1,.17-.59,1.33,1.33,0,0,1,.42-.39,1.84,1.84,0,0,1,.56-.21,2.74,2.74,0,0,1,.57-.06,2.25,2.25,0,0,1,.86.16,2.3,2.3,0,0,1,.7.44A5.41,5.41,0,0,0,84.08,41.44ZM82.4,42.57a1.49,1.49,0,0,0-.76.18.55.55,0,0,0-.3.5.52.52,0,0,0,.1.33.83.83,0,0,0,.26.22,1.26,1.26,0,0,0,.35.13,1.79,1.79,0,0,0,.36,0,1.4,1.4,0,0,0,1.3-.7,1.94,1.94,0,0,0-.56-.5A1.46,1.46,0,0,0,82.4,42.57Z" style="fill:#fff;stroke:#fff;stroke-miterlimit:10;stroke-width:0.2px"/><path d="M90.44,40.83V44a2.2,2.2,0,0,1-.12.76,1.26,1.26,0,0,1-.33.51,1.34,1.34,0,0,1-.52.29,2.24,2.24,0,0,1-.66.09,2.42,2.42,0,0,1-.91-.17,2.51,2.51,0,0,1-.75-.46,2.24,2.24,0,0,1-.51-.68,1.82,1.82,0,0,1-.19-.81,1.22,1.22,0,0,1,.35-.93,1.52,1.52,0,0,1,1.08-.33h1.84v-1.4H86.07v-.48h5.4v.48Zm-.72,2H87.88a1,1,0,0,0-.59.16.58.58,0,0,0-.2.49,1.1,1.1,0,0,0,.15.56,1.57,1.57,0,0,0,.38.44,1.88,1.88,0,0,0,.54.3,1.81,1.81,0,0,0,.61.11,1.18,1.18,0,0,0,.49-.09.72.72,0,0,0,.29-.23.82.82,0,0,0,.14-.31,1.72,1.72,0,0,0,0-.35Z" style="fill:#fff;stroke:#fff;stroke-miterlimit:10;stroke-width:0.2px"/><path d="M89,38.13a1.09,1.09,0,0,1,.92.42,2.36,2.36,0,0,1,.42,1.12l-.26.13A3.14,3.14,0,0,0,90,39.4a1.16,1.16,0,0,0-.2-.32.83.83,0,0,0-.28-.2,1,1,0,0,0-.4-.07,1.13,1.13,0,0,0-.27,0l-.27.07-.28.07a1.39,1.39,0,0,1-.3,0,1.31,1.31,0,0,1-1-.37,1.81,1.81,0,0,1-.49-1.08l.26-.13a1.4,1.4,0,0,0,.4.68,1.1,1.1,0,0,0,.74.22,1.13,1.13,0,0,0,.27,0l.27-.07.28-.07A1.4,1.4,0,0,1,89,38.13Z" style="fill:#fff;stroke:#fff;stroke-miterlimit:10;stroke-width:0.2px"/></svg>