<svg id="artwork" xmlns="http://www.w3.org/2000/svg" xmlns:xlink="http://www.w3.org/1999/xlink" viewBox="0 0 155 60"><defs><linearGradient id="linear-gradient" x1="31.8" y1="-96.71" x2="15.02" y2="-113.49" gradientTransform="matrix(1, 0, 0, -1, 0, -78)" gradientUnits="userSpaceOnUse"><stop offset="0" stop-color="#00a0ff"/><stop offset="0.01" stop-color="#00a1ff"/><stop offset="0.26" stop-color="#00beff"/><stop offset="0.51" stop-color="#00d2ff"/><stop offset="0.76" stop-color="#00dfff"/><stop offset="1" stop-color="#00e3ff"/></linearGradient><linearGradient id="linear-gradient-2" x1="43.83" y1="-108" x2="19.64" y2="-108" gradientTransform="matrix(1, 0, 0, -1, 0, -78)" gradientUnits="userSpaceOnUse"><stop offset="0" stop-color="#ffe000"/><stop offset="0.41" stop-color="#ffbd00"/><stop offset="0.78" stop-color="orange"/><stop offset="1" stop-color="#ff9c00"/></linearGradient><linearGradient id="linear-gradient-3" x1="34.83" y1="-110.3" x2="12.07" y2="-133.05" gradientTransform="matrix(1, 0, 0, -1, 0, -78)" gradientUnits="userSpaceOnUse"><stop offset="0" stop-color="#ff3a44"/><stop offset="1" stop-color="#c31162"/></linearGradient><linearGradient id="linear-gradient-4" x1="17.3" y1="-88.18" x2="27.46" y2="-98.34" gradientTransform="matrix(1, 0, 0, -1, 0, -78)" gradientUnits="userSpaceOnUse"><stop offset="0" stop-color="#32a071"/><stop offset="0.07" stop-color="#2da771"/><stop offset="0.48" stop-color="#15cf74"/><stop offset="0.8" stop-color="#06e775"/><stop offset="1" stop-color="#00f076"/></linearGradient></defs><title>si_get</title><rect width="155" height="60" style="fill:#fff;fill-opacity:0"/><rect x="10" y="10" width="135" height="40" rx="5" ry="5"/><path d="M140,10.8a4.2,4.2,0,0,1,4.2,4.2V45a4.2,4.2,0,0,1-4.2,4.2H15A4.2,4.2,0,0,1,10.8,45V15A4.2,4.2,0,0,1,15,10.8H140m0-.8H15a5,5,0,0,0-5,5V45a5,5,0,0,0,5,5H140a5,5,0,0,0,5-5V15a5,5,0,0,0-5-5Z" style="fill:#a6a6a6"/><path d="M74.72,26.79a3.72,3.72,0,1,0,3.73,3.72A3.66,3.66,0,0,0,74.72,26.79Zm0,6a2.26,2.26,0,1,1,2.1-2.25A2.15,2.15,0,0,1,74.72,32.76Zm-8.14-6a3.72,3.72,0,1,0,3.73,3.72A3.66,3.66,0,0,0,66.58,26.79Zm0,6a2.26,2.26,0,1,1,2.1-2.25A2.15,2.15,0,0,1,66.58,32.76ZM56.9,27.93v1.58h3.77a3.29,3.29,0,0,1-.86,2,3.86,3.86,0,0,1-2.91,1.15,4.2,4.2,0,0,1,0-8.39,4,4,0,0,1,2.84,1.13l1.11-1.11a5.5,5.5,0,0,0-4-1.59,5.77,5.77,0,1,0,0,11.55,5.28,5.28,0,0,0,4-1.62,5.21,5.21,0,0,0,1.37-3.69,5.14,5.14,0,0,0-.08-1Zm39.6,1.23a3.46,3.46,0,0,0-3.18-2.37,3.53,3.53,0,0,0-3.51,3.72,3.64,3.64,0,0,0,3.69,3.72,3.7,3.7,0,0,0,3.1-1.65l-1.27-.84a2.12,2.12,0,0,1-1.83,1,1.89,1.89,0,0,1-1.8-1.13l5-2.06ZM91.43,30.4a2,2,0,0,1,1.94-2.17,1.44,1.44,0,0,1,1.38.79Zm-4,3.61H89V23.07H87.39Zm-2.68-6.38h-.06a2.58,2.58,0,0,0-2-.83,3.72,3.72,0,0,0,0,7.44,2.53,2.53,0,0,0,2-.84h.06v.54c0,1.42-.76,2.18-2,2.18a2.06,2.06,0,0,1-1.87-1.32l-1.42.59a3.54,3.54,0,0,0,3.3,2.2c1.92,0,3.53-1.13,3.53-3.87V27H84.72Zm-1.87,5.14a2.26,2.26,0,0,1,0-4.51,2.1,2.1,0,0,1,2,2.27A2.08,2.08,0,0,1,82.84,32.76Zm21.31-9.69h-3.91V34h1.63V29.86h2.28a3.4,3.4,0,1,0,0-6.79Zm0,5.27h-2.32V24.59h2.32a1.87,1.87,0,1,1,0,3.75Zm10.08-1.57a3.06,3.06,0,0,0-2.91,1.67l1.45.6a1.55,1.55,0,0,1,1.49-.8A1.57,1.57,0,0,1,116,29.65v.11a3.61,3.61,0,0,0-1.7-.42c-1.56,0-3.15.86-3.15,2.46a2.52,2.52,0,0,0,2.71,2.4A2.3,2.3,0,0,0,116,33.14H116V34h1.57V29.79C117.59,27.85,116.15,26.77,114.28,26.77Zm-.2,6c-.53,0-1.28-.27-1.28-.93,0-.84.93-1.17,1.73-1.17A2.9,2.9,0,0,1,116,31,2,2,0,0,1,114.08,32.76ZM123.33,27l-1.87,4.74h-.06L119.46,27h-1.76l2.91,6.62L119,37.31h1.7L125.14,27Zm-14.69,7h1.63V23.07h-1.63Z" style="fill:#fff"/><path d="M20.44,17.54a2,2,0,0,0-.46,1.4V41.06a2,2,0,0,0,.46,1.4l.07.07L32.9,30.15v-.29L20.51,17.47Z" style="fill:url(#linear-gradient)"/><path d="M37,34.28,32.9,30.15v-.29L37,25.72l.09.05L42,28.56c1.4.79,1.4,2.09,0,2.89l-4.89,2.78Z" style="fill:url(#linear-gradient-2)"/><path d="M37.12,34.22,32.9,30,20.44,42.46a1.63,1.63,0,0,0,2.08.06l14.61-8.3" style="fill:url(#linear-gradient-3)"/><path d="M37.12,25.78l-14.61-8.3a1.63,1.63,0,0,0-2.08.06L32.9,30Z" style="fill:url(#linear-gradient-4)"/><path d="M37,34.13,22.51,42.38a1.67,1.67,0,0,1-2,0h0l-.07.07h0l.07.07h0a1.66,1.66,0,0,0,2,0l14.61-8.3Z" style="opacity:0.2;isolation:isolate"/><path d="M20.44,42.32a2,2,0,0,1-.46-1.4v.15a2,2,0,0,0,.46,1.4l.07-.07Z" style="opacity:0.12;isolation:isolate"/><path d="M42,31.3l-5,2.83.09.09L42,31.44a1.75,1.75,0,0,0,1-1.44h0A1.86,1.86,0,0,1,42,31.3Z" style="opacity:0.12;isolation:isolate"/><path d="M22.51,17.62,42,28.7a1.86,1.86,0,0,1,1,1.3h0a1.75,1.75,0,0,0-1-1.44L22.51,17.48c-1.4-.79-2.54-.13-2.54,1.47v.15C20,17.49,21.12,16.83,22.51,17.62Z" style="fill:#fff;opacity:0.25;isolation:isolate"/><path d="M54.41,42.92a1.11,1.11,0,0,1,.08.41.81.81,0,0,1-.23.63,1.16,1.16,0,0,1-1.38,0,.88.88,0,0,1-.26-.67.79.79,0,0,1,.33-.67,1.44,1.44,0,0,1,.89-.25,1.94,1.94,0,0,1,1.3.4,1.3,1.3,0,0,1,.47,1A1.48,1.48,0,0,1,55.07,45a2.34,2.34,0,0,1-1.52.43,2.85,2.85,0,0,1-1.3-.27,1.82,1.82,0,0,1-.8-.77,2.35,2.35,0,0,1-.27-1.14,2.17,2.17,0,0,1,.31-1.16,2,2,0,0,1,.88-.78,3,3,0,0,1,1.3-.27,5.77,5.77,0,0,1,1,.08,4.28,4.28,0,0,1,.86.25l-.2.53a4,4,0,0,0-.8-.25,4.88,4.88,0,0,0-.91-.07,2.07,2.07,0,0,0-1.39.44,1.77,1.77,0,0,0-.06,2.43,1.82,1.82,0,0,0,1.31.44,2,2,0,0,0,1.14-.27.89.89,0,0,0,.38-.79,1,1,0,0,0-.16-.57A.94.94,0,0,0,54.41,42.92Zm-.56-.08h-.07a.78.78,0,0,0-.46.11.37.37,0,0,0-.16.32.39.39,0,0,0,.1.28.48.48,0,0,0,.6,0,.41.41,0,0,0,.1-.29A.84.84,0,0,0,53.85,42.84Z" style="fill:#fff;stroke:#fff;stroke-miterlimit:10;stroke-width:0.2px"/><path d="M61.74,42.1a3.93,3.93,0,0,1-.38,1.76A2.6,2.6,0,0,1,60.26,45a3.61,3.61,0,0,1-1.76.4,3.34,3.34,0,0,1-1.34-.25,1.9,1.9,0,0,1-.86-.7A1.94,1.94,0,0,1,56,43.4a1.42,1.42,0,0,1,.25-.83A1.6,1.6,0,0,1,57,42a3.42,3.42,0,0,1,1.28-.2h.48a.76.76,0,0,0-.21-.52A.7.7,0,0,0,58,41.1q-.59,0-.59.46a.71.71,0,0,0,0,.16l-.55.09a1.89,1.89,0,0,1,0-.32.8.8,0,0,1,.29-.67A1.51,1.51,0,0,1,59,41,1.48,1.48,0,0,1,59.29,42v.31h-1a3.21,3.21,0,0,0-1,.12,1.06,1.06,0,0,0-.52.36,1,1,0,0,0-.17.6,1.27,1.27,0,0,0,.51,1.07,2.29,2.29,0,0,0,1.42.39,2.94,2.94,0,0,0,1.43-.32,2.16,2.16,0,0,0,.91-1,3.29,3.29,0,0,0,.32-1.49,3.12,3.12,0,0,0-.32-1.47,2.13,2.13,0,0,0-.91-.92,2.81,2.81,0,0,0-1.33-.31,4.25,4.25,0,0,0-2.27.63l-.25-.51a5.11,5.11,0,0,1,2.53-.66,3.74,3.74,0,0,1,1.18.18,2.9,2.9,0,0,1,1,.58,2.64,2.64,0,0,1,.7,1A3.91,3.91,0,0,1,61.74,42.1Z" style="fill:#fff;stroke:#fff;stroke-miterlimit:10;stroke-width:0.2px"/><path d="M69,43.12a2.78,2.78,0,0,1-.24,1.2,1.76,1.76,0,0,1-.68.77,1.87,1.87,0,0,1-1,.27,2.11,2.11,0,0,1-.36,0l0-.52H67a1.37,1.37,0,0,0,.76-.2,1.25,1.25,0,0,0,.47-.6,2.53,2.53,0,0,0,.16-1,1.88,1.88,0,0,0-.53-1.43,2,2,0,0,0-1.45-.51,2.83,2.83,0,0,0-1.06.21,3.5,3.5,0,0,0-1,.62,2.31,2.31,0,0,1,.74-.11,1.92,1.92,0,0,1,1.35.44,1.63,1.63,0,0,1,.48,1.26,1.73,1.73,0,0,1-.55,1.38,2.39,2.39,0,0,1-1.61.47A2.23,2.23,0,0,1,63.35,45a1.41,1.41,0,0,1-.51-1.17v-.1l-.28.48-.49-.28a14.77,14.77,0,0,1,1.71-2.12c-.1-.37-.29-.56-.57-.56a.5.5,0,0,0-.36.13.52.52,0,0,0-.13.39.92.92,0,0,0,0,.2c0,.06,0,.13.06.23l-.54.11a1.92,1.92,0,0,1-.1-.61.92.92,0,0,1,.28-.71,1.09,1.09,0,0,1,.76-.25,1,1,0,0,1,1,.71,4.12,4.12,0,0,1,1.12-.66,3.24,3.24,0,0,1,1.14-.21,2.85,2.85,0,0,1,1.36.31,2,2,0,0,1,.87.88A2.87,2.87,0,0,1,69,43.12Zm-5.24-.5q-.33.39-.6.76l.27,0a1.44,1.44,0,0,0,0,.38,1,1,0,0,0,.37.82A2.22,2.22,0,0,0,66,44.53a1.19,1.19,0,0,0,.39-1,1.09,1.09,0,0,0-.36-.88,1.57,1.57,0,0,0-1-.3,3.51,3.51,0,0,0-.62.05A3.07,3.07,0,0,0,63.73,42.62Z" style="fill:#fff;stroke:#fff;stroke-miterlimit:10;stroke-width:0.2px"/><path d="M70.18,40.42a1.25,1.25,0,0,0,.08-.45.7.7,0,0,0-.4-.66,3.42,3.42,0,0,0-2.42,0A.71.71,0,0,0,67,40a1.24,1.24,0,0,0,.08.45l-.53.09a1.53,1.53,0,0,1-.11-.56,1.18,1.18,0,0,1,.55-1,3.72,3.72,0,0,1,3.24,0,1.17,1.17,0,0,1,.55,1,1.51,1.51,0,0,1-.11.57Z" style="fill:#fff;stroke:#fff;stroke-miterlimit:10;stroke-width:0.2px"/><path d="M71.49,42.92c0,.08,0,.17.05.26h.08a2.59,2.59,0,0,0,.45,0,1.06,1.06,0,0,0,.35-.14,1.1,1.1,0,0,0,.32-.3,2.07,2.07,0,0,0,.26-.49,1.71,1.71,0,0,0-.22-.73.49.49,0,0,0-.42-.23.48.48,0,0,0-.36.13.54.54,0,0,0-.13.39.92.92,0,0,0,0,.2c0,.06,0,.13.06.23l-.54.11a1.93,1.93,0,0,1-.1-.61.92.92,0,0,1,.28-.71,1.09,1.09,0,0,1,.76-.25,1,1,0,0,1,.61.19,1.18,1.18,0,0,1,.38.57,2.51,2.51,0,0,1,.88-.68,2.62,2.62,0,0,1,1.11-.23,3,3,0,0,1,1.37.3,2.08,2.08,0,0,1,.9.87,2.74,2.74,0,0,1,.31,1.33,2.77,2.77,0,0,1-.26,1.24,1.77,1.77,0,0,1-.69.77,1.88,1.88,0,0,1-1,.25,2.14,2.14,0,0,1-.37,0l0-.52h.27a1.25,1.25,0,0,0,1-.45,2,2,0,0,0,.36-1.26,1.92,1.92,0,0,0-.54-1.44,2,2,0,0,0-1.47-.53,2.14,2.14,0,0,0-.91.19,2.09,2.09,0,0,0-.72.56l.36,0a1.91,1.91,0,0,1,1.34.44,1.63,1.63,0,0,1,.48,1.26,1.71,1.71,0,0,1-.57,1.36,2.44,2.44,0,0,1-1.66.5,2.65,2.65,0,0,1-1.83-.61,2.9,2.9,0,0,1-.87-1.8Zm2-.51a1.92,1.92,0,0,1-.64,1,2,2,0,0,1-1.14.33,1.78,1.78,0,0,0,.71.87,2.34,2.34,0,0,0,1.22.28,1.87,1.87,0,0,0,1.21-.35,1.19,1.19,0,0,0,.43-1,1,1,0,0,0-.37-.86,1.6,1.6,0,0,0-1-.29Z" style="fill:#fff;stroke:#fff;stroke-miterlimit:10;stroke-width:0.2px"/><path d="M76.92,37.8a.72.72,0,0,1,.5.37A.63.63,0,0,1,78,37.8a.68.68,0,0,1,.51.19.72.72,0,0,1,.19.53.74.74,0,0,1-.21.57.86.86,0,0,1-.62.2l-.26,0v2h-.53V39A1.08,1.08,0,0,0,77,38.5a.57.57,0,0,0-.3-.23Zm.71,1,.22,0c.28,0,.42-.11.42-.33a.29.29,0,0,0-.08-.21.27.27,0,0,0-.21-.08.32.32,0,0,0-.26.1.57.57,0,0,0-.09.34Z" style="fill:#fff;stroke:#fff;stroke-miterlimit:10;stroke-width:0.2px"/><path d="M88.87,42.4a1.32,1.32,0,0,1-.44,1,1.78,1.78,0,0,1-1.22.38,1.6,1.6,0,0,1-1-.27,1,1,0,0,1-.34-.8.93.93,0,0,1,0-.27H84.74V42h2.89v.52H86.5a.54.54,0,0,0-.06.26q0,.54.77.54a1.22,1.22,0,0,0,.8-.23.8.8,0,0,0,.28-.65,1.08,1.08,0,0,0-.49-1,2.71,2.71,0,0,0-1.46-.32,2.93,2.93,0,0,0-2.13.73,2.71,2.71,0,0,0-.75,2,2.41,2.41,0,0,0,.68,1.83,2.64,2.64,0,0,0,1.9.65,2.61,2.61,0,0,0,1.71-.52,1.78,1.78,0,0,0,.63-1.46,2.77,2.77,0,0,0,0-.3l.56,0a1.87,1.87,0,0,1,0,.33,2.49,2.49,0,0,1-.36,1.35,2.31,2.31,0,0,1-1,.88,3.57,3.57,0,0,1-1.5.3,3.24,3.24,0,0,1-2.36-.8,3,3,0,0,1-.81-2.25,3.51,3.51,0,0,1,.42-1.74A2.77,2.77,0,0,1,84.49,41a4,4,0,0,1,1.83-.4,3.21,3.21,0,0,1,1.9.47A1.56,1.56,0,0,1,88.87,42.4Z" style="fill:#fff;stroke:#fff;stroke-miterlimit:10;stroke-width:0.2px"/><path d="M95.49,42.38A4.72,4.72,0,0,1,95.24,44a2.32,2.32,0,0,1-.71,1.06,1.67,1.67,0,0,1-1.07.37,1.15,1.15,0,0,1-.61-.15.84.84,0,0,1-.34-.37,1.13,1.13,0,0,1-.1-.47,1.45,1.45,0,0,1,.05-.39,4.53,4.53,0,0,1,.2-.53,3.3,3.3,0,0,0,.17-.5,1.69,1.69,0,0,0,0-.39,1,1,0,0,0-.33-.79,1.35,1.35,0,0,0-.91-.28,1.78,1.78,0,0,0-.9.23,1.53,1.53,0,0,0-.6.65,2.14,2.14,0,0,0-.21,1,2.46,2.46,0,0,0,.08.68,1.51,1.51,0,0,1,1.14-.58,1,1,0,0,1,.72.26.87.87,0,0,1,.27.66.91.91,0,0,1-.29.72,1.22,1.22,0,0,1-.83.25,1.51,1.51,0,0,1-.87-.26,1.66,1.66,0,0,1-.58-.72,2.46,2.46,0,0,1-.2-1,2.7,2.7,0,0,1,.28-1.25,2,2,0,0,1,.81-.85,2.46,2.46,0,0,1,1.23-.3,1.89,1.89,0,0,1,1.3.42,1.4,1.4,0,0,1,.47,1.1,2.14,2.14,0,0,1,0,.38,2.2,2.2,0,0,1-.08.32c0,.1-.09.24-.17.43a4.34,4.34,0,0,0-.16.42,1,1,0,0,0,0,.28.48.48,0,0,0,.13.37.54.54,0,0,0,.38.13,1,1,0,0,0,.71-.29,2,2,0,0,0,.52-.86,4.14,4.14,0,0,0,.2-1.35,3.67,3.67,0,0,0-.33-1.61,2.3,2.3,0,0,0-1-1,3,3,0,0,0-1.48-.35,5.12,5.12,0,0,0-1.29.16,4.77,4.77,0,0,0-1.15.47l-.26-.51a5.81,5.81,0,0,1,2.72-.66,3.62,3.62,0,0,1,1.79.42,2.77,2.77,0,0,1,1.15,1.22A4.19,4.19,0,0,1,95.49,42.38Zm-5.27,2.17a.93.93,0,0,0,.77.35.69.69,0,0,0,.44-.11.4.4,0,0,0,.14-.33.39.39,0,0,0-.13-.3.5.5,0,0,0-.35-.12A1.13,1.13,0,0,0,90.22,44.55Z" style="fill:#fff;stroke:#fff;stroke-miterlimit:10;stroke-width:0.2px"/><path d="M95.76,44.82a1.29,1.29,0,0,0,.44.07,1,1,0,0,0,.86-.41,3,3,0,0,0,0-2.49.94.94,0,0,0-.86-.42,1.37,1.37,0,0,0-.45.07l-.11-.51a2.2,2.2,0,0,1,.64-.1,1.44,1.44,0,0,1,1.21.55,3.36,3.36,0,0,1,0,3.28,1.44,1.44,0,0,1-1.21.55,2.28,2.28,0,0,1-.64-.09Z" style="fill:#fff;stroke:#fff;stroke-miterlimit:10;stroke-width:0.2px"/><path d="M104.89,42.94a2.52,2.52,0,0,1-.59,1.77,2.06,2.06,0,0,1-1.59.64l-.42,0,0-.52h.32a1.58,1.58,0,0,0,1.25-.48,2,2,0,0,0,.43-1.4,2.08,2.08,0,0,0-.38-1.31,1.25,1.25,0,0,0-1-.49,1.33,1.33,0,0,0-1,.38,2.47,2.47,0,0,0-.58,1.11.83.83,0,0,1,.36-.07.85.85,0,0,1,.67.27,1.12,1.12,0,0,1,.24.77,1.85,1.85,0,0,1-.23.93,1.62,1.62,0,0,1-.68.65,2.27,2.27,0,0,1-1.06.23,2,2,0,0,1-1.6-.63A2.51,2.51,0,0,1,98.45,43a2.89,2.89,0,0,1,.27-1.29,2,2,0,0,1,.8-.86,2.4,2.4,0,0,1,1.22-.3l.39,0,0,.52h-.33a1.65,1.65,0,0,0-1.3.49A2.16,2.16,0,0,0,99,43.08a1.94,1.94,0,0,0,.41,1.31,1.7,1.7,0,0,0,2.2.13,1.19,1.19,0,0,0,.38-.92q0-.52-.37-.52a.67.67,0,0,0-.2,0,.63.63,0,0,0-.19.11l-.55-.17a3.35,3.35,0,0,1,.77-1.83,1.89,1.89,0,0,1,1.43-.62,1.94,1.94,0,0,1,1.06.28,1.78,1.78,0,0,1,.68.82A3.08,3.08,0,0,1,104.89,42.94Z" style="fill:#fff;stroke:#fff;stroke-miterlimit:10;stroke-width:0.2px"/><path d="M105.78,42.92c0,.08,0,.17.05.26h.08a2.59,2.59,0,0,0,.45,0,1.07,1.07,0,0,0,.35-.14,1.1,1.1,0,0,0,.32-.3,2.07,2.07,0,0,0,.26-.49,1.71,1.71,0,0,0-.22-.73.49.49,0,0,0-.42-.23.48.48,0,0,0-.36.13.54.54,0,0,0-.13.39.92.92,0,0,0,0,.2c0,.06,0,.13.06.23l-.54.11a1.93,1.93,0,0,1-.1-.61.92.92,0,0,1,.28-.71,1.09,1.09,0,0,1,.76-.25,1,1,0,0,1,.61.19,1.18,1.18,0,0,1,.38.57,2.51,2.51,0,0,1,.88-.68,2.62,2.62,0,0,1,1.11-.23,3,3,0,0,1,1.37.3,2.08,2.08,0,0,1,.9.87,2.74,2.74,0,0,1,.31,1.33,2.77,2.77,0,0,1-.26,1.24,1.77,1.77,0,0,1-.69.77,1.88,1.88,0,0,1-1,.25,2.14,2.14,0,0,1-.37,0l0-.52h.27a1.25,1.25,0,0,0,1-.45,2,2,0,0,0,.36-1.26,1.92,1.92,0,0,0-.54-1.44,2,2,0,0,0-1.47-.53,2.14,2.14,0,0,0-.91.19,2.09,2.09,0,0,0-.72.56l.36,0a1.91,1.91,0,0,1,1.34.44,1.63,1.63,0,0,1,.48,1.26,1.71,1.71,0,0,1-.57,1.36,2.44,2.44,0,0,1-1.66.5,2.65,2.65,0,0,1-1.83-.61,2.9,2.9,0,0,1-.87-1.8Zm2-.51a1.92,1.92,0,0,1-.64,1,2,2,0,0,1-1.14.33,1.78,1.78,0,0,0,.71.87,2.34,2.34,0,0,0,1.22.28,1.87,1.87,0,0,0,1.21-.35,1.19,1.19,0,0,0,.43-1,1,1,0,0,0-.37-.86,1.6,1.6,0,0,0-1-.29Z" style="fill:#fff;stroke:#fff;stroke-miterlimit:10;stroke-width:0.2px"/><path d="M111.21,37.8a.72.72,0,0,1,.5.37.63.63,0,0,1,.61-.37.68.68,0,0,1,.51.19.72.72,0,0,1,.19.53.74.74,0,0,1-.21.57.86.86,0,0,1-.62.2l-.26,0v2h-.53V39a1.08,1.08,0,0,0-.09-.52.57.57,0,0,0-.3-.23Zm.71,1,.22,0c.28,0,.42-.11.42-.33a.29.29,0,0,0-.08-.21.27.27,0,0,0-.21-.08.32.32,0,0,0-.26.1.57.57,0,0,0-.09.34Z" style="fill:#fff;stroke:#fff;stroke-miterlimit:10;stroke-width:0.2px"/><path d="M113.18,42.92c0,.08,0,.17.05.26h.08a2.59,2.59,0,0,0,.45,0,1.06,1.06,0,0,0,.35-.14,1.1,1.1,0,0,0,.32-.3,2.07,2.07,0,0,0,.26-.49,1.71,1.71,0,0,0-.22-.73.49.49,0,0,0-.42-.23.48.48,0,0,0-.36.13.54.54,0,0,0-.13.39.92.92,0,0,0,0,.2c0,.06,0,.13.06.23l-.54.11a1.93,1.93,0,0,1-.1-.61.92.92,0,0,1,.28-.71,1.09,1.09,0,0,1,.76-.25,1,1,0,0,1,.61.19,1.18,1.18,0,0,1,.38.57,2.51,2.51,0,0,1,.88-.68,2.62,2.62,0,0,1,1.11-.23,3,3,0,0,1,1.37.3,2.08,2.08,0,0,1,.9.87,2.74,2.74,0,0,1,.31,1.33,2.77,2.77,0,0,1-.26,1.24,1.77,1.77,0,0,1-.69.77,1.88,1.88,0,0,1-1,.25,2.14,2.14,0,0,1-.37,0l0-.52h.27a1.25,1.25,0,0,0,1-.45,2,2,0,0,0,.36-1.26,1.92,1.92,0,0,0-.54-1.44,2,2,0,0,0-1.47-.53,2.14,2.14,0,0,0-.91.19,2.09,2.09,0,0,0-.72.56l.36,0a1.91,1.91,0,0,1,1.34.44,1.63,1.63,0,0,1,.48,1.26,1.71,1.71,0,0,1-.57,1.36,2.44,2.44,0,0,1-1.66.5,2.65,2.65,0,0,1-1.83-.61,2.9,2.9,0,0,1-.87-1.8Zm2-.51a1.92,1.92,0,0,1-.64,1,2,2,0,0,1-1.14.33,1.78,1.78,0,0,0,.71.87,2.34,2.34,0,0,0,1.22.28,1.87,1.87,0,0,0,1.21-.35,1.19,1.19,0,0,0,.43-1,1,1,0,0,0-.37-.86,1.6,1.6,0,0,0-1-.29Z" style="fill:#fff;stroke:#fff;stroke-miterlimit:10;stroke-width:0.2px"/><path d="M52.1,16.64q-.32,0-.73,0h-.2v-.54H54a.81.81,0,0,0-.22-.56.74.74,0,0,0-.54-.2.78.78,0,0,0-.47.12.4.4,0,0,0-.16.34v.05a.36.36,0,0,0,0,.06L52,16a1.28,1.28,0,0,1,0-.18.86.86,0,0,1,.31-.71,1.37,1.37,0,0,1,.87-.25,1.35,1.35,0,0,1,1,.39,1.58,1.58,0,0,1,.36,1.12v.33H54a7,7,0,0,0-1,.05,1.49,1.49,0,0,0-.58.22,1,1,0,0,0-.38.42,1.36,1.36,0,0,0-.12.6,1.22,1.22,0,0,0,.51,1,2.45,2.45,0,0,0,1.46.38,3.51,3.51,0,0,0,1.23-.2A2.27,2.27,0,0,0,56,18.6a2.51,2.51,0,0,0,.53-.91,3.56,3.56,0,0,0,.17-1.13,3,3,0,0,0-.35-1.47,1.23,1.23,0,0,1-.42.36,1.12,1.12,0,0,1-.53.13.91.91,0,0,1-.73-.29,1.31,1.31,0,0,1-.25-.87,4.27,4.27,0,0,0,0-.63.38.38,0,0,0-.19-.28h0l.2-.5a4.46,4.46,0,0,1,2.19,1.39,3.42,3.42,0,0,1,.75,2.21,3.83,3.83,0,0,1-.4,1.8,2.73,2.73,0,0,1-1.18,1.18,4,4,0,0,1-1.88.4,3.44,3.44,0,0,1-1.39-.25,1.93,1.93,0,0,1-.87-.7,1.8,1.8,0,0,1-.29-1,1.65,1.65,0,0,1,.19-.8A1.45,1.45,0,0,1,52.1,16.64Zm4-2a3.59,3.59,0,0,0-1.15-.86,2.07,2.07,0,0,1,.1.64.84.84,0,0,0,.12.48.4.4,0,0,0,.33.13.63.63,0,0,0,.33-.09A.84.84,0,0,0,56.06,14.65Z" style="fill:#fff;stroke:#fff;stroke-miterlimit:10;stroke-width:0.2px"/><path d="M63.41,15.8a1.75,1.75,0,0,1-.06.41l-.58-.09a1.16,1.16,0,0,0,0-.25q0-.49-.63-.49a.74.74,0,0,0-.55.2.8.8,0,0,0-.22.55h.09a2.52,2.52,0,0,1,1.71.49,1.86,1.86,0,0,1,.56,1.47,2,2,0,0,1-.45,1.38,1.54,1.54,0,0,1-1.2.5,1.75,1.75,0,0,1-.79-.17,1.7,1.7,0,0,1-.61-.56,1.74,1.74,0,0,1-.62.57,1.81,1.81,0,0,1-.78.15,1.51,1.51,0,0,1-1.2-.51A2.13,2.13,0,0,1,57.67,18,2.2,2.2,0,0,1,58,16.91a1.9,1.9,0,0,1,.81-.76,3,3,0,0,1,1.62-.25l0,.56-.32,0a1.8,1.8,0,0,0-1.28.44,1.56,1.56,0,0,0-.46,1.19,1.48,1.48,0,0,0,.28,1,1,1,0,0,0,.82.34,1,1,0,0,0,.8-.3,1.33,1.33,0,0,0,.27-.92v-.06H61v.06a1.31,1.31,0,0,0,.27.92,1.09,1.09,0,0,0,.83.29,1,1,0,0,0,.79-.33,1.48,1.48,0,0,0,.27-1,1.49,1.49,0,0,0-.21-.88,1.16,1.16,0,0,0-.66-.41A5,5,0,0,0,61,16.68h-.22v-.34a1.58,1.58,0,0,1,.36-1.12,1.34,1.34,0,0,1,1-.39,1.4,1.4,0,0,1,.87.24A.85.85,0,0,1,63.41,15.8Z" style="fill:#fff;stroke:#fff;stroke-miterlimit:10;stroke-width:0.2px"/></svg>