<svg id="artwork" xmlns="http://www.w3.org/2000/svg" xmlns:xlink="http://www.w3.org/1999/xlink" viewBox="0 0 155 60"><defs><linearGradient id="linear-gradient" x1="31.8" y1="183.29" x2="15.02" y2="166.51" gradientTransform="matrix(1, 0, 0, -1, 0, 202)" gradientUnits="userSpaceOnUse"><stop offset="0" stop-color="#00a0ff"/><stop offset="0.01" stop-color="#00a1ff"/><stop offset="0.26" stop-color="#00beff"/><stop offset="0.51" stop-color="#00d2ff"/><stop offset="0.76" stop-color="#00dfff"/><stop offset="1" stop-color="#00e3ff"/></linearGradient><linearGradient id="linear-gradient-2" x1="43.83" y1="172" x2="19.64" y2="172" gradientTransform="matrix(1, 0, 0, -1, 0, 202)" gradientUnits="userSpaceOnUse"><stop offset="0" stop-color="#ffe000"/><stop offset="0.41" stop-color="#ffbd00"/><stop offset="0.78" stop-color="orange"/><stop offset="1" stop-color="#ff9c00"/></linearGradient><linearGradient id="linear-gradient-3" x1="34.83" y1="169.7" x2="12.07" y2="146.95" gradientTransform="matrix(1, 0, 0, -1, 0, 202)" gradientUnits="userSpaceOnUse"><stop offset="0" stop-color="#ff3a44"/><stop offset="1" stop-color="#c31162"/></linearGradient><linearGradient id="linear-gradient-4" x1="17.3" y1="191.82" x2="27.46" y2="181.66" gradientTransform="matrix(1, 0, 0, -1, 0, 202)" gradientUnits="userSpaceOnUse"><stop offset="0" stop-color="#32a071"/><stop offset="0.07" stop-color="#2da771"/><stop offset="0.48" stop-color="#15cf74"/><stop offset="0.8" stop-color="#06e775"/><stop offset="1" stop-color="#00f076"/></linearGradient></defs><title>zh-cn_get</title><rect width="155" height="60" style="fill:#fff;fill-opacity:0"/><rect x="10" y="10" width="135" height="40" rx="5" ry="5"/><path d="M140,10.8a4.2,4.2,0,0,1,4.2,4.2V45a4.2,4.2,0,0,1-4.2,4.2H15A4.2,4.2,0,0,1,10.8,45V15A4.2,4.2,0,0,1,15,10.8H140m0-.8H15a5,5,0,0,0-5,5V45a5,5,0,0,0,5,5H140a5,5,0,0,0,5-5V15a5,5,0,0,0-5-5Z" style="fill:#a6a6a6"/><path d="M78.14,31.75A4.25,4.25,0,1,0,82.41,36,4.19,4.19,0,0,0,78.14,31.75Zm0,6.83A2.58,2.58,0,1,1,80.54,36,2.46,2.46,0,0,1,78.14,38.58Zm-9.31-6.83A4.25,4.25,0,1,0,73.09,36,4.19,4.19,0,0,0,68.82,31.75Zm0,6.83A2.58,2.58,0,1,1,71.22,36,2.46,2.46,0,0,1,68.82,38.58ZM57.74,33.06v1.8h4.32a3.77,3.77,0,0,1-1,2.27,4.42,4.42,0,0,1-3.33,1.32,4.8,4.8,0,0,1,0-9.6A4.6,4.6,0,0,1,61,30.14l1.27-1.27A6.29,6.29,0,0,0,57.74,27a6.61,6.61,0,1,0,0,13.21,6,6,0,0,0,4.61-1.85,6,6,0,0,0,1.56-4.22,5.87,5.87,0,0,0-.1-1.13Zm45.31,1.4a4,4,0,0,0-3.64-2.71,4,4,0,0,0-4,4.25,4.16,4.16,0,0,0,4.22,4.25,4.23,4.23,0,0,0,3.54-1.88l-1.45-1a2.43,2.43,0,0,1-2.09,1.18,2.16,2.16,0,0,1-2.06-1.29l5.69-2.35Zm-5.8,1.42a2.33,2.33,0,0,1,2.22-2.48,1.65,1.65,0,0,1,1.58.9ZM92.63,40H94.5V27.5H92.63Zm-3.06-7.3H89.5a3,3,0,0,0-2.24-1,4.26,4.26,0,0,0,0,8.51,2.9,2.9,0,0,0,2.24-1h.06v.61c0,1.63-.87,2.5-2.27,2.5a2.35,2.35,0,0,1-2.14-1.51l-1.63.68a4.05,4.05,0,0,0,3.77,2.51c2.19,0,4-1.29,4-4.43V32H89.57Zm-2.14,5.88a2.59,2.59,0,0,1,0-5.16A2.4,2.4,0,0,1,89.7,36,2.38,2.38,0,0,1,87.42,38.58ZM111.81,27.5h-4.47V40h1.87V35.26h2.61a3.89,3.89,0,1,0,0-7.76Zm0,6H109.2V29.24h2.65a2.14,2.14,0,1,1,0,4.29Zm11.53-1.8a3.5,3.5,0,0,0-3.33,1.91l1.66.69a1.77,1.77,0,0,1,1.7-.92,1.8,1.8,0,0,1,2,1.61v.13a4.13,4.13,0,0,0-1.95-.48c-1.79,0-3.6,1-3.6,2.81a2.89,2.89,0,0,0,3.1,2.75A2.63,2.63,0,0,0,125.32,39h.06v1h1.8V35.19C127.18,33,125.52,31.73,123.39,31.73Zm-.23,6.85c-.61,0-1.46-.31-1.46-1.06,0-1,1.06-1.33,2-1.33a3.32,3.32,0,0,1,1.7.42A2.26,2.26,0,0,1,123.16,38.58ZM133.74,32l-2.14,5.42h-.06L129.32,32h-2l3.33,7.58-1.9,4.21h1.95L135.82,32Zm-16.81,8h1.87V27.5h-1.87Z" style="fill:#fff"/><path d="M20.44,17.54a2,2,0,0,0-.46,1.4V41.06a2,2,0,0,0,.46,1.4l.07.07L32.9,30.15v-.29L20.51,17.47Z" style="fill:url(#linear-gradient)"/><path d="M37,34.28,32.9,30.15v-.29L37,25.72l.09.05L42,28.56c1.4.79,1.4,2.09,0,2.89l-4.89,2.78Z" style="fill:url(#linear-gradient-2)"/><path d="M37.12,34.22,32.9,30,20.44,42.46a1.63,1.63,0,0,0,2.08.06l14.61-8.3" style="fill:url(#linear-gradient-3)"/><path d="M37.12,25.78l-14.61-8.3a1.63,1.63,0,0,0-2.08.06L32.9,30Z" style="fill:url(#linear-gradient-4)"/><path d="M37,34.13,22.51,42.38a1.67,1.67,0,0,1-2,0h0l-.07.07h0l.07.07h0a1.66,1.66,0,0,0,2,0l14.61-8.3Z" style="opacity:0.2;isolation:isolate"/><path d="M20.44,42.32a2,2,0,0,1-.46-1.4v.15a2,2,0,0,0,.46,1.4l.07-.07Z" style="opacity:0.12;isolation:isolate"/><path d="M42,31.3l-5,2.83.09.09L42,31.44a1.75,1.75,0,0,0,1-1.44h0A1.86,1.86,0,0,1,42,31.3Z" style="opacity:0.12;isolation:isolate"/><path d="M22.51,17.62,42,28.7a1.86,1.86,0,0,1,1,1.3h0a1.75,1.75,0,0,0-1-1.44L22.51,17.48c-1.4-.79-2.54-.13-2.54,1.47v.15C20,17.49,21.12,16.83,22.51,17.62Z" style="fill:#fff;opacity:0.25;isolation:isolate"/><path d="M54.69,17.56v1.3l.09-.11a18,18,0,0,1,2.59,1.51l-.38.49a16.68,16.68,0,0,0-2.3-1.45v3.84h-.58V17.56H51.33V17h6.44v.54Z" style="fill:#fff;stroke:#fff;stroke-miterlimit:10;stroke-width:0.2px"/><path d="M64.78,19.08a9.55,9.55,0,0,1-1.1,2.5c.2.63.47,1,.79,1s.26-.31.3-1.17a1.18,1.18,0,0,0,.42.28c-.09,1.09-.26,1.41-.77,1.41s-.83-.36-1.1-1a6.33,6.33,0,0,1-1.05,1.07,2.08,2.08,0,0,0-.38-.37,5.07,5.07,0,0,0,1.22-1.27,14.44,14.44,0,0,1-.42-3H58.61v-.44h1.76v-.62H59v-.44h1.39v-.58h.52v.58h1.28v.44H60.89v.62h1.79c0-.52,0-1.07,0-1.63h.53c0,.57,0,1.12,0,1.63H65.1v.44H63.21a16.47,16.47,0,0,0,.28,2.34,8.81,8.81,0,0,0,.8-2ZM62.46,22l-1.31.14v1h-.51V22.2l-1.89.2-.06-.5,1.95-.16V21h-.95a1.13,1.13,0,0,0-.58.1,3.25,3.25,0,0,0-.17-.5c.11,0,.22-.17.34-.36s.15-.28.28-.53h-.82v-.44h1a5.86,5.86,0,0,0,.27-.71l.53.15c-.07.19-.15.38-.24.56h2.14v.44H60.09c-.15.29-.31.58-.47.82h1V20h.51v.59h1.15V21H61.14v.68l1.31-.12Zm2-4.18a5.23,5.23,0,0,0-.88-1l.39-.25a4.41,4.41,0,0,1,.9.92Z" style="fill:#fff;stroke:#fff;stroke-miterlimit:10;stroke-width:0.2px"/><path d="M67.13,17.93V19.4a8.63,8.63,0,0,1-.69,3.8,1.91,1.91,0,0,0-.46-.3,7.82,7.82,0,0,0,.61-3.5v-2h2.9a7.94,7.94,0,0,0-.39-.85l.53-.13a7.52,7.52,0,0,1,.47,1h2.44v.52Zm5.5,4.35v.52h-5.4v-.52H70.1a13.34,13.34,0,0,0,1.54-3.85l.57.2a16.49,16.49,0,0,1-1.55,3.65ZM68.4,21.5A19,19,0,0,0,67.61,19l.47-.19a18.51,18.51,0,0,1,.82,2.47Zm1.39-.41a20.2,20.2,0,0,0-.61-2.49l.49-.13a19.84,19.84,0,0,1,.63,2.47Z" style="fill:#fff;stroke:#fff;stroke-miterlimit:10;stroke-width:0.2px"/><path d="M79.71,22.41c0,.35-.09.51-.33.61A4.76,4.76,0,0,1,78,23.1a2.12,2.12,0,0,0-.18-.53c.51,0,1,0,1.14,0s.2-.05.2-.19V20.92h-2v2.15h-.54V20.92H74.85a4.19,4.19,0,0,1-.91,2.26,1.79,1.79,0,0,0-.42-.36,4.73,4.73,0,0,0,.88-3.2V17h5.31Zm-3-2V19.19H74.93v.43c0,.24,0,.51,0,.78Zm-1.74-2.89v1.17h1.74V17.51Zm4.25,0h-2v1.17h2Zm0,2.89V19.19h-2V20.4Z" style="fill:#fff;stroke:#fff;stroke-miterlimit:10;stroke-width:0.2px"/><path d="M81.25,23a1.27,1.27,0,0,0,.92-1.07H82a.5.5,0,0,1-.55-.52.51.51,0,0,1,.55-.53c.4,0,.62.33.62.84a1.74,1.74,0,0,1-1.26,1.66Z" style="fill:#fff;stroke:#fff;stroke-miterlimit:10;stroke-width:0.2px"/><path d="M88,21.31a2.13,2.13,0,0,0,.19.45A11.55,11.55,0,0,0,86.7,23a2.17,2.17,0,0,0-.28-.46.73.73,0,0,0,.34-.62V19.28H85.67v-.52h1.61v3.11Zm-.8-3.22A9,9,0,0,0,86.15,17l.35-.32a9.16,9.16,0,0,1,1.1,1.07Zm5.08.74v.42H87.92v-.42h1.9v-.51h-1.5v-.39h1.5v-.46H88.14v-.42h1.68v-.57h.53v.57H92.1v.42H90.35v.46h1.53v.39H90.35v.51Zm-.57,3.7c0,.28-.06.42-.25.5a3.21,3.21,0,0,1-1.05.08,2.09,2.09,0,0,0-.16-.47c.37,0,.72,0,.81,0s.14,0,.14-.12V22H88.95v1.12h-.51V19.67h3.3Zm-2.79-2.44v.56h2.28v-.56Zm2.28,1.53V21H88.95v.59Z" style="fill:#fff;stroke:#fff;stroke-miterlimit:10;stroke-width:0.2px"/><path d="M97,21.9v.49l-3.74.53-.09-.54,1.68-.2V20.9H93.49v-.5h1.39v-.87h.53v.87h1.37v.5H95.41v1.21Zm-1-4.08a8.43,8.43,0,0,1,1.15,1.63l-.42.25c-.07-.13-.15-.28-.25-.45-1.15.08-2.32.14-3.15.19l0-.52.66,0a12.27,12.27,0,0,0,.54-1.45H93.28V17H97v.48H95.07c-.18.46-.39,1-.6,1.43l1.68-.07c-.18-.26-.39-.52-.58-.75Zm1.85,3.54h-.52v-4h.52Zm1.72-4.68v5.73c0,.37-.09.54-.33.63a4.51,4.51,0,0,1-1.26.09,3.19,3.19,0,0,0-.18-.56c.47,0,.93,0,1.07,0s.18,0,.18-.18V16.68Z" style="fill:#fff;stroke:#fff;stroke-miterlimit:10;stroke-width:0.2px"/></svg>